#N canvas 0 51 450 300 10;
#X obj 29 54 loadbang;
#X msg 36 82 \; pd dsp 1;
#X obj 191 99 adc~ 1 2;
#X obj 191 188 *~ 1;
#X obj 338 249 dac~;
#X connect 0 0 1 0;
#X connect 2 0 3 0;
#X connect 2 1 3 0;
#X connect 3 0 4 0;
#X connect 3 0 4 1;
