#N canvas 68 23 1348 805 12;
#X declare -lib zexy;
#X obj 16 471 *~;
#X obj 22 874 dac~;
#X obj 77 471 *~;
#X obj 145 471 *~;
#X obj 183 470 *~;
#N canvas 194 106 1246 725 looper 0;
#X obj 40 81 +~;
#X obj 39 379 *~;
#X obj 40 432 *~ 0.5;
#X obj 40 526 tabwrite~ loop;
#X obj 103 352 line~;
#X obj 103 323 pack 0 6;
#X msg 103 280 0;
#X msg 143 292 1;
#X msg 484 32 reset;
#X obj 434 461 tabplay~ loop;
#X msg 434 427 bang;
#X msg 484 427 stop;
#X obj 509 484 bng 15 250 50 0 empty empty empty 17 7 0 10 -262144
-1 -1;
#X obj 319 286 timer;
#X obj 319 318 * 44.1;
#X floatatom 319 347 5 0 0 0 - - -;
#X msg 319 372 resize \$1;
#X obj 319 401 s loop;
#X msg 531 350 normalize;
#X obj 337 240 t b b b;
#X msg 512 384 resize 3.969e+06 \, const 0;
#X obj 724 40 table loop 3.969e+06;
#X msg 373 50 0;
#X obj 270 71 f;
#X obj 257 110 + 1;
#X msg 372 72 2;
#X obj 297 91 sel 0 1 2 3;
#X obj 230 88 sel 3;
#X text 519 427 stop playback;
#X text 527 32 clear loop;
#X obj 270 13 tgl 15 0 empty empty empty 17 7 0 10 -262144 -1 -1 0
1;
#X msg 270 48 bang;
#X text 288 11 rec;
#X text 572 136 functional \, unlimited overdubbing looper. there is
still an unfortunate quirk however: you can't seem to overdub during
the very first playback of the first loop \, the overdubs do not record
in this scenario.;
#X obj 40 48 inlet~;
#X obj 433 588 outlet~;
#X obj 340 19 inlet;
#X obj 555 5 inlet;
#X obj 435 535 *~;
#X obj 483 532 inlet;
#X connect 0 0 1 0;
#X connect 1 0 2 0;
#X connect 2 0 3 0;
#X connect 4 0 1 1;
#X connect 5 0 4 0;
#X connect 6 0 5 0;
#X connect 7 0 5 0;
#X connect 8 0 22 0;
#X connect 8 0 11 0;
#X connect 8 0 20 0;
#X connect 9 0 3 0;
#X connect 9 0 38 0;
#X connect 9 1 12 0;
#X connect 9 1 3 0;
#X connect 10 0 9 0;
#X connect 11 0 9 0;
#X connect 12 0 10 0;
#X connect 13 0 14 0;
#X connect 14 0 15 0;
#X connect 15 0 16 0;
#X connect 16 0 17 0;
#X connect 18 0 17 0;
#X connect 19 0 6 0;
#X connect 19 1 10 0;
#X connect 19 2 13 1;
#X connect 20 0 17 0;
#X connect 22 0 23 1;
#X connect 23 0 27 0;
#X connect 23 0 26 0;
#X connect 24 0 23 1;
#X connect 25 0 23 1;
#X connect 26 0 3 0;
#X connect 26 0 13 0;
#X connect 26 0 7 0;
#X connect 26 1 19 0;
#X connect 26 1 6 0;
#X connect 26 2 7 0;
#X connect 26 3 6 0;
#X connect 26 3 25 0;
#X connect 27 1 24 0;
#X connect 30 0 31 0;
#X connect 31 0 23 0;
#X connect 34 0 0 0;
#X connect 36 0 30 0;
#X connect 37 0 8 0;
#X connect 38 0 35 0;
#X connect 39 0 38 1;
#X restore 573 1236 pd looper;
#X obj 594 1118 tgl 20 0 empty empty Recording 17 7 0 10 -258113 -1
-1 0 1;
#X obj 420 550 bng 60 250 50 0 empty empty Clear/Reset_Loop 17 7 0
10 -258113 -1 -1;
#N canvas 543 60 698 649 metrolooper 0;
#X floatatom 403 87 5 0 0 0 - - -;
#X obj 403 55 expr (60/$f1)*1000;
#X text 521 57 convert to ms;
#X text 446 88 ms;
#X obj 372 133 metro;
#X obj 376 96 tgl 15 0 empty empty empty 17 7 0 10 -262144 -1 -1 0
1;
#X text 325 93 on/off;
#X text 414 132 outputs bang every 'x' ms;
#X obj 494 277 *~;
#X obj 494 202 vline~;
#X text 470 162 got to 1 (full volume) in 20 \, then go to zero (no
volume) in 20 ms after waiting 20 ms;
#X text 542 201 translate to audio rate signal;
#X text 572 234 generate 800 hz sine tone;
#X text 524 276 multiply sine tone by amplitude envelope;
#X obj 494 317 dac~;
#X obj 403 -12 inlet;
#X obj 363 43 inlet;
#X obj 21 199 float;
#X obj 87 200 + 1;
#X obj 217 444 tgl 15 0 empty empty empty 17 7 0 10 -262144 -1 -1 0
1;
#X floatatom 20 510 5 0 0 0 - - -;
#X obj 513 422 tgl 15 0 empty empty empty 17 7 0 10 -262144 -1 -1 0
1;
#X floatatom 365 508 5 0 0 0 - - -;
#X obj 365 474 expr if (($f3 == 1 && $f2 == $f1) \, 1 \, 0);
#X text 534 421 Arm Stop Rec;
#X obj 21 472 expr if (($f3 == 1 && $f2 == $f1) \, 1 \, 0);
#X obj 24 541 route 0 1;
#X obj 64 595 outlet;
#X text 184 421 Arm Rec;
#X obj 364 537 route 0 1;
#X obj 361 590 outlet;
#X text 124 595 Go to Arm Rec;
#X text 421 594 Go to Stop Rec;
#X obj 175 353 inlet AR;
#X obj 90 314 outlet;
#X obj 70 136 inlet;
#X obj 189 48 bng 15 250 50 0 empty empty empty 17 7 0 10 -262144 -1
-1;
#X text 207 45 restart Metro;
#X obj 192 147 outlet;
#X obj 176 12 inlet;
#X obj 22 257 mod 8;
#X obj 474 385 - 1;
#X obj 363 564 t b;
#X msg 190 85 -1;
#X msg 376 165 1 50 \, 0 10 10;
#X obj 509 233 osc~ 900;
#X obj 64 355 t b b;
#X msg 64 404 0;
#X msg 380 408 0;
#X connect 0 0 4 1;
#X connect 1 0 0 0;
#X connect 4 0 44 0;
#X connect 4 0 17 0;
#X connect 5 0 4 0;
#X connect 8 0 14 0;
#X connect 8 0 14 1;
#X connect 9 0 8 0;
#X connect 15 0 1 0;
#X connect 16 0 5 0;
#X connect 17 0 18 0;
#X connect 17 0 40 0;
#X connect 18 0 17 1;
#X connect 19 0 25 2;
#X connect 20 0 26 0;
#X connect 21 0 23 2;
#X connect 22 0 29 0;
#X connect 23 0 22 0;
#X connect 25 0 20 0;
#X connect 26 1 27 0;
#X connect 26 1 21 0;
#X connect 29 1 42 0;
#X connect 29 1 21 0;
#X connect 33 0 19 0;
#X connect 35 0 40 1;
#X connect 36 0 43 0;
#X connect 39 0 36 0;
#X connect 40 0 34 0;
#X connect 40 0 23 0;
#X connect 40 0 25 0;
#X connect 40 0 46 0;
#X connect 41 0 23 1;
#X connect 42 0 30 0;
#X connect 43 0 38 0;
#X connect 43 0 17 0;
#X connect 44 0 9 0;
#X connect 45 0 8 1;
#X connect 46 0 47 0;
#X connect 46 1 48 0;
#X connect 47 0 25 1;
#X connect 48 0 23 1;
#X restore 1083 607 pd metrolooper;
#X obj 1148 486 tgl 60 0 empty empty Start_Metro_To_Rec 17 7 0 10 -4032
-1 -1 0 1;
#X floatatom 1285 495 5 0 0 2 BPM - -;
#X obj 911 672 tgl 25 0 empty empty REC?over 17 7 0 10 -4034 -1 -1
0 1;
#X obj 1117 699 s metro;
#X msg 991 571 16;
#X obj 1148 670 s restartMetro;
#X obj 1074 488 bng 60 250 50 0 empty empty empty 17 7 0 10 -162280
-1 -1;
#X msg 991 515 4;
#X msg 992 543 8;
#X obj 911 610 tgl 15 0 empty empty empty 17 7 0 10 -262144 -1 -1 1
1;
#X floatatom 911 630 5 0 0 0 - - -;
#X obj 911 549 bng 15 250 50 0 empty empty empty 17 7 0 10 -262144
-1 -1;
#X obj 944 564 tgl 15 0 empty empty empty 17 7 0 10 -262144 -1 -1 0
1;
#X obj 911 587 spigot;
#X obj 27 56 oscparse;
#X obj 20 84 list trim;
#X obj 24 18 netreceive -u -b 7000;
#X obj 177 228 route rec_ovr volume clear;
#X obj 1023 182 route clear on bpm lenght4 lenght8 lenght16 position
;
#X obj 25 194 route v1 v2 v3 v4 v5 v6 v7 v8;
#X obj 210 2 declare -lib zexy;
#X obj 178 253 s rec_ovr;
#X obj 913 512 r rec_ovr;
#X obj 239 254 s volumelooper;
#X obj 614 1168 r volumelooper;
#X obj 296 254 s clearloop;
#X obj 422 523 r clearloop;
#X obj 636 1137 s recOSCout;
#X obj 1146 92 r recOSCout;
#X obj 1076 560 s resetMetro;
#X obj 1030 4 r resetMetro;
#X obj 421 497 r resetMetro;
#X obj 1183 109 r resetlooprec;
#X obj 422 649 s resetREC;
#X obj 633 1209 r resetREC;
#X obj 910 708 s armOsc;
#X obj 1117 70 r armOsc;
#X obj 573 1278 s~ looperAudio;
#X obj 17 778 r~ looperAudio;
#X obj 702 58 s eq;
#X obj 702 28 route eq channelselect;
#X obj 779 54 list prepend;
#X msg 782 79 \$2;
#X obj 831 79 any2list;
#X obj 897 79 route symbol;
#X obj 26 233 adc~ 1 2 3 4;
#X msg 1284 455 120;
#X obj 1263 422 r resetMetro;
#X msg 1084 52 connect 192.168.9.89 8002;
#X obj 20 703 s~ audioOut;
#X obj 15 1042 r~ audioOut;
#X obj 90 1340 s~ effects+Audio;
#X obj 451 1111 r~ effects+Audio;
#X obj 165 807 r~ effects+Audio;
#X msg 36 442 1;
#X obj 36 416 loadbang;
#N canvas 0 23 450 300 bypassBB 0;
#X obj 195 -4 route 0 1;
#X obj 195 23 bng 15 250 50 0 empty empty empty 17 7 0 10 -262144 -1
-1;
#X obj 220 24 bng 15 250 50 0 empty empty empty 17 7 0 10 -262144 -1
-1;
#X msg 168 65 1;
#X msg 195 65 0;
#X msg 220 65 0;
#X msg 246 65 1;
#X obj 74 218 outlet~;
#X obj 195 -33 inlet;
#X obj 75 -33 inlet~;
#X obj 138 -33 inlet~;
#N canvas 628 268 450 300 pot~ 0;
#X obj -183 96 line~;
#X obj -220 175 *~;
#X obj -182 135 *~;
#X msg -183 69 \$1 20;
#X obj -221 20 inlet~;
#X obj -221 205 outlet~;
#X obj -183 43 inlet;
#X connect 0 0 2 0;
#X connect 0 0 2 1;
#X connect 1 0 5 0;
#X connect 2 0 1 1;
#X connect 3 0 0 0;
#X connect 4 0 1 0;
#X connect 6 0 3 0;
#X restore 74 138 pd pot~;
#N canvas 630 270 450 300 pot~ 0;
#X obj -183 96 line~;
#X obj -220 175 *~;
#X obj -182 135 *~;
#X msg -183 69 \$1 20;
#X obj -221 20 inlet~;
#X obj -221 205 outlet~;
#X obj -183 43 inlet;
#X connect 0 0 2 0;
#X connect 0 0 2 1;
#X connect 1 0 5 0;
#X connect 2 0 1 1;
#X connect 3 0 0 0;
#X connect 4 0 1 0;
#X connect 6 0 3 0;
#X restore 137 138 pd pot~;
#X connect 0 0 1 0;
#X connect 0 1 2 0;
#X connect 1 0 3 0;
#X connect 1 0 4 0;
#X connect 2 0 5 0;
#X connect 2 0 6 0;
#X connect 3 0 11 1;
#X connect 4 0 12 1;
#X connect 5 0 11 1;
#X connect 6 0 12 1;
#X connect 8 0 0 0;
#X connect 9 0 11 0;
#X connect 10 0 12 0;
#X connect 11 0 7 0;
#X connect 12 0 7 0;
#X restore 86 1181 pd bypassBB;
#X msg 100 1011 60000;
#X obj 117 1077 /;
#X obj 86 1147 *~ 0.5;
#X obj 1295 538 s bpm;
#X obj 102 955 r bpm;
#X msg 115 1040 \$1;
#X obj 102 985 bang;
#X msg 149 1011 30000;
#X msg 200 1011 45000;
#X obj 355 75 route bypassEcho quarter eight triplet;
#X obj 355 42 route echo;
#X obj 357 118 s bypassEcho;
#X obj 451 118 s quarter;
#X obj 526 118 s eight;
#X obj 585 118 s triplet;
#X obj 276 1041 r bypassEcho;
#X obj 100 927 r quarter;
#X obj 175 927 r eight;
#X obj 201 976 r triplet;
#X obj 1102 653 + 1;
#N canvas 523 196 735 635 single_eq 0;
#X obj 224 546 outlet~;
#X obj 147 10 inlet oscEQ;
#X obj 148 54 route low lowQ band bandQ high highQ;
#X obj 68 160 inlet~ audio1;
#X obj 563 168 tgl 15 0 empty empty empty 17 7 0 10 -262144 -1 -1 0
1;
#X obj 563 188 switch~;
#X obj 558 22 inlet;
#X obj 560 82 expr if($f1 == 1 \, 0 \, 1);
#X obj 67 389 else/lowpass~ 1000 0.1;
#X obj 215 391 else/bandpass~ 100 0.1;
#X obj 360 390 else/highpass~ 1000 0.1;
#X connect 1 0 2 0;
#X connect 2 0 8 1;
#X connect 2 1 8 2;
#X connect 2 2 9 1;
#X connect 2 3 9 2;
#X connect 2 4 10 1;
#X connect 2 5 10 2;
#X connect 3 0 8 0;
#X connect 3 0 9 0;
#X connect 3 0 10 0;
#X connect 4 0 5 0;
#X connect 6 0 7 0;
#X connect 7 0 4 0;
#X connect 8 0 0 0;
#X connect 9 0 0 0;
#X connect 10 0 0 0;
#X restore 18 585 pd single_eq;
#X obj 154 124 s singleEq;
#X obj 57 501 r singleEq;
#N canvas 0 23 450 300 bypassBB 0;
#X obj 195 -4 route 0 1;
#X obj 195 23 bng 15 250 50 0 empty empty empty 17 7 0 10 -262144 -1
-1;
#X obj 220 24 bng 15 250 50 0 empty empty empty 17 7 0 10 -262144 -1
-1;
#X msg 168 65 1;
#X msg 195 65 0;
#X msg 220 65 0;
#X msg 246 65 1;
#X obj 74 218 outlet~;
#X obj 195 -33 inlet;
#X obj 75 -33 inlet~;
#X obj 138 -33 inlet~;
#N canvas 628 268 450 300 pot~ 0;
#X obj -183 96 line~;
#X obj -220 175 *~;
#X obj -182 135 *~;
#X msg -183 69 \$1 20;
#X obj -221 20 inlet~;
#X obj -221 205 outlet~;
#X obj -183 43 inlet;
#X connect 0 0 2 0;
#X connect 0 0 2 1;
#X connect 1 0 5 0;
#X connect 2 0 1 1;
#X connect 3 0 0 0;
#X connect 4 0 1 0;
#X connect 6 0 3 0;
#X restore 74 138 pd pot~;
#N canvas 630 270 450 300 pot~ 0;
#X obj -183 96 line~;
#X obj -220 175 *~;
#X obj -182 135 *~;
#X msg -183 69 \$1 20;
#X obj -221 20 inlet~;
#X obj -221 205 outlet~;
#X obj -183 43 inlet;
#X connect 0 0 2 0;
#X connect 0 0 2 1;
#X connect 1 0 5 0;
#X connect 2 0 1 1;
#X connect 3 0 0 0;
#X connect 4 0 1 0;
#X connect 6 0 3 0;
#X restore 137 138 pd pot~;
#X connect 0 0 1 0;
#X connect 0 1 2 0;
#X connect 1 0 3 0;
#X connect 1 0 4 0;
#X connect 2 0 5 0;
#X connect 2 0 6 0;
#X connect 3 0 11 1;
#X connect 4 0 12 1;
#X connect 5 0 11 1;
#X connect 6 0 12 1;
#X connect 8 0 0 0;
#X connect 9 0 11 0;
#X connect 10 0 12 0;
#X connect 11 0 7 0;
#X connect 12 0 7 0;
#X restore 19 653 pd bypassBB;
#X obj 151 564 tgl 15 1 empty empty empty 17 7 0 10 -258113 -1 -1 1
1;
#X obj 101 527 r bypassEq;
#X obj 234 125 s bypassEq;
#N canvas 0 23 450 300 bypassBB 0;
#X obj 195 -4 route 0 1;
#X obj 195 23 bng 15 250 50 0 empty empty empty 17 7 0 10 -262144 -1
-1;
#X obj 220 24 bng 15 250 50 0 empty empty empty 17 7 0 10 -262144 -1
-1;
#X msg 168 65 1;
#X msg 195 65 0;
#X msg 220 65 0;
#X msg 246 65 1;
#X obj 74 218 outlet~;
#X obj 195 -33 inlet;
#X obj 75 -33 inlet~;
#X obj 138 -33 inlet~;
#N canvas 628 268 450 300 pot~ 0;
#X obj -183 96 line~;
#X obj -220 175 *~;
#X obj -182 135 *~;
#X msg -183 69 \$1 20;
#X obj -221 20 inlet~;
#X obj -221 205 outlet~;
#X obj -183 43 inlet;
#X connect 0 0 2 0;
#X connect 0 0 2 1;
#X connect 1 0 5 0;
#X connect 2 0 1 1;
#X connect 3 0 0 0;
#X connect 4 0 1 0;
#X connect 6 0 3 0;
#X restore 74 138 pd pot~;
#N canvas 630 270 450 300 pot~ 0;
#X obj -183 96 line~;
#X obj -220 175 *~;
#X obj -182 135 *~;
#X msg -183 69 \$1 20;
#X obj -221 20 inlet~;
#X obj -221 205 outlet~;
#X obj -183 43 inlet;
#X connect 0 0 2 0;
#X connect 0 0 2 1;
#X connect 1 0 5 0;
#X connect 2 0 1 1;
#X connect 3 0 0 0;
#X connect 4 0 1 0;
#X connect 6 0 3 0;
#X restore 137 138 pd pot~;
#X connect 0 0 1 0;
#X connect 0 1 2 0;
#X connect 1 0 3 0;
#X connect 1 0 4 0;
#X connect 2 0 5 0;
#X connect 2 0 6 0;
#X connect 3 0 11 1;
#X connect 4 0 12 1;
#X connect 5 0 11 1;
#X connect 6 0 12 1;
#X connect 8 0 0 0;
#X connect 9 0 11 0;
#X connect 10 0 12 0;
#X connect 11 0 7 0;
#X connect 12 0 7 0;
#X restore 88 1284 pd bypassBB;
#X obj 175 1241 tgl 15 1 empty empty empty 17 7 0 10 -258113 -1 -1
1 1;
#X obj 154 97 route singleEq bypassEq bypassReverb;
#X obj 315 127 s bypassReverb;
#X obj 176 1165 r bypassReverb;
#X obj 185 506 loadbang;
#X msg 183 529 1;
#X obj 295 1120 tgl 15 1 empty empty empty 17 7 0 10 -258113 -1 -1
1 1;
#X obj 297 1060 loadbang;
#X msg 298 1084 1;
#N canvas 226 105 450 300 reverb 0;
#X obj 83 140 freeverb~;
#X obj 45 65 inlet~;
#X obj 32 212 outlet~;
#X obj 240 176 tgl 15 0 empty empty empty 17 7 0 10 -262144 -1 -1 0
1;
#X obj 240 196 switch~;
#X obj 235 30 inlet;
#X obj 237 90 expr if($f1 == 1 \, 0 \, 1);
#X connect 0 0 2 0;
#X connect 0 1 2 0;
#X connect 1 0 0 0;
#X connect 1 0 0 1;
#X connect 1 0 2 0;
#X connect 3 0 4 0;
#X connect 5 0 6 0;
#X connect 6 0 3 0;
#X restore 87 1229 pd reverb;
#X obj 183 1188 loadbang;
#X msg 183 1215 1;
#X obj 85 1118 nusmuk-audio/echo~ 592 0.2;
#X obj 166 761 readsf~;
#X msg 129 727 start;
#X msg 189 729 stop;
#X obj 148 698 bng 15 250 50 0 empty empty empty 17 7 0 10 -262144
-1 -1;
#X obj 136 654 threshold~ 1 100 0.1 100;
#X msg 190 688 open Bass-Drum-1.wav;
#X obj 928 1112 tgl 20 0 empty empty Recording 17 7 0 10 -258113 -1
-1 0 1;
#X obj 785 1105 r~ effects+Audio;
#X obj 870 1016 r RecBang2;
#X obj 953 1015 r BangStopRec2;
#N canvas 194 106 1246 725 looper2 0;
#X obj 40 81 +~;
#X obj 39 379 *~;
#X obj 40 432 *~ 0.5;
#X obj 103 352 line~;
#X obj 103 323 pack 0 6;
#X msg 103 280 0;
#X msg 143 292 1;
#X msg 484 32 reset;
#X msg 434 427 bang;
#X msg 484 427 stop;
#X obj 509 484 bng 15 250 50 0 empty empty empty 17 7 0 10 -262144
-1 -1;
#X obj 319 286 timer;
#X obj 319 318 * 44.1;
#X floatatom 319 347 5 0 0 0 - - -;
#X msg 319 372 resize \$1;
#X msg 531 350 normalize;
#X obj 337 240 t b b b;
#X msg 512 384 resize 3.969e+06 \, const 0;
#X msg 373 50 0;
#X obj 270 71 f;
#X obj 257 110 + 1;
#X msg 372 72 2;
#X obj 297 91 sel 0 1 2 3;
#X obj 230 88 sel 3;
#X text 519 427 stop playback;
#X obj 270 13 tgl 15 0 empty empty empty 17 7 0 10 -262144 -1 -1 0
1;
#X msg 270 48 bang;
#X text 288 11 rec;
#X text 572 136 functional \, unlimited overdubbing looper. there is
still an unfortunate quirk however: you can't seem to overdub during
the very first playback of the first loop \, the overdubs do not record
in this scenario.;
#X obj 40 48 inlet~;
#X obj 433 588 outlet~;
#X obj 340 19 inlet;
#X obj 555 5 inlet;
#X obj 435 535 *~;
#X obj 483 532 inlet;
#X obj 40 526 tabwrite~ loop2;
#X obj 319 401 s loop2;
#X obj 434 461 tabplay~ loop2;
#X obj 724 40 table loop2 3.969e+06;
#X text 527 32 clear loop2;
#X connect 0 0 1 0;
#X connect 1 0 2 0;
#X connect 2 0 35 0;
#X connect 3 0 1 1;
#X connect 4 0 3 0;
#X connect 5 0 4 0;
#X connect 6 0 4 0;
#X connect 7 0 18 0;
#X connect 7 0 9 0;
#X connect 7 0 17 0;
#X connect 8 0 37 0;
#X connect 9 0 37 0;
#X connect 10 0 8 0;
#X connect 11 0 12 0;
#X connect 12 0 13 0;
#X connect 13 0 14 0;
#X connect 14 0 36 0;
#X connect 15 0 36 0;
#X connect 16 0 5 0;
#X connect 16 1 8 0;
#X connect 16 2 11 1;
#X connect 17 0 36 0;
#X connect 18 0 19 1;
#X connect 19 0 23 0;
#X connect 19 0 22 0;
#X connect 20 0 19 1;
#X connect 21 0 19 1;
#X connect 22 0 11 0;
#X connect 22 0 6 0;
#X connect 22 0 35 0;
#X connect 22 1 16 0;
#X connect 22 1 5 0;
#X connect 22 2 6 0;
#X connect 22 3 5 0;
#X connect 22 3 21 0;
#X connect 23 1 20 0;
#X connect 25 0 26 0;
#X connect 26 0 19 0;
#X connect 29 0 0 0;
#X connect 31 0 25 0;
#X connect 32 0 7 0;
#X connect 33 0 30 0;
#X connect 34 0 33 1;
#X connect 37 0 33 0;
#X connect 37 0 35 0;
#X connect 37 1 10 0;
#X connect 37 1 35 0;
#X restore 908 1230 pd looper2;
#X obj 907 1272 s~ looperAudio2;
#X obj 29 809 r~ looperAudio2;
#X obj 212 282 route rec_ovr volume clear;
#X obj 276 302 s volumelooper2;
#X obj 338 308 s clearloop2;
#X obj 948 1162 r volumelooper2;
#X obj 536 995 send;
#X symbolatom 589 959 10 0 0 0 - - -;
#X msg 603 891 symbol BangStopRec2;
#X obj 591 278 s selectLooper2;
#X obj 603 869 r selectLooper2;
#X obj 492 937 bng 15 250 50 0 empty empty empty 17 7 0 10 -262144
-1 -1;
#X obj 444 281 s selectLooper1;
#X msg 591 846 symbol BangStopRec1;
#X obj 619 1021 r BangStopRec1;
#X obj 1230 629 s BangStopRec;
#X obj 490 903 r BangStopRec;
#X obj 591 821 r selectLooper1;
#X obj 804 996 send;
#X symbolatom 857 960 10 0 0 0 - - -;
#X obj 870 870 r selectLooper2;
#X obj 781 938 bng 15 250 50 0 empty empty empty 17 7 0 10 -262144
-1 -1;
#X obj 858 822 r selectLooper1;
#X obj 1086 733 s RecBang;
#X obj 536 1022 r RecBang1;
#X msg 857 846 symbol RecBang1;
#X msg 871 891 symbol RecBang2;
#X obj 775 904 r RecBang;
#X obj 210 308 s rec_ovr;
#X obj 575 553 bng 60 250 50 0 empty empty Clear/Reset_Loop 17 7 0
10 -258113 -1 -1;
#X obj 576 492 r resetMetro;
#X obj 575 659 s resetREC2;
#X obj 974 1201 r resetREC2;
#N canvas 384 77 1056 663 sendOscToMObileLooper1 0;
#X obj 704 115 s metroPoistion;
#X obj 1009 358 r metroPoistion;
#X obj 703 20 inlet;
#X obj 208 19 inlet;
#X obj 412 19 inlet;
#X obj 11 20 inlet;
#X obj 308 19 inlet;
#X obj 208 49 route 0 1;
#X obj 307 49 route 0 1;
#X obj 967 -18 netreceive -u -b;
#X obj 967 12 oscparse;
#X obj 967 42 list trim;
#X obj 970 162 hsl 128 15 0 127 0 0 empty empty empty -2 -8 0 10 -262144
-1 -1 0 1;
#X obj 967 159 hradio 15 1 0 8 empty empty empty 0 -8 0 10 -262144
-1 -1 5;
#X obj 424 657 list prepend send;
#X obj 424 687 list trim;
#X obj 350 735 print;
#X obj 424 717 netsend -u -b;
#X msg 282 656 disconnect;
#X obj 967 72 route metro;
#X obj 967 102 route position;
#X obj 967 132 route 1;
#X obj 1009 418 oscformat metro position;
#X obj 958 117 print out byte;
#X msg 967 -48 listen;
#X msg 1009 388 1 \$1 1;
#X obj 11 50 s connections;
#X obj 195 576 r connections;
#X obj 24 570 oscparse;
#X obj 24 600 print parse-output;
#X obj 22 377 any2list;
#X obj 22 531 s looperColour;
#X obj 393 557 r looperColour;
#X obj 472 631 r metroPosition;
#X obj 1009 448 s metroPosition;
#X msg 210 81 blue;
#X msg 210 110 orange;
#X obj 564 313 any2list;
#X obj 563 285 r symbolText;
#X obj 328 219 s symbolText;
#X obj 564 374 oscformat looper1 symbol;
#X msg 322 138 Arm_To_Record;
#X obj 565 408 s looperSymboltext;
#X obj 411 583 r looperSymboltext;
#X msg 211 140 green;
#X msg 230 176 red;
#X msg 446 110 doubletap_to_Ovrdub;
#X obj 749 414 any2list;
#X obj 749 446 oscformat looper1 symbolRecording;
#X msg 449 154 Recording_Now;
#X obj 445 217 s looperActiveRecordingtext;
#X obj 749 356 r looperActiveRecordingtext;
#X obj 749 480 s looperSymbolRecordingtext;
#X obj 443 605 r looperSymbolRecordingtext;
#X obj 207 215 s looperColours;
#X obj 22 346 r looperColours;
#X msg 317 109 Press_to_Arm;
#X obj 410 51 route 0 1;
#X msg 195 606 connect 192.168.100.30 8002;
#X obj 110 19 inlet;
#X obj 110 49 s selectlooper;
#X obj 163 258 r selectlooper;
#X obj 24 490 oscformat looper1 rec_ovr color;
#X obj 253 490 oscformat looper2 rec_ovr color;
#X obj 165 287 list trim;
#X obj 51 444 spigot;
#X obj 126 452 spigot;
#X obj 133 427 tgl 15 0 empty empty empty 17 7 0 10 -257985 -1 -1 0
1;
#X obj 231 424 tgl 15 0 empty empty empty 17 7 0 10 -257985 -1 -1 1
1;
#X msg 208 381 0, f 5;
#X msg 167 380 0;
#X msg 136 353 1;
#X msg 217 354 1;
#X obj 167 315 route L1 L2 L3;
#X obj 348 433 spigot;
#X msg 307 353 1;
#X obj 332 402 tgl 15 0 empty empty empty 17 7 0 10 -257985 -1 -1 0
1;
#X msg 266 381 0;
#X obj 389 328 select;
#X obj 489 488 oscformat looper3 rec_ovr color;
#X connect 1 0 25 0;
#X connect 2 0 0 0;
#X connect 3 0 7 0;
#X connect 4 0 57 0;
#X connect 5 0 26 0;
#X connect 6 0 8 0;
#X connect 7 0 56 0;
#X connect 7 1 36 0;
#X connect 7 1 41 0;
#X connect 8 0 46 0;
#X connect 8 0 44 0;
#X connect 8 1 49 0;
#X connect 8 1 45 0;
#X connect 9 0 10 0;
#X connect 10 0 11 0;
#X connect 10 0 23 0;
#X connect 11 0 19 0;
#X connect 14 0 15 0;
#X connect 15 0 17 0;
#X connect 17 0 16 0;
#X connect 18 0 17 0;
#X connect 19 0 20 0;
#X connect 20 0 21 0;
#X connect 21 0 13 0;
#X connect 22 0 34 0;
#X connect 24 0 9 0;
#X connect 25 0 22 0;
#X connect 27 0 17 0;
#X connect 28 0 29 0;
#X connect 30 0 65 0;
#X connect 30 0 66 0;
#X connect 30 0 74 0;
#X connect 32 0 14 0;
#X connect 33 0 14 0;
#X connect 35 0 54 0;
#X connect 36 0 54 0;
#X connect 37 0 40 0;
#X connect 38 0 37 0;
#X connect 40 0 42 0;
#X connect 41 0 39 0;
#X connect 43 0 14 0;
#X connect 44 0 54 0;
#X connect 45 0 54 0;
#X connect 46 0 50 0;
#X connect 47 0 48 0;
#X connect 48 0 52 0;
#X connect 49 0 50 0;
#X connect 51 0 47 0;
#X connect 53 0 14 0;
#X connect 55 0 30 0;
#X connect 56 0 39 0;
#X connect 57 0 35 0;
#X connect 58 0 17 0;
#X connect 59 0 60 0;
#X connect 61 0 64 0;
#X connect 62 0 31 0;
#X connect 63 0 31 0;
#X connect 64 0 73 0;
#X connect 65 0 62 0;
#X connect 66 0 63 0;
#X connect 67 0 65 1;
#X connect 68 0 66 1;
#X connect 69 0 67 0;
#X connect 69 0 76 0;
#X connect 70 0 68 0;
#X connect 70 0 76 0;
#X connect 71 0 67 0;
#X connect 72 0 68 0;
#X connect 73 0 70 0;
#X connect 73 0 71 0;
#X connect 73 1 69 0;
#X connect 73 1 72 0;
#X connect 73 2 75 0;
#X connect 73 2 77 0;
#X connect 74 0 79 0;
#X connect 75 0 76 0;
#X connect 76 0 74 1;
#X connect 77 0 68 0;
#X connect 77 0 67 0;
#X connect 79 0 31 0;
#X restore 1087 160 pd sendOscToMObileLooper1;
#X obj 1242 134 r metro;
#X obj 445 210 t b b;
#X obj 591 215 t b b;
#X obj 538 370 s L;
#X obj 1104 120 r L;
#X symbolatom 537 344 10 0 0 0 - - -;
#X msg 623 252 list L2;
#X msg 477 251 list L1;
#X msg 1029 29 connect 192.168.100.30 8006;
#X obj 584 522 r clearloop2;
#X obj 970 1131 s recOSCout;
#X obj 524 697 bng 15 250 50 0 empty empty empty 17 7 0 10 -262144
-1 -1;
#X floatatom 524 741 5 0 0 0 - - -;
#X obj 524 767 s resetlooprec;
#X obj 41 161 route input metro looper1 looper2 looper3, f 44;
#X obj 721 214 t b b;
#X msg 753 251 list L3;
#X obj 721 277 s selectLooper3;
#X obj 620 910 r selectLooper3;
#X msg 620 932 symbol BangStopRec3;
#X msg 881 934 symbol RecBang3;
#X obj 880 914 r selectLooper3;
#X obj 1235 1116 tgl 20 0 empty empty Recording 17 7 0 10 -258113 -1
-1 0 1;
#X obj 1092 1109 r~ effects+Audio;
#X obj 1277 1135 s recOSCout;
#N canvas 194 106 1246 725 looper3 0;
#X obj 40 81 +~;
#X obj 39 379 *~;
#X obj 40 432 *~ 0.5;
#X obj 103 352 line~;
#X obj 103 323 pack 0 6;
#X msg 103 280 0;
#X msg 143 292 1;
#X msg 484 32 reset;
#X msg 434 427 bang;
#X msg 484 427 stop;
#X obj 509 484 bng 15 250 50 0 empty empty empty 17 7 0 10 -262144
-1 -1;
#X obj 319 286 timer;
#X obj 319 318 * 44.1;
#X floatatom 319 347 5 0 0 0 - - -;
#X msg 319 372 resize \$1;
#X msg 531 350 normalize;
#X obj 337 240 t b b b;
#X msg 512 384 resize 3.969e+06 \, const 0;
#X msg 373 50 0;
#X obj 270 71 f;
#X obj 257 110 + 1;
#X msg 372 72 2;
#X obj 297 91 sel 0 1 2 3;
#X obj 230 88 sel 3;
#X text 519 427 stop playback;
#X obj 270 13 tgl 15 0 empty empty empty 17 7 0 10 -262144 -1 -1 0
1;
#X msg 270 48 bang;
#X text 288 11 rec;
#X text 572 136 functional \, unlimited overdubbing looper. there is
still an unfortunate quirk however: you can't seem to overdub during
the very first playback of the first loop \, the overdubs do not record
in this scenario.;
#X obj 40 48 inlet~;
#X obj 433 588 outlet~;
#X obj 340 19 inlet;
#X obj 555 5 inlet;
#X obj 435 535 *~;
#X obj 483 532 inlet;
#X text 527 32 clear loop3;
#X obj 319 401 s loop3;
#X obj 40 526 tabwrite~ loop3;
#X obj 434 461 tabplay~ loop3;
#X obj 724 40 table loop3 3.969e+06;
#X connect 0 0 1 0;
#X connect 1 0 2 0;
#X connect 2 0 37 0;
#X connect 3 0 1 1;
#X connect 4 0 3 0;
#X connect 5 0 4 0;
#X connect 6 0 4 0;
#X connect 7 0 18 0;
#X connect 7 0 9 0;
#X connect 7 0 17 0;
#X connect 8 0 38 0;
#X connect 9 0 38 0;
#X connect 10 0 8 0;
#X connect 11 0 12 0;
#X connect 12 0 13 0;
#X connect 13 0 14 0;
#X connect 14 0 36 0;
#X connect 15 0 36 0;
#X connect 16 0 5 0;
#X connect 16 1 8 0;
#X connect 16 2 11 1;
#X connect 17 0 36 0;
#X connect 18 0 19 1;
#X connect 19 0 23 0;
#X connect 19 0 22 0;
#X connect 20 0 19 1;
#X connect 21 0 19 1;
#X connect 22 0 11 0;
#X connect 22 0 6 0;
#X connect 22 0 37 0;
#X connect 22 1 16 0;
#X connect 22 1 5 0;
#X connect 22 2 6 0;
#X connect 22 3 5 0;
#X connect 22 3 21 0;
#X connect 23 1 20 0;
#X connect 25 0 26 0;
#X connect 26 0 19 0;
#X connect 29 0 0 0;
#X connect 31 0 25 0;
#X connect 32 0 7 0;
#X connect 33 0 30 0;
#X connect 34 0 33 1;
#X connect 38 0 33 0;
#X connect 38 0 37 0;
#X connect 38 1 10 0;
#X connect 38 1 37 0;
#X restore 1215 1234 pd looper3;
#X obj 1255 1167 r volumelooper3;
#X obj 1281 1205 r resetREC3;
#X obj 707 550 bng 60 250 50 0 empty empty Clear/Reset_Loop 17 7 0
10 -258113 -1 -1;
#X obj 708 489 r resetMetro;
#X obj 707 656 s resetREC3;
#X obj 716 519 r clearloop3;
#X obj 277 335 route rec_ovr volume clear;
#X obj 277 400 s rec_ovr;
#X obj 395 357 s clearloop3;
#X obj 333 377 s volumelooper3;
#X obj 1214 1276 s~ looperAudio3;
#X obj 55 833 r~ looperAudio3;
#X obj 1177 1020 r RecBang3;
#X obj 1260 1020 r BangStopRec3;
#X obj 524 717 del 100;
#X connect 0 0 86 0;
#X connect 0 0 89 1;
#X connect 2 0 111 0;
#X connect 5 0 46 0;
#X connect 6 0 5 1;
#X connect 6 0 36 0;
#X connect 7 0 163 0;
#X connect 7 0 42 0;
#X connect 8 0 11 0;
#X connect 8 0 141 0;
#X connect 8 1 85 0;
#X connect 8 2 14 0;
#X connect 8 3 133 0;
#X connect 9 0 8 3;
#X connect 10 0 8 4;
#X connect 10 0 69 0;
#X connect 11 0 8 1;
#X connect 11 0 44 0;
#X connect 13 0 8 0;
#X connect 15 0 8 2;
#X connect 15 0 38 0;
#X connect 16 0 8 0;
#X connect 17 0 8 0;
#X connect 18 0 19 0;
#X connect 19 0 11 0;
#X connect 20 0 21 0;
#X connect 20 0 22 0;
#X connect 21 0 22 1;
#X connect 22 0 18 0;
#X connect 23 0 24 0;
#X connect 24 0 49 0;
#X connect 24 0 76 0;
#X connect 24 0 95 0;
#X connect 24 0 166 0;
#X connect 25 0 23 0;
#X connect 26 0 30 0;
#X connect 26 1 32 0;
#X connect 26 2 34 0;
#X connect 27 0 15 0;
#X connect 27 1 9 0;
#X connect 27 2 10 0;
#X connect 27 3 16 0;
#X connect 27 4 17 0;
#X connect 27 5 13 0;
#X connect 28 0 0 1;
#X connect 28 1 2 1;
#X connect 28 2 3 1;
#X connect 28 3 4 1;
#X connect 31 0 20 0;
#X connect 33 0 5 2;
#X connect 35 0 7 0;
#X connect 37 0 151 3;
#X connect 39 0 160 0;
#X connect 40 0 7 0;
#X connect 41 0 151 4;
#X connect 43 0 5 3;
#X connect 45 0 151 2;
#X connect 47 0 1 0;
#X connect 47 0 1 1;
#X connect 49 0 48 0;
#X connect 49 1 50 0;
#X connect 50 0 51 0;
#X connect 51 0 52 0;
#X connect 52 0 53 0;
#X connect 54 0 0 0;
#X connect 54 1 2 0;
#X connect 54 2 3 0;
#X connect 54 3 4 0;
#X connect 55 0 10 0;
#X connect 56 0 55 0;
#X connect 57 0 151 0;
#X connect 59 0 65 1;
#X connect 59 0 65 0;
#X connect 59 0 106 0;
#X connect 61 0 5 0;
#X connect 62 0 1 0;
#X connect 62 0 1 1;
#X connect 63 0 0 1;
#X connect 64 0 63 0;
#X connect 65 0 93 1;
#X connect 65 0 103 0;
#X connect 66 0 67 0;
#X connect 67 0 106 1;
#X connect 68 0 65 0;
#X connect 70 0 71 0;
#X connect 70 0 72 0;
#X connect 71 0 67 1;
#X connect 72 0 66 0;
#X connect 73 0 67 0;
#X connect 74 0 67 0;
#X connect 75 0 77 0;
#X connect 75 1 78 0;
#X connect 75 2 79 0;
#X connect 75 3 80 0;
#X connect 76 0 75 0;
#X connect 81 0 100 0;
#X connect 82 0 66 0;
#X connect 83 0 73 0;
#X connect 84 0 74 0;
#X connect 85 0 12 0;
#X connect 86 0 89 0;
#X connect 88 0 86 1;
#X connect 89 0 58 0;
#X connect 90 0 89 2;
#X connect 90 0 86 2;
#X connect 91 0 90 0;
#X connect 93 0 60 0;
#X connect 94 0 93 2;
#X connect 94 0 103 1;
#X connect 95 0 87 0;
#X connect 95 1 92 0;
#X connect 95 2 96 0;
#X connect 97 0 94 0;
#X connect 98 0 99 0;
#X connect 99 0 90 0;
#X connect 100 0 65 2;
#X connect 100 0 106 3;
#X connect 101 0 102 0;
#X connect 102 0 100 0;
#X connect 103 0 93 0;
#X connect 104 0 105 0;
#X connect 105 0 94 0;
#X connect 106 0 68 0;
#X connect 107 0 86 0;
#X connect 107 0 89 1;
#X connect 108 0 107 0;
#X connect 109 0 107 0;
#X connect 110 0 112 0;
#X connect 110 0 108 0;
#X connect 111 0 110 0;
#X connect 112 0 107 0;
#X connect 113 0 117 1;
#X connect 113 0 162 0;
#X connect 114 0 117 0;
#X connect 115 0 113 0;
#X connect 116 0 113 0;
#X connect 117 0 118 0;
#X connect 119 0 1 0;
#X connect 119 0 1 1;
#X connect 120 0 146 0;
#X connect 120 1 121 0;
#X connect 120 2 122 0;
#X connect 123 0 117 2;
#X connect 125 0 124 1;
#X connect 126 0 125 0;
#X connect 128 0 126 0;
#X connect 129 0 124 0;
#X connect 131 0 125 0;
#X connect 132 0 6 0;
#X connect 134 0 129 0;
#X connect 135 0 131 0;
#X connect 137 0 136 1;
#X connect 138 0 144 0;
#X connect 139 0 136 0;
#X connect 140 0 143 0;
#X connect 142 0 6 0;
#X connect 143 0 137 0;
#X connect 144 0 137 0;
#X connect 145 0 139 0;
#X connect 147 0 149 0;
#X connect 147 0 163 0;
#X connect 148 0 147 0;
#X connect 150 0 117 3;
#X connect 152 0 151 5;
#X connect 153 0 130 0;
#X connect 153 1 159 0;
#X connect 154 0 127 0;
#X connect 154 1 158 0;
#X connect 156 0 151 1;
#X connect 157 0 155 0;
#X connect 158 0 157 0;
#X connect 159 0 157 0;
#X connect 160 0 151 0;
#X connect 161 0 147 0;
#X connect 163 0 192 0;
#X connect 164 0 19 0;
#X connect 164 0 165 0;
#X connect 166 0 28 0;
#X connect 166 1 27 0;
#X connect 166 2 26 0;
#X connect 166 2 153 0;
#X connect 166 3 120 0;
#X connect 166 3 154 0;
#X connect 166 4 167 0;
#X connect 166 4 184 0;
#X connect 167 0 169 0;
#X connect 167 1 168 0;
#X connect 168 0 157 0;
#X connect 170 0 171 0;
#X connect 171 0 125 0;
#X connect 172 0 137 0;
#X connect 173 0 172 0;
#X connect 174 0 177 1;
#X connect 174 0 176 0;
#X connect 175 0 177 0;
#X connect 177 0 188 0;
#X connect 178 0 177 2;
#X connect 179 0 177 3;
#X connect 180 0 182 0;
#X connect 180 0 163 0;
#X connect 181 0 180 0;
#X connect 183 0 180 0;
#X connect 184 0 185 0;
#X connect 184 1 187 0;
#X connect 184 2 186 0;
#X connect 189 0 1 0;
#X connect 189 0 1 1;
#X connect 190 0 174 0;
#X connect 191 0 174 0;
#X connect 192 0 164 0;
