#N canvas 468 181 830 524 12;
#X obj 32 9 adc~ 1 2 3 4 5 6 7 8;
#X obj 38 92 vsl 15 128 0.1 10 1 1 empty empty channel_1 0 -9 0 10
-262130 -1 -1 0 0;
#X obj 115 93 vsl 15 128 0.2 20 1 0 empty empty empty 0 -9 0 10 -262130
-1 -1 0 1;
#X obj 368 96 vsl 15 128 0 127 0 0 empty empty empty 0 -9 0 10 -262144
-1 -1 0 1;
#X obj 172 95 vsl 15 128 0.2 20 1 0 empty empty empty 0 -9 0 10 -262130
-1 -1 12500 1;
#X obj 279 94 vsl 15 128 0 20 0 0 empty empty empty 0 -9 0 10 -262130
-1 -1 0 1;
#X obj 542 95 vsl 15 128 0 127 0 0 empty empty empty 0 -9 0 10 -262144
-1 -1 0 1;
#X obj 456 98 vsl 15 128 0 127 0 0 empty empty empty 0 -9 0 10 -262144
-1 -1 0 1;
#X obj 629 96 vsl 15 128 0 127 0 0 empty empty empty 0 -9 0 10 -262144
-1 -1 0 1;
#X obj 640 257;
#X obj 18 256 *~;
#X obj 18 476 dac~;
#X obj 20 306 s~ audioOut;
#X obj 17 367 r~ audioOut;
#X floatatom 38 237 5 0 0 0 - - -, f 5;
#X obj 84 261 *~;
#X floatatom 112 233 5 0 0 0 - - -, f 5;
#X obj 152 260 *~;
#X floatatom 180 232 5 0 0 0 - - -, f 5;
#X obj 238 261 *~;
#X floatatom 266 233 5 0 0 0 - - -, f 5;
#N canvas 0 51 840 682 delayBB.pd 0;
#X obj 101 101 cnv 15 184 114 empty empty wavey_lays 2 12 0 14 -204786
-66577 0;
#X obj 34 21 inlet~;
#X obj 35 608 outlet~;
#X obj 646 230 loadbang;
#X obj 511 97 r \$0-values;
#N canvas 47 74 1072 591 modulate.oOo..oOo..oOo.. 0;
#X obj 101 271 +;
#X obj 101 250 t b f;
#X obj 82 82 route 0 1 2 3 4 5 6 7;
#X obj 244 216 route 0 1 2 3 4 5 6 7;
#X obj 138 271 +;
#X obj 138 250 t b f;
#X obj 175 271 +;
#X obj 175 250 t b f;
#X obj 212 271 +;
#X obj 212 250 t b f;
#X obj 248 271 +;
#X obj 248 250 t b f;
#X obj 286 271 +;
#X obj 286 250 t b f;
#X obj 323 271 +;
#X obj 323 250 t b f;
#X obj 360 271 +;
#X obj 360 250 t b f;
#X obj 61 8 inlet;
#X obj 99 490 outlet;
#X obj 155 486 outlet;
#X obj 208 489 outlet;
#X obj 264 489 outlet;
#X obj 318 486 outlet;
#X obj 370 486 outlet;
#X obj 425 485 outlet;
#X obj 492 484 outlet;
#X obj 78 409 clip 0 1;
#X obj 132 411 clip 0 1;
#X obj 186 412 clip 0 1;
#X obj 240 414 clip 0 1;
#X obj 294 416 clip 0 1;
#X obj 348 418 clip 0 1;
#X obj 402 419 clip 0 1;
#X obj 456 421 clip 0 1;
#X obj 418 177 route add mul;
#X obj 117 332 t b f;
#X obj 156 335 t b f;
#X obj 193 335 t b f;
#X obj 230 335 t b f;
#X obj 266 335 t b f;
#X obj 304 335 t b f;
#X obj 341 335 t b f;
#X obj 378 335 t b f;
#X obj 118 356 * 1;
#X obj 156 356 * 1;
#X obj 193 356 * 1;
#X obj 231 355 * 1;
#X obj 266 356 * 1;
#X obj 304 356 * 1;
#X obj 341 356 * 1;
#X obj 378 356 * 1;
#X obj 397 275 route 0 1 2 3 4 5 6 7;
#X obj 550 262 +;
#X obj 550 241 t b f;
#X obj 587 262 +;
#X obj 587 241 t b f;
#X obj 624 262 +;
#X obj 624 241 t b f;
#X obj 661 262 +;
#X obj 661 241 t b f;
#X obj 697 262 +;
#X obj 697 241 t b f;
#X obj 735 262 +;
#X obj 735 241 t b f;
#X obj 772 262 +;
#X obj 772 241 t b f;
#X obj 809 262 +;
#X obj 809 241 t b f;
#X obj 548 481 outlet;
#X obj 604 477 outlet;
#X obj 657 480 outlet;
#X obj 713 480 outlet;
#X obj 767 477 outlet;
#X obj 819 477 outlet;
#X obj 874 476 outlet;
#X obj 941 475 outlet;
#X obj 527 400 clip 0 1;
#X obj 581 402 clip 0 1;
#X obj 635 403 clip 0 1;
#X obj 689 405 clip 0 1;
#X obj 743 407 clip 0 1;
#X obj 797 409 clip 0 1;
#X obj 851 410 clip 0 1;
#X obj 905 412 clip 0 1;
#X obj 867 168 route add mul;
#X obj 566 323 t b f;
#X obj 605 326 t b f;
#X obj 642 326 t b f;
#X obj 679 326 t b f;
#X obj 715 326 t b f;
#X obj 753 326 t b f;
#X obj 790 326 t b f;
#X obj 827 326 t b f;
#X obj 567 347 * 1;
#X obj 605 347 * 1;
#X obj 642 347 * 1;
#X obj 680 346 * 1;
#X obj 715 347 * 1;
#X obj 753 347 * 1;
#X obj 790 347 * 1;
#X obj 827 347 * 1;
#X obj 693 206 route 8 9 10 11 12 13 14 5;
#X obj 846 266 route 8 9 10 11 12 13 14 15;
#X msg 79 110 \$1 20;
#X msg 92 130 \$1 20;
#X msg 120 111 \$1 20;
#X msg 133 131 \$1 20;
#X msg 161 110 \$1 20;
#X msg 174 130 \$1 20;
#X msg 202 111 \$1 20;
#X msg 215 131 \$1 20;
#X obj 92 171 line 0 1;
#X obj 109 194 line 0 1;
#X obj 149 166 line 0 1;
#X obj 166 189 line 0 1;
#X obj 207 163 line 0 1;
#X obj 224 186 line 0 1;
#X obj 264 158 line 0 1;
#X obj 281 181 line 0 1;
#X msg 501 51 \$1 20;
#X msg 514 71 \$1 20;
#X msg 542 52 \$1 20;
#X msg 555 72 \$1 20;
#X msg 583 51 \$1 20;
#X msg 596 71 \$1 20;
#X msg 624 52 \$1 20;
#X msg 637 72 \$1 20;
#X obj 512 111 line 0 1;
#X obj 571 107 line 0 1;
#X obj 588 130 line 0 1;
#X obj 629 104 line 0 1;
#X obj 646 127 line 0 1;
#X obj 686 99 line 0 1;
#X obj 703 122 line 0 1;
#X obj 504 22 route 8 9 10 11 12 13 14 15;
#X obj 530 132 line 0 1;
#X obj 845 94 list trim;
#X obj 849 72 inlet;
#X connect 0 0 44 0;
#X connect 1 0 0 0;
#X connect 1 1 0 1;
#X connect 2 0 104 0;
#X connect 2 1 105 0;
#X connect 2 2 106 0;
#X connect 2 3 107 0;
#X connect 2 4 108 0;
#X connect 2 5 109 0;
#X connect 2 6 110 0;
#X connect 2 7 111 0;
#X connect 3 0 0 0;
#X connect 3 1 4 0;
#X connect 3 2 6 0;
#X connect 3 3 8 0;
#X connect 3 4 10 0;
#X connect 3 5 12 0;
#X connect 3 6 14 0;
#X connect 3 7 16 0;
#X connect 4 0 45 0;
#X connect 5 0 4 0;
#X connect 5 1 4 1;
#X connect 6 0 46 0;
#X connect 7 0 6 0;
#X connect 7 1 6 1;
#X connect 8 0 47 0;
#X connect 9 0 8 0;
#X connect 9 1 8 1;
#X connect 10 0 48 0;
#X connect 11 0 10 0;
#X connect 11 1 10 1;
#X connect 12 0 49 0;
#X connect 13 0 12 0;
#X connect 13 1 12 1;
#X connect 14 0 50 0;
#X connect 15 0 14 0;
#X connect 15 1 14 1;
#X connect 16 0 51 0;
#X connect 17 0 16 0;
#X connect 17 1 16 1;
#X connect 18 0 2 0;
#X connect 18 0 135 0;
#X connect 27 0 19 0;
#X connect 28 0 20 0;
#X connect 29 0 21 0;
#X connect 30 0 22 0;
#X connect 31 0 23 0;
#X connect 32 0 24 0;
#X connect 33 0 25 0;
#X connect 34 0 26 0;
#X connect 35 0 3 0;
#X connect 35 1 52 0;
#X connect 36 0 44 0;
#X connect 36 1 44 1;
#X connect 37 0 45 0;
#X connect 37 1 45 1;
#X connect 38 0 46 0;
#X connect 38 1 46 1;
#X connect 39 0 47 0;
#X connect 39 1 47 1;
#X connect 40 0 48 0;
#X connect 40 1 48 1;
#X connect 41 0 49 0;
#X connect 41 1 49 1;
#X connect 42 0 50 0;
#X connect 42 1 50 1;
#X connect 43 0 51 0;
#X connect 43 1 51 1;
#X connect 44 0 27 0;
#X connect 45 0 28 0;
#X connect 46 0 29 0;
#X connect 47 0 30 0;
#X connect 48 0 31 0;
#X connect 49 0 32 0;
#X connect 50 0 33 0;
#X connect 51 0 34 0;
#X connect 52 0 36 0;
#X connect 52 1 37 0;
#X connect 52 2 38 0;
#X connect 52 3 39 0;
#X connect 52 4 40 0;
#X connect 52 5 41 0;
#X connect 52 6 42 0;
#X connect 52 7 43 0;
#X connect 53 0 94 0;
#X connect 54 0 53 0;
#X connect 54 1 53 1;
#X connect 55 0 95 0;
#X connect 56 0 55 0;
#X connect 56 1 55 1;
#X connect 57 0 96 0;
#X connect 58 0 57 0;
#X connect 58 1 57 1;
#X connect 59 0 97 0;
#X connect 60 0 59 0;
#X connect 60 1 59 1;
#X connect 61 0 98 0;
#X connect 62 0 61 0;
#X connect 62 1 61 1;
#X connect 63 0 99 0;
#X connect 64 0 63 0;
#X connect 64 1 63 1;
#X connect 65 0 100 0;
#X connect 66 0 65 0;
#X connect 66 1 65 1;
#X connect 67 0 101 0;
#X connect 68 0 67 0;
#X connect 68 1 67 1;
#X connect 77 0 69 0;
#X connect 78 0 70 0;
#X connect 79 0 71 0;
#X connect 80 0 72 0;
#X connect 81 0 73 0;
#X connect 82 0 74 0;
#X connect 83 0 75 0;
#X connect 84 0 76 0;
#X connect 85 0 102 0;
#X connect 85 1 103 0;
#X connect 86 0 94 0;
#X connect 86 1 94 1;
#X connect 87 0 95 0;
#X connect 87 1 95 1;
#X connect 88 0 96 0;
#X connect 88 1 96 1;
#X connect 89 0 97 0;
#X connect 89 1 97 1;
#X connect 90 0 98 0;
#X connect 90 1 98 1;
#X connect 91 0 99 0;
#X connect 91 1 99 1;
#X connect 92 0 100 0;
#X connect 92 1 100 1;
#X connect 93 0 101 0;
#X connect 93 1 101 1;
#X connect 94 0 77 0;
#X connect 95 0 78 0;
#X connect 96 0 79 0;
#X connect 97 0 80 0;
#X connect 98 0 81 0;
#X connect 99 0 82 0;
#X connect 100 0 83 0;
#X connect 101 0 84 0;
#X connect 102 0 53 0;
#X connect 102 1 55 0;
#X connect 102 2 57 0;
#X connect 102 3 59 0;
#X connect 102 4 61 0;
#X connect 102 5 63 0;
#X connect 102 6 65 0;
#X connect 102 7 67 0;
#X connect 103 0 86 0;
#X connect 103 1 87 0;
#X connect 103 2 88 0;
#X connect 103 3 89 0;
#X connect 103 4 90 0;
#X connect 103 5 91 0;
#X connect 103 6 92 0;
#X connect 103 7 93 0;
#X connect 104 0 112 0;
#X connect 105 0 113 0;
#X connect 106 0 114 0;
#X connect 107 0 115 0;
#X connect 108 0 116 0;
#X connect 109 0 117 0;
#X connect 110 0 118 0;
#X connect 111 0 119 0;
#X connect 112 0 1 0;
#X connect 113 0 5 0;
#X connect 114 0 7 0;
#X connect 115 0 9 0;
#X connect 116 0 11 0;
#X connect 117 0 13 0;
#X connect 118 0 15 0;
#X connect 119 0 17 0;
#X connect 120 0 128 0;
#X connect 121 0 136 0;
#X connect 122 0 129 0;
#X connect 123 0 130 0;
#X connect 124 0 131 0;
#X connect 125 0 132 0;
#X connect 126 0 133 0;
#X connect 127 0 134 0;
#X connect 128 0 54 0;
#X connect 129 0 58 0;
#X connect 130 0 60 0;
#X connect 131 0 62 0;
#X connect 132 0 64 0;
#X connect 133 0 66 0;
#X connect 134 0 68 0;
#X connect 135 0 120 0;
#X connect 135 1 121 0;
#X connect 135 2 122 0;
#X connect 135 3 123 0;
#X connect 135 4 124 0;
#X connect 135 5 125 0;
#X connect 135 6 126 0;
#X connect 135 7 127 0;
#X connect 136 0 56 0;
#X connect 137 0 35 0;
#X connect 137 0 85 0;
#X connect 138 0 137 0;
#X restore 511 158 pd modulate.oOo..oOo..oOo..;
#X obj 511 198 s \$0-delay;
#X obj 579 198 s \$0-feedback;
#X obj 663 198 s \$0-gain;
#X msg 508 283 delay feedback gain;
#X msg 647 283 0.4 0.49 0.49;
#X obj 335 386 hsl 60 10 0 1 0 0 \$0-a \$0-ra delay -2 -7 0 10 -49
-262144 -355 5247 1;
#X obj 208 198 hsl 60 10 0 1 0 0 \$0-c \$0-rc gain -2 -7 0 10 -49 -262144
-355 5800 1;
#X obj 112 198 hsl 60 10 0 1 0 0 \$0-b \$0-rb feedback -2 -7 0 10 -49
-262144 -355 2400 1;
#X obj 646 256 t b b;
#N canvas 361 50 833 682 list-functions 0;
#N canvas 0 50 462 312 list-enumerate 0;
#X obj 107 63 t a b;
#N canvas 473 338 454 304 count 0;
#X obj 131 154 f 0;
#X obj 156 153 + 1;
#X msg 147 133 0;
#X obj 131 183 outlet;
#X obj 131 59 inlet;
#X obj 131 96 b;
#X obj 178 61 inlet;
#X obj 178 98 b;
#X connect 0 0 1 0;
#X connect 0 0 3 0;
#X connect 1 0 0 1;
#X connect 2 0 0 1;
#X connect 4 0 5 0;
#X connect 5 0 0 0;
#X connect 6 0 7 0;
#X connect 7 0 2 0;
#X restore 186 155 pd count;
#X obj 107 113 t a b;
#X obj 107 33 inlet;
#X obj 107 181 list prepend;
#X obj 107 209 outlet;
#X obj 165 209 outlet;
#N canvas 0 50 537 411 drip 0;
#X obj 64 206 list split 1;
#X obj 64 123 until;
#X obj 64 181 list append;
#X obj 194 206 bang;
#X text 146 90 First store list \, then start the loop;
#X text 163 118 "until" bangs its output until told to stop by a "bang"
to its right inlet.;
#X text 182 160 Store the remaining list.;
#X text 239 205 third outlet of "split" tells us to stop.;
#X obj 64 243 outlet;
#X obj 64 57 inlet;
#X text 237 44 From list-help.pd;
#X obj 143 243 outlet;
#X obj 64 86 t b a;
#X connect 0 0 8 0;
#X connect 0 1 2 1;
#X connect 0 2 3 0;
#X connect 0 2 11 0;
#X connect 1 0 2 0;
#X connect 2 0 0 0;
#X connect 3 0 1 1;
#X connect 9 0 12 0;
#X connect 12 0 1 0;
#X connect 12 1 2 1;
#X restore 110 88 pd drip;
#X obj 76 154 list prepend label;
#X connect 0 0 7 0;
#X connect 0 1 1 1;
#X connect 1 0 4 1;
#X connect 2 0 8 0;
#X connect 2 1 1 0;
#X connect 3 0 0 0;
#X connect 4 0 5 0;
#X connect 7 0 2 0;
#X connect 7 1 6 0;
#X connect 8 0 4 0;
#X restore 37 184 pd list-enumerate;
#X obj 37 230 s \$0-controls;
#N canvas 0 50 482 332 list-enumerate 0;
#N canvas 473 338 458 308 count 0;
#X obj 131 154 f 0;
#X obj 156 153 + 1;
#X msg 147 133 0;
#X obj 131 183 outlet;
#X obj 131 59 inlet;
#X obj 131 96 b;
#X obj 178 61 inlet;
#X obj 178 98 b;
#X connect 0 0 1 0;
#X connect 0 0 3 0;
#X connect 1 0 0 1;
#X connect 2 0 0 1;
#X connect 4 0 5 0;
#X connect 5 0 0 0;
#X connect 6 0 7 0;
#X connect 7 0 2 0;
#X restore 186 155 pd count;
#X obj 107 113 t a b;
#X obj 107 33 inlet;
#X obj 107 181 list prepend;
#X obj 112 253 outlet;
#N canvas 0 50 541 415 drip 0;
#X obj 64 206 list split 1;
#X obj 64 123 until;
#X obj 64 181 list append;
#X obj 194 206 bang;
#X text 146 90 First store list \, then start the loop;
#X text 163 118 "until" bangs its output until told to stop by a "bang"
to its right inlet.;
#X text 182 160 Store the remaining list.;
#X text 239 205 third outlet of "split" tells us to stop.;
#X obj 64 243 outlet;
#X obj 64 57 inlet;
#X text 237 44 From list-help.pd;
#X obj 143 243 outlet;
#X obj 64 86 t b a;
#X connect 0 0 8 0;
#X connect 0 1 2 1;
#X connect 0 2 3 0;
#X connect 0 2 11 0;
#X connect 1 0 2 0;
#X connect 2 0 0 0;
#X connect 3 0 1 1;
#X connect 9 0 12 0;
#X connect 12 0 1 0;
#X connect 12 1 2 1;
#X restore 110 88 pd drip;
#X obj 107 63 t a b;
#X connect 0 0 3 1;
#X connect 1 0 3 0;
#X connect 1 1 0 0;
#X connect 2 0 6 0;
#X connect 3 0 4 0;
#X connect 5 0 1 0;
#X connect 6 0 5 0;
#X connect 6 1 0 1;
#X restore 149 183 pd list-enumerate;
#X obj 190 231 808_state \$1/controls;
#N canvas 0 50 498 348 list-enumerate 0;
#N canvas 473 338 458 308 count 0;
#X obj 131 154 f 0;
#X obj 156 153 + 1;
#X msg 147 133 0;
#X obj 131 183 outlet;
#X obj 131 59 inlet;
#X obj 131 96 b;
#X obj 178 61 inlet;
#X obj 178 98 b;
#X connect 0 0 1 0;
#X connect 0 0 3 0;
#X connect 1 0 0 1;
#X connect 2 0 0 1;
#X connect 4 0 5 0;
#X connect 5 0 0 0;
#X connect 6 0 7 0;
#X connect 7 0 2 0;
#X restore 186 155 pd count;
#X obj 107 113 t a b;
#X obj 107 33 inlet;
#X obj 107 181 list prepend;
#X obj 112 253 outlet;
#N canvas 0 50 541 415 drip 0;
#X obj 64 206 list split 1;
#X obj 64 123 until;
#X obj 64 181 list append;
#X obj 194 206 bang;
#X text 146 90 First store list \, then start the loop;
#X text 163 118 "until" bangs its output until told to stop by a "bang"
to its right inlet.;
#X text 182 160 Store the remaining list.;
#X text 239 205 third outlet of "split" tells us to stop.;
#X obj 64 243 outlet;
#X obj 64 57 inlet;
#X text 237 44 From list-help.pd;
#X obj 143 243 outlet;
#X obj 64 86 t b a;
#X connect 0 0 8 0;
#X connect 0 1 2 1;
#X connect 0 2 3 0;
#X connect 0 2 11 0;
#X connect 1 0 2 0;
#X connect 2 0 0 0;
#X connect 3 0 1 1;
#X connect 9 0 12 0;
#X connect 12 0 1 0;
#X connect 12 1 2 1;
#X restore 110 88 pd drip;
#X obj 194 215 t a;
#X obj 106 209 list prepend;
#X obj 107 63 t a b b;
#X connect 0 0 3 1;
#X connect 1 0 3 0;
#X connect 1 1 0 0;
#X connect 2 0 8 0;
#X connect 3 0 7 0;
#X connect 5 0 1 0;
#X connect 6 0 7 1;
#X connect 7 0 6 0;
#X connect 7 0 4 0;
#X connect 8 0 5 0;
#X connect 8 1 0 1;
#X connect 8 2 7 1;
#X restore 411 149 pd list-enumerate;
#X obj 104 251 r \$0-controls;
#X obj 272 98 r \$0-values;
#N canvas 283 65 551 703 replacelist 0;
#X obj 164 224 list;
#X obj 327 98 inlet;
#X obj 250 98 inlet;
#X text 331 72 orig;
#X text 256 74 pos;
#X text 77 70 list to insert;
#X obj 85 94 inlet;
#X obj 207 281 list split;
#X obj 85 526 list;
#X obj 85 598 outlet;
#X obj 85 317 list prepend;
#X obj 85 120 t a b a b;
#X obj 85 430 list prepend 0;
#X obj 250 125 t f f;
#X obj 207 524 list prepend;
#X obj 85 469 route 0 1;
#X obj 316 347 f;
#X obj 286 282 t a b;
#X obj 316 377 > 0;
#X obj 122 358 r \$0-init;
#X obj 122 377 0;
#X obj 300 524 r \$0-init;
#X obj 176 317 r \$0-init;
#X obj 118 527 r \$0-init;
#X obj 159 131 s \$0-init;
#X text 47 25 list-replace: Replace the list starting at position POS
with a new list \, overwriting the old elements.;
#N canvas 0 50 458 308 length 0;
#X obj 171 164 + 1;
#X obj 92 127 b;
#X obj 126 204 f;
#X obj 158 138 1;
#X obj 142 166 f 1;
#X obj 216 168 0;
#X obj 136 59 t a b b;
#N canvas 0 50 537 411 drip 0;
#X obj 64 206 list split 1;
#X obj 64 123 until;
#X obj 64 181 list append;
#X obj 194 206 bang;
#X text 146 90 First store list \, then start the loop;
#X text 163 118 "until" bangs its output until told to stop by a "bang"
to its right inlet.;
#X text 182 160 Store the remaining list.;
#X text 239 205 third outlet of "split" tells us to stop.;
#X obj 64 243 outlet;
#X obj 64 57 inlet;
#X text 237 44 From list-help.pd;
#X obj 143 243 outlet;
#X obj 64 86 t b a;
#X connect 0 0 8 0;
#X connect 0 1 2 1;
#X connect 0 2 3 0;
#X connect 0 2 11 0;
#X connect 1 0 2 0;
#X connect 2 0 0 0;
#X connect 3 0 1 1;
#X connect 9 0 12 0;
#X connect 12 0 1 0;
#X connect 12 1 2 1;
#X restore 92 104 pd drip;
#X obj 137 36 inlet;
#X obj 125 238 outlet;
#X connect 0 0 4 1;
#X connect 1 0 4 0;
#X connect 2 0 9 0;
#X connect 3 0 4 1;
#X connect 4 0 0 0;
#X connect 4 0 2 1;
#X connect 5 0 2 1;
#X connect 6 0 7 0;
#X connect 6 1 3 0;
#X connect 6 2 5 0;
#X connect 7 0 1 0;
#X connect 7 1 2 0;
#X connect 8 0 6 0;
#X restore 268 216 pd length;
#X obj 162 254 list split;
#X connect 0 0 27 0;
#X connect 1 0 0 1;
#X connect 2 0 13 0;
#X connect 6 0 11 0;
#X connect 7 1 8 1;
#X connect 7 1 14 1;
#X connect 8 0 9 0;
#X connect 10 0 12 0;
#X connect 11 0 10 0;
#X connect 11 1 0 0;
#X connect 11 2 26 0;
#X connect 11 3 24 0;
#X connect 12 0 15 0;
#X connect 13 0 27 1;
#X connect 13 1 16 1;
#X connect 14 0 9 0;
#X connect 15 0 8 0;
#X connect 15 1 14 0;
#X connect 16 0 18 0;
#X connect 17 0 14 1;
#X connect 17 0 8 1;
#X connect 17 1 16 0;
#X connect 18 0 12 1;
#X connect 19 0 20 0;
#X connect 20 0 12 1;
#X connect 21 0 14 1;
#X connect 22 0 10 1;
#X connect 23 0 8 1;
#X connect 26 0 7 1;
#X connect 27 0 10 1;
#X connect 27 1 7 0;
#X connect 27 2 17 0;
#X restore 289 199 pd replacelist;
#X obj 423 265 t a;
#X obj 272 130 swap;
#X obj 50 109 inlet;
#N canvas 0 50 545 419 drip2 0;
#X obj 64 123 until;
#X obj 64 181 list append;
#X obj 194 206 bang;
#X text 146 90 First store list \, then start the loop;
#X text 163 118 "until" bangs its output until told to stop by a "bang"
to its right inlet.;
#X text 182 160 Store the remaining list.;
#X text 239 205 third outlet of "split" tells us to stop.;
#X obj 64 243 outlet;
#X obj 64 57 inlet;
#X text 237 44 From list-help.pd;
#X obj 143 243 outlet;
#X obj 64 86 t b a;
#X obj 64 206 list split 2;
#X connect 0 0 1 0;
#X connect 1 0 12 0;
#X connect 2 0 0 1;
#X connect 8 0 11 0;
#X connect 11 0 0 0;
#X connect 11 1 1 1;
#X connect 12 0 7 0;
#X connect 12 1 1 1;
#X connect 12 2 2 0;
#X connect 12 2 10 0;
#X restore 190 285 pd drip2;
#X obj 253 24 inlet;
#X obj 144 355 route 0 1 2 3 4 5 6 7 8 9 10 11 12 13 14 15;
#X obj 144 381 s \$0-ra;
#X obj 156 401 s \$0-rb;
#X obj 167 422 s \$0-rc;
#X obj 179 442 s \$0-rd;
#X obj 194 381 s \$0-re;
#X obj 206 401 s \$0-rf;
#X obj 217 422 s \$0-rg;
#X obj 229 442 s \$0-rh;
#X obj 250 383 s \$0-ri;
#X obj 262 403 s \$0-rj;
#X obj 273 424 s \$0-rk;
#X obj 285 444 s \$0-rl;
#X obj 299 383 s \$0-rm;
#X obj 312 403 s \$0-rn;
#X obj 323 424 s \$0-ro;
#X obj 335 444 s \$0-rp;
#X obj 35 505 r \$0-a;
#X msg 35 530 0 \$1;
#X obj 78 505 r \$0-b;
#X msg 77 529 1 \$1;
#X obj 121 505 r \$0-c;
#X obj 164 505 r \$0-d;
#X msg 121 530 2 \$1;
#X msg 163 529 3 \$1;
#X obj 208 503 r \$0-e;
#X obj 251 503 r \$0-f;
#X obj 294 503 r \$0-g;
#X obj 337 503 r \$0-h;
#X msg 208 528 4 \$1;
#X msg 250 526 5 \$1;
#X msg 294 527 6 \$1;
#X msg 336 527 7 \$1;
#X obj 383 503 r \$0-i;
#X obj 426 502 r \$0-j;
#X obj 468 503 r \$0-k;
#X obj 512 503 r \$0-l;
#X obj 556 501 r \$0-m;
#X obj 599 501 r \$0-o;
#X obj 642 501 r \$0-p;
#X obj 685 501 r \$0-q;
#X msg 383 528 8 \$1;
#X msg 425 527 9 \$1;
#X msg 469 528 10 \$1;
#X msg 511 527 11 \$1;
#X msg 556 526 12 \$1;
#X msg 598 524 13 \$1;
#X msg 641 525 14 \$1;
#X msg 684 525 15 \$1;
#X obj 683 559 s \$0-values;
#X obj 413 202 t a a;
#X obj 412 182 list;
#X obj 257 47 t a b a;
#X obj 294 150 * 2;
#X obj 295 170 + 1;
#X obj 191 253 t a a;
#X connect 0 0 1 0;
#X connect 2 0 1 0;
#X connect 3 0 68 0;
#X connect 4 0 64 1;
#X connect 5 0 13 0;
#X connect 6 0 9 0;
#X connect 7 0 8 0;
#X connect 7 0 3 1;
#X connect 8 0 7 2;
#X connect 9 0 7 0;
#X connect 9 1 66 0;
#X connect 10 0 0 0;
#X connect 11 0 13 0;
#X connect 12 0 65 0;
#X connect 13 0 14 0;
#X connect 13 1 15 0;
#X connect 13 2 16 0;
#X connect 13 3 17 0;
#X connect 13 4 18 0;
#X connect 13 5 19 0;
#X connect 13 6 20 0;
#X connect 13 7 21 0;
#X connect 13 8 22 0;
#X connect 13 9 23 0;
#X connect 13 10 24 0;
#X connect 13 11 25 0;
#X connect 13 12 26 0;
#X connect 13 13 27 0;
#X connect 13 14 28 0;
#X connect 13 15 29 0;
#X connect 30 0 31 0;
#X connect 31 0 62 0;
#X connect 32 0 33 0;
#X connect 33 0 62 0;
#X connect 34 0 36 0;
#X connect 35 0 37 0;
#X connect 36 0 62 0;
#X connect 37 0 62 0;
#X connect 38 0 42 0;
#X connect 39 0 43 0;
#X connect 40 0 44 0;
#X connect 41 0 45 0;
#X connect 42 0 62 0;
#X connect 43 0 62 0;
#X connect 44 0 62 0;
#X connect 45 0 62 0;
#X connect 46 0 54 0;
#X connect 47 0 55 0;
#X connect 48 0 56 0;
#X connect 49 0 57 0;
#X connect 50 0 58 0;
#X connect 51 0 59 0;
#X connect 52 0 60 0;
#X connect 53 0 61 0;
#X connect 54 0 62 0;
#X connect 55 0 62 0;
#X connect 56 0 62 0;
#X connect 57 0 62 0;
#X connect 58 0 62 0;
#X connect 59 0 62 0;
#X connect 60 0 62 0;
#X connect 61 0 62 0;
#X connect 63 0 7 2;
#X connect 63 1 3 1;
#X connect 64 0 63 0;
#X connect 65 0 2 0;
#X connect 65 1 64 0;
#X connect 65 2 4 0;
#X connect 66 0 67 0;
#X connect 67 0 7 1;
#X connect 68 0 11 0;
#X connect 68 1 7 2;
#X restore 508 345 pd list-functions;
#X obj 680 309 s \$0-loadbang;
#X obj 421 113 phasor~;
#X obj 420 90 sig~ 890;
#N canvas 0 50 458 308 rh_scalelog 0;
#X obj 20 155 exp;
#X obj 20 107 *;
#X obj 20 130 +;
#X obj 98 87 log;
#X obj 194 84 log;
#X obj 123 123 t b f;
#X obj 123 145 -;
#X obj 20 183 outlet;
#X obj 20 19 inlet;
#X obj 98 23 inlet;
#X obj 194 24 inlet;
#X connect 0 0 7 0;
#X connect 1 0 2 0;
#X connect 2 0 0 0;
#X connect 3 0 2 1;
#X connect 3 0 5 0;
#X connect 4 0 6 0;
#X connect 5 0 6 0;
#X connect 5 1 6 1;
#X connect 6 0 1 1;
#X connect 8 0 1 0;
#X connect 9 0 3 0;
#X connect 10 0 4 0;
#X restore 104 327 pd rh_scalelog;
#X obj 229 445 r \$0-gain;
#N canvas 0 50 462 312 rh_scalelog 0;
#X obj 20 155 exp;
#X obj 20 107 *;
#X obj 20 130 +;
#X obj 98 87 log;
#X obj 194 84 log;
#X obj 123 123 t b f;
#X obj 123 145 -;
#X obj 20 183 outlet;
#X obj 20 19 inlet;
#X obj 98 23 inlet;
#X obj 194 24 inlet;
#X connect 0 0 7 0;
#X connect 1 0 2 0;
#X connect 2 0 0 0;
#X connect 3 0 2 1;
#X connect 3 0 5 0;
#X connect 4 0 6 0;
#X connect 5 0 6 0;
#X connect 5 1 6 1;
#X connect 6 0 1 1;
#X connect 8 0 1 0;
#X connect 9 0 3 0;
#X connect 10 0 4 0;
#X restore 229 515 pd rh_scalelog;
#X msg 276 491 0.1;
#X msg 322 491 10;
#X obj 105 244 r \$0-delay;
#X msg 197 303 1000;
#X msg 150 302 1;
#X obj 86 492 delwrite~ \$0-fbbb 1000;
#X obj 92 470 *~;
#X obj 121 436 r \$0-feedback;
#X obj 122 457 * 0.95;
#X obj 34 541 *~ 1;
#X obj 90 414 vd~ \$0-fbbb 100;
#X msg 105 350 \$1 20;
#X obj 106 374 line~;
#X obj 150 275 r \$0-loadbang;
#X obj 276 463 r \$0-loadbang;
#X obj 331 113 osc~ 1000;
#X obj 223 107 tgl 15 0 empty empty off|on 17 7 0 10 -262144 -1 -1
0 1;
#X obj 330 211 snapshot~;
#X floatatom 330 234 0 0 0 0 - - -;
#X obj 329 257 + 1;
#X obj 329 280 / 2;
#X obj 332 351 line;
#X obj 154 167 hsl 67 15 0 1000 0 0 empty empty metro_time(0-1000)
-2 -8 0 10 -262144 -1 -1 6600 1;
#X obj 329 302 pack f f;
#X msg 330 326 \$1 \$2;
#X obj 196 135 hsl 67 15 0 1000 0 0 empty empty phasor -2 -8 0 10 -262144
-1 -1 5400 1;
#X obj 330 141 +~;
#X obj 107 134 hsl 67 15 0 1000 0 0 empty empty osc -2 -8 0 10 -262144
-1 -1 0 1;
#X obj 351 181 metro 100;
#X obj 89 21 inlet;
#X obj 789 44 inlet;
#X obj 788 77 tgl 15 0 empty empty empty 17 7 0 10 -262144 -1 -1 1
1;
#X obj 788 97 switch~;
#X obj 90 47 route 0 1 2;
#X obj 194 72 * 1000;
#X obj 89 71 * 1000;
#X obj 143 72 * 1000;
#X connect 1 0 27 0;
#X connect 1 0 31 0;
#X connect 3 0 14 0;
#X connect 4 0 5 0;
#X connect 5 0 6 0;
#X connect 5 1 7 0;
#X connect 9 0 15 0;
#X connect 10 0 15 1;
#X connect 14 0 10 0;
#X connect 14 1 16 0;
#X connect 17 0 48 0;
#X connect 18 0 17 0;
#X connect 19 0 33 0;
#X connect 20 0 21 0;
#X connect 21 0 31 1;
#X connect 22 0 21 1;
#X connect 23 0 21 2;
#X connect 24 0 19 0;
#X connect 25 0 19 2;
#X connect 26 0 19 1;
#X connect 28 0 27 0;
#X connect 29 0 30 0;
#X connect 30 0 28 1;
#X connect 31 0 2 0;
#X connect 32 0 28 0;
#X connect 32 0 31 0;
#X connect 33 0 34 0;
#X connect 34 0 32 0;
#X connect 35 0 26 0;
#X connect 35 0 25 0;
#X connect 36 0 22 0;
#X connect 36 0 23 0;
#X connect 37 0 48 0;
#X connect 38 0 50 0;
#X connect 39 0 40 0;
#X connect 39 0 40 0;
#X connect 40 0 41 0;
#X connect 41 0 42 0;
#X connect 42 0 45 0;
#X connect 43 0 11 0;
#X connect 44 0 45 1;
#X connect 44 0 50 1;
#X connect 45 0 46 0;
#X connect 46 0 43 0;
#X connect 47 0 18 0;
#X connect 48 0 39 0;
#X connect 49 0 37 0;
#X connect 50 0 39 0;
#X connect 51 0 55 0;
#X connect 52 0 53 0;
#X connect 53 0 54 0;
#X connect 53 0 38 0;
#X connect 55 0 57 0;
#X connect 55 1 58 0;
#X connect 55 2 56 0;
#X connect 56 0 44 0;
#X connect 57 0 49 0;
#X connect 58 0 47 0;
#X restore 82 473 pd delayBB.pd;
#N canvas 54 51 1246 725 looper 0;
#X obj -32 78 inlet~;
#N canvas 0 50 612 483 equal_power_crossfade 0;
#X obj 33 48 inlet~;
#X obj 244 58 inlet;
#X obj 33 332 outlet~;
#X obj 319 54 loadbang;
#X msg 319 74 0.5;
#X obj 49 194 expr cos($f1 * 3.14159 / 2);
#X obj 244 194 expr sin($f1 * 3.14159 / 2);
#X obj 244 134 clip 0 1;
#N canvas 0 50 450 300 pan_core 0;
#X obj 21 106 inlet~;
#X obj 226 126 inlet;
#X obj 80 453 *~;
#X obj 144 497 outlet~;
#X obj 210 452 *~;
#X obj 226 428 line~;
#X obj 96 428 line~;
#X obj 96 127 inlet;
#X obj 179 104 inlet~;
#X text 244 544 comment;
#X obj 96 389 pack f 5;
#X obj 226 389 pack f 5;
#X text 223 540 Hans-Christoph Steiner \, 2004;
#X text 223 526 Adapted from [pan_core~];
#X connect 0 0 2 0;
#X connect 1 0 11 0;
#X connect 2 0 3 0;
#X connect 4 0 3 0;
#X connect 5 0 4 1;
#X connect 6 0 2 1;
#X connect 7 0 10 0;
#X connect 8 0 4 0;
#X connect 10 0 6 0;
#X connect 11 0 5 0;
#X restore 39 266 pd pan_core;
#X text 256 437 Adapted from [equal_power_pan~] \, Hans-Christoph Steiner
\, 2004;
#X text 411 449 comment;
#X obj 128 46 inlet~;
#X connect 0 0 8 0;
#X connect 1 0 7 0;
#X connect 3 0 4 0;
#X connect 4 0 7 0;
#X connect 5 0 8 1;
#X connect 6 0 8 3;
#X connect 7 0 5 0;
#X connect 7 0 6 0;
#X connect 8 0 2 0;
#X connect 11 0 8 2;
#X restore -29 877 pd equal_power_crossfade;
#X obj 321 -54 inlet;
#X obj 500 29 hsl 67 15 0 1 0 0 empty empty empty -2 -8 0 10 -262144
-1 -1 2400 1;
#X obj 454 246 t b f;
#X obj 454 224 - 1;
#X floatatom 455 312 5 0 0 0 - - -, f 5;
#X obj 454 202 * 2;
#X msg 455 268 10;
#X obj 455 290 pow;
#X obj 588 29 hsl 67 15 0 1 0 0 empty empty empty -2 -8 0 10 -262144
-1 -1 4600 1;
#X obj 542 247 t b f;
#X obj 542 225 - 1;
#X obj 542 203 * 2;
#X msg 543 269 10;
#X obj 543 291 pow;
#X msg 254 494 0;
#X obj 236 697 phasor~ 0;
#X obj 153 168 hsl 128 15 0 70119 0 0 \$0-start-s \$0-start start 2
8 0 10 -262144 -258113 -1 0 1;
#X obj 153 185 hsl 128 15 0 70119 0 0 \$0-stop-s \$0-stop end 2 8 0
10 -262144 -258113 -1 12700 1;
#X obj 237 736 *~ 1;
#X obj 840 738 table \$0-sample 4.41e+06;
#X obj 145 771 +~ 0;
#X text 184 772 offset;
#X obj 176 614 t b f;
#X msg 292 295 0;
#X obj 329 725 fexpr~ $x[0] < $x[-1];
#X obj 329 765 threshold~ 0.5 1 0.1 1;
#X obj 153 136 hsl 128 15 0.1 10 1 0 \$0-speed-s empty speed(fw-only)
2 8 0 10 -262144 -258113 -1 6718 1;
#X obj 153 151 hsl 128 15 0.1 10 1 0 \$0-pitch-s empty pitch(fw-only)
2 8 0 10 -262144 -258113 -1 8852 1;
#X obj 92 496 r \$0-start-s;
#X obj 92 521 t b f f;
#X obj 5 614 r \$0-stop-s;
#X obj 330 559 r \$0-speed-s;
#N canvas 251 91 717 606 recording 0;
#X msg 164 110 stop;
#X obj 97 80 sel start stop;
#X obj 222 172 tabwrite~ \$0-sample;
#X obj 168 265 f;
#X msg 410 158 \; \$1-sample const 0;
#X obj 410 134 \$0;
#X obj 97 113 t b b b b;
#X obj 97 30 inlet;
#X obj 221 30 inlet~;
#X obj 201 242 samplerate~;
#N canvas 370 460 450 300 counter 0;
#X obj 63 22 inlet;
#X obj 115 24 inlet;
#X obj 63 140 outlet;
#X msg 115 69 0;
#X obj 63 67 metro 1;
#X obj 100 110 + 1;
#X obj 63 109 f;
#X connect 0 0 4 0;
#X connect 1 0 3 0;
#X connect 3 0 6 0;
#X connect 4 0 6 0;
#X connect 5 0 6 1;
#X connect 6 0 5 0;
#X connect 6 0 2 0;
#X restore 97 197 pd counter;
#X obj 168 323 outlet;
#X obj 201 271 / 1000;
#X obj 168 293 * 4.41;
#X obj 164 170 t a b b;
#X connect 0 0 2 0;
#X connect 0 0 14 0;
#X connect 1 0 6 0;
#X connect 1 1 0 0;
#X connect 3 0 13 0;
#X connect 5 0 4 0;
#X connect 6 0 10 0;
#X connect 6 1 10 1;
#X connect 6 2 2 0;
#X connect 6 3 5 0;
#X connect 7 0 1 0;
#X connect 8 0 2 0;
#X connect 9 0 12 0;
#X connect 10 0 3 1;
#X connect 12 0 13 1;
#X connect 13 0 11 0;
#X connect 14 0 10 0;
#X connect 14 1 3 0;
#X connect 14 2 9 0;
#X restore -18 531 pd recording;
#N canvas 87 111 448 424 phasor-freq-calc 0;
#X obj 42 37 inlet;
#X obj 86 36 inlet;
#X obj 137 35 inlet;
#X obj 42 336 outlet;
#X obj 107 334 outlet;
#X obj 187 35 inlet;
#X obj 234 36 inlet;
#X obj 42 161 t b f;
#X obj 42 214 /;
#X obj 42 244 f;
#X obj 42 104 -;
#X obj 42 75 f;
#X obj 42 132 t f f;
#X obj 42 270 spigot;
#X obj 42 298 * 1;
#X obj 42 187 samplerate~;
#X connect 0 0 11 0;
#X connect 1 0 10 1;
#X connect 2 0 9 0;
#X connect 5 0 13 1;
#X connect 6 0 14 1;
#X connect 7 0 15 0;
#X connect 7 1 8 1;
#X connect 8 0 9 0;
#X connect 9 0 13 0;
#X connect 10 0 12 0;
#X connect 11 0 10 0;
#X connect 12 0 7 0;
#X connect 12 1 4 0;
#X connect 13 0 14 0;
#X connect 14 0 3 0;
#X connect 15 0 8 0;
#X restore 92 663 pd phasor-freq-calc;
#X obj 291 266 r \$0-reset-s;
#X obj 310 814 s \$0-reset;
#X msg 227 493 0;
#X msg 174 494 1;
#X obj 840 778 table \$0-hanning 256;
#N canvas 44 51 443 256 write-hanning 0;
#X msg 142 80 0;
#X obj 36 129 osc~;
#X obj 36 81 samplerate~;
#X obj 36 152 *~ -0.5;
#X obj 36 175 +~ 0.5;
#X obj 28 58 bng 15 250 50 0 empty empty empty 0 -6 0 8 -262144 -1
-1;
#X obj 28 26 loadbang;
#X obj 36 105 / 256;
#X obj 28 200 tabwrite~ \$0-hanning;
#X connect 0 0 1 1;
#X connect 1 0 3 0;
#X connect 2 0 7 0;
#X connect 3 0 4 0;
#X connect 4 0 8 0;
#X connect 5 0 2 0;
#X connect 5 0 0 0;
#X connect 5 0 8 0;
#X connect 6 0 5 0;
#X connect 7 0 1 0;
#X restore 839 805 pd write-hanning;
#N canvas 713 138 526 599 read-table 0;
#X obj 89 83 / 256;
#X obj 89 56 * 44100;
#X obj 15 30 inlet~;
#X obj 89 28 inlet;
#X obj 233 429 outlet~;
#X obj 18 258 tabread4~ \$0-sample;
#X obj 89 117 phasor~;
#X obj 16 196 samphold~;
#X obj 98 198 *~ 256;
#X obj 17 232 +~;
#X obj 43 288 *~;
#X obj 149 260 tabread4~ \$0-hanning;
#X obj 374 152 +~ 0.5;
#X obj 374 181 wrap~;
#X obj 304 273 tabread4~ \$0-sample;
#X obj 302 211 samphold~;
#X obj 384 213 *~ 256;
#X obj 303 247 +~;
#X obj 329 303 *~;
#X obj 435 275 tabread4~ \$0-hanning;
#X obj 234 395 +~;
#X obj 128 -4 loadbang;
#X obj 128 22 samplerate~;
#X connect 0 0 6 0;
#X connect 1 0 0 0;
#X connect 2 0 7 0;
#X connect 2 0 15 0;
#X connect 3 0 1 0;
#X connect 5 0 10 0;
#X connect 6 0 7 1;
#X connect 6 0 8 0;
#X connect 6 0 12 0;
#X connect 7 0 9 0;
#X connect 8 0 9 1;
#X connect 8 0 11 0;
#X connect 9 0 5 0;
#X connect 10 0 20 0;
#X connect 11 0 10 1;
#X connect 12 0 13 0;
#X connect 13 0 16 0;
#X connect 13 0 15 1;
#X connect 14 0 18 0;
#X connect 15 0 17 0;
#X connect 16 0 17 1;
#X connect 16 0 19 0;
#X connect 17 0 14 0;
#X connect 18 0 20 1;
#X connect 19 0 18 1;
#X connect 20 0 4 0;
#X connect 21 0 22 0;
#X connect 22 0 1 1;
#X restore 144 822 pd read-table;
#X obj 219 796 r \$0-pitch-s;
#X obj 143 887 *~ 0;
#X obj 125 453 t b b b b;
#X msg 164 856 1;
#X msg 206 856 0;
#X obj 153 102 hsl 90 15 0 1 0 0 empty \$0-pos position 2 7 0 10 -228856
-1 -1 0 1;
#X obj 74 800 s \$0-pos;
#X obj 74 770 snapshot~;
#X obj 74 734 metro 10;
#X obj 74 703 loadbang;
#X obj 227 465 t b b b b;
#X obj 48 473 soundfiler;
#N canvas 364 326 450 300 set_length 0;
#X obj 91 24 inlet;
#X obj 186 142 s \$0-stop;
#X obj 91 150 s \$0-start;
#X msg 91 111 0;
#X msg 186 90 range 0 \$1;
#X msg 106 88 range 0 \$1;
#X obj 151 226 s \$0-speed;
#X msg 151 193 1;
#X obj 91 57 t b f f f b b;
#X obj 285 117 s \$0-pitch;
#X msg 285 88 1;
#X obj 305 234 outlet;
#X connect 0 0 8 0;
#X connect 3 0 2 0;
#X connect 4 0 1 0;
#X connect 5 0 2 0;
#X connect 7 0 6 0;
#X connect 8 0 3 0;
#X connect 8 1 5 0;
#X connect 8 1 11 0;
#X connect 8 2 1 0;
#X connect 8 3 4 0;
#X connect 8 4 7 0;
#X connect 8 5 10 0;
#X connect 10 0 9 0;
#X restore -26 584 pd set_length;
#X obj 18 231 route rec open play;
#X msg 48 448 read \$1 \$2;
#X obj -20 334 symbol;
#X obj -20 356 t s b;
#X obj 7 381 symbol \$0-sample;
#X obj -20 406 pack s s;
#X obj 1154 94 tgl 20 0 empty empty off|on 22 12 0 12 -262144 -1 -1
1 1;
#X obj 1156 135 switch~;
#X msg 615 377 -1;
#X msg 652 376 1;
#X obj 174 298 bng 15 250 50 0 empty empty FW 17 7 0 10 -262144 -1
-1;
#X obj 262 12 bng 15 250 50 0 empty empty rev 17 7 0 10 -262144 -1
-1;
#X floatatom 224 201 9 0 0 0 samplen - -, f 9;
#X obj 450 575 s \$0-sample-length;
#X obj 745 380 r \$0-sample-length;
#X obj 618 614 phasor~;
#X obj 617 683 *~;
#X obj 632 636 r \$0-sample-length;
#X obj 632 659 sig~;
#X obj 618 535 sig~;
#X obj 617 584 *~ 1;
#X msg 745 403 44100 \$1;
#X obj 745 426 /;
#X obj 619 724 tabread4~ \$0-sample;
#X msg 690 377 0;
#X obj 301 122 bng 15 250 50 0 empty empty stp 0 8 0 10 -262144 -1
-1;
#X obj 746 450 v phasorfreq;
#X floatatom 617 510 5 0 0 0 - - -, f 5;
#X msg 616 458 bang;
#X obj 617 488 v phasorfreq;
#N canvas 3 57 1265 686 rec_play_switch 0;
#X msg 27 217 rec start;
#X msg 95 220 rec stop;
#X msg 163 222 play start;
#X msg 257 222 play stop;
#X obj 101 5 inlet;
#X obj 143 6 inlet;
#X obj 124 330 outlet;
#X msg 130 60 1;
#X msg 163 60 0;
#X obj 103 34 route bang 1 0;
#N canvas 474 92 450 300 switch-bang 0;
#X obj 102 54 inlet;
#X obj 102 189 outlet;
#X obj 148 190 outlet;
#X obj 102 102 tgl 30 0 empty empty empty 0 -6 0 10 -258113 -1 -1 0
1;
#X obj 102 157 sel 1 0;
#X connect 0 0 3 0;
#X connect 3 0 4 0;
#X connect 4 0 1 0;
#X connect 4 1 2 0;
#X coords 0 -1 1 1 34 34 2 100 100;
#X restore 208 103 pd switch-bang;
#N canvas 474 95 450 300 switch-bang 0;
#X obj 102 54 inlet;
#X obj 102 189 outlet;
#X obj 148 190 outlet;
#X obj 102 102 tgl 30 0 empty empty REC 0 15 0 15 -258113 -1 -1 0 1
;
#X obj 102 157 sel 1 0;
#X connect 0 0 3 0;
#X connect 3 0 4 0;
#X connect 4 0 1 0;
#X connect 4 1 2 0;
#X coords 0 -1 1 1 34 34 2 100 100;
#X restore 104 103 pd switch-bang;
#X connect 0 0 6 0;
#X connect 1 0 6 0;
#X connect 2 0 6 0;
#X connect 3 0 6 0;
#X connect 4 0 9 0;
#X connect 5 0 10 0;
#X connect 7 0 11 0;
#X connect 8 0 11 0;
#X connect 9 0 11 0;
#X connect 9 1 7 0;
#X connect 9 2 8 0;
#X connect 9 3 6 0;
#X connect 10 0 2 0;
#X connect 10 1 3 0;
#X connect 11 0 0 0;
#X connect 11 1 1 0;
#X coords 0 -1 1 1 40 40 2 100 100;
#X restore 103 104 pd rec_play_switch;
#X obj 205 120 tgl 15 0 empty empty st|bw 17 7 0 10 -262144 -1 -1 0
1;
#X obj 151 120 tgl 15 0 empty empty st|fw 17 7 0 10 -262144 -1 -1 0
1;
#X obj 212 284 sel 0 1;
#X obj 237 -15 sel 0 1;
#X msg 171 326 play start;
#X msg 175 358 play stop;
#X obj 623 899 s~ \$0-LOOPSOUT;
#X obj 42 836 r~ \$0-LOOPSOUT;
#X obj -29 899 outlet~;
#X obj 1155 63 inlet;
#X obj 125 427 sel start stop;
#X obj 46 325 symbol;
#X obj 107 329 symbol;
#X floatatom 543 313 5 0 0 0 - - -, f 5;
#X obj 884 -55 loadbang;
#X msg 884 -33 0.5;
#X obj 102 65 sel 0 1;
#X obj 1039 900 outlet;
#X obj 106 150 vsl 15 60 0 1 0 0 empty crossfade dry|wet 0 12 0 10
-262144 -1 -1 2950 1;
#X obj 682 29 *;
#X obj 772 30 *;
#X obj 119 19 tgl 15 0 empty empty empty 17 7 0 10 -262144 -1 -1 0
1;
#X msg 886 164 0.5;
#X obj 324 -27 route 0 1 2 /stop /speed /pitch /start /end, f 78;
#X obj 1029 147 sel 1;
#X obj 118 40 change;
#X obj 120 -6 > 0.5;
#X obj 334 28 tgl 15 0 empty empty empty 17 7 0 10 -262144 -1 -1 0
1;
#X obj 333 49 change;
#X obj 335 3 > 0.5;
#X obj 401 32 tgl 15 0 empty empty empty 17 7 0 10 -262144 -1 -1 0
1;
#X obj 400 53 change;
#X obj 402 7 > 0.5;
#X connect 0 0 1 0;
#X connect 0 0 34 1;
#X connect 1 0 95 0;
#X connect 2 0 110 0;
#X connect 3 0 7 0;
#X connect 4 0 8 0;
#X connect 4 1 9 1;
#X connect 5 0 4 0;
#X connect 6 0 28 0;
#X connect 7 0 5 0;
#X connect 8 0 9 0;
#X connect 9 0 6 0;
#X connect 10 0 13 0;
#X connect 11 0 14 0;
#X connect 11 1 15 1;
#X connect 12 0 11 0;
#X connect 13 0 12 0;
#X connect 14 0 15 0;
#X connect 15 0 100 0;
#X connect 16 0 17 0;
#X connect 17 0 20 0;
#X connect 17 0 26 0;
#X connect 17 0 50 0;
#X connect 20 0 22 0;
#X connect 22 0 42 0;
#X connect 24 0 35 2;
#X connect 24 1 35 4;
#X connect 25 0 17 1;
#X connect 26 0 27 0;
#X connect 27 0 37 0;
#X connect 30 0 31 0;
#X connect 31 0 35 0;
#X connect 31 1 35 1;
#X connect 31 2 22 1;
#X connect 32 0 35 0;
#X connect 33 0 24 0;
#X connect 34 0 55 0;
#X connect 35 0 17 0;
#X connect 35 1 20 1;
#X connect 36 0 25 0;
#X connect 38 0 35 3;
#X connect 39 0 35 3;
#X connect 42 0 44 0;
#X connect 43 0 42 1;
#X connect 44 0 93 0;
#X connect 45 0 35 0;
#X connect 45 1 39 0;
#X connect 45 2 25 0;
#X connect 45 3 46 0;
#X connect 46 0 44 1;
#X connect 47 0 44 1;
#X connect 50 0 49 0;
#X connect 51 0 50 0;
#X connect 52 0 51 0;
#X connect 53 0 38 0;
#X connect 53 1 16 0;
#X connect 53 2 47 0;
#X connect 53 3 25 0;
#X connect 54 0 55 0;
#X connect 55 0 68 0;
#X connect 56 0 98 0;
#X connect 56 1 58 0;
#X connect 56 2 99 0;
#X connect 57 0 54 0;
#X connect 58 0 59 0;
#X connect 59 0 61 0;
#X connect 59 1 60 0;
#X connect 60 0 61 1;
#X connect 61 0 57 0;
#X connect 62 0 63 0;
#X connect 62 0 111 0;
#X connect 64 0 76 1;
#X connect 64 0 84 0;
#X connect 65 0 76 1;
#X connect 65 0 84 0;
#X connect 66 0 91 0;
#X connect 67 0 64 0;
#X connect 68 0 69 0;
#X connect 68 0 106 1;
#X connect 68 0 107 1;
#X connect 70 0 77 0;
#X connect 71 0 72 0;
#X connect 72 0 79 0;
#X connect 73 0 74 0;
#X connect 74 0 72 1;
#X connect 75 0 76 0;
#X connect 76 0 71 0;
#X connect 77 0 78 0;
#X connect 78 0 82 0;
#X connect 79 0 93 0;
#X connect 80 0 76 1;
#X connect 80 0 84 0;
#X connect 81 0 80 0;
#X connect 83 0 75 0;
#X connect 84 0 85 0;
#X connect 85 0 83 0;
#X connect 86 0 56 0;
#X connect 87 0 90 0;
#X connect 88 0 89 0;
#X connect 89 0 92 0;
#X connect 89 1 66 0;
#X connect 90 0 81 0;
#X connect 90 1 67 0;
#X connect 91 0 56 0;
#X connect 92 0 56 0;
#X connect 94 0 1 1;
#X connect 96 0 62 0;
#X connect 97 0 45 0;
#X connect 97 1 53 0;
#X connect 98 0 34 0;
#X connect 98 0 104 0;
#X connect 99 0 97 0;
#X connect 100 0 29 0;
#X connect 101 0 102 0;
#X connect 102 0 3 0;
#X connect 102 0 10 0;
#X connect 103 0 86 0;
#X connect 103 1 86 0;
#X connect 105 0 1 2;
#X connect 106 0 18 0;
#X connect 107 0 19 0;
#X connect 108 0 112 0;
#X connect 109 0 105 0;
#X connect 110 0 113 0;
#X connect 110 1 116 0;
#X connect 110 2 119 0;
#X connect 110 4 3 0;
#X connect 110 5 10 0;
#X connect 110 6 106 1;
#X connect 110 7 107 0;
#X connect 111 0 109 0;
#X connect 112 0 103 0;
#X connect 113 0 108 0;
#X connect 114 0 115 0;
#X connect 115 0 88 0;
#X connect 116 0 114 0;
#X connect 117 0 118 0;
#X connect 118 0 87 0;
#X connect 119 0 117 0;
#X restore 21 419 pd looper;
#X connect 0 0 10 0;
#X connect 0 1 15 0;
#X connect 0 2 17 0;
#X connect 0 3 19 0;
#X connect 1 0 14 0;
#X connect 2 0 16 0;
#X connect 4 0 18 0;
#X connect 5 0 20 0;
#X connect 8 0 9 0;
#X connect 10 0 12 0;
#X connect 13 0 22 0;
#X connect 14 0 10 1;
#X connect 15 0 12 0;
#X connect 16 0 15 1;
#X connect 17 0 12 0;
#X connect 18 0 17 1;
#X connect 19 0 12 0;
#X connect 20 0 19 1;
#X connect 22 0 11 0;
#X connect 22 0 11 1;
