#N canvas 130 23 1310 808 12;
#X declare -lib zexy;
#X obj 30 313 adc~ 1 2 3 4 5 6 7 8;
#X obj 33 356 vsl 15 128 0.1 40 1 1 empty empty channel_1 0 -9 0 10
-262130 -1 -1 9248 0;
#X obj 58 358 vsl 15 128 0.2 20 1 0 empty empty empty 0 -9 0 10 -262130
-1 -1 0 1;
#X obj 143 362 vsl 15 128 0 40 0 0 empty empty empty 0 -9 0 10 -262144
-1 -1 0 1;
#X obj 85 361 vsl 15 128 0.2 10 1 0 empty empty empty 0 -9 0 10 -262130
-1 -1 0 1;
#X obj 115 358 vsl 15 128 0 10 0 0 empty empty empty 0 -9 0 10 -262130
-1 -1 0 1;
#X obj 204 364 vsl 15 128 0 40 0 0 empty empty empty 0 -9 0 10 -262144
-1 -1 0 1;
#X obj 174 359 vsl 15 128 0 40 0 0 empty empty empty 0 -9 0 10 -262144
-1 -1 0 1;
#X obj 8 524 *~;
#X obj 140 791 dac~;
#X obj 10 574 s~ audioOut;
#X obj 231 566 r~ audioOut;
#X floatatom 28 505 5 0 0 0 - - -;
#X obj 74 529 *~;
#X floatatom 102 501 5 0 0 0 - - -;
#X obj 142 528 *~;
#X floatatom 170 500 5 0 0 0 - - -;
#X obj 228 529 *~;
#X floatatom 256 501 5 0 0 0 - - -;
#N canvas 0 51 840 682 delayBB.pd 0;
#X obj 101 101 cnv 15 184 114 empty empty wavey_lays 2 12 0 14 -204786
-66577 0;
#X obj 34 21 inlet~;
#X obj 35 608 outlet~;
#X obj 646 230 loadbang;
#X obj 511 97 r \$0-values;
#N canvas 47 74 1072 591 modulate.oOo..oOo..oOo.. 0;
#X obj 101 271 +;
#X obj 101 250 t b f;
#X obj 82 82 route 0 1 2 3 4 5 6 7;
#X obj 244 216 route 0 1 2 3 4 5 6 7;
#X obj 138 271 +;
#X obj 138 250 t b f;
#X obj 175 271 +;
#X obj 175 250 t b f;
#X obj 212 271 +;
#X obj 212 250 t b f;
#X obj 248 271 +;
#X obj 248 250 t b f;
#X obj 286 271 +;
#X obj 286 250 t b f;
#X obj 323 271 +;
#X obj 323 250 t b f;
#X obj 360 271 +;
#X obj 360 250 t b f;
#X obj 61 8 inlet;
#X obj 99 490 outlet;
#X obj 155 486 outlet;
#X obj 208 489 outlet;
#X obj 264 489 outlet;
#X obj 318 486 outlet;
#X obj 370 486 outlet;
#X obj 425 485 outlet;
#X obj 492 484 outlet;
#X obj 78 409 clip 0 1;
#X obj 132 411 clip 0 1;
#X obj 186 412 clip 0 1;
#X obj 240 414 clip 0 1;
#X obj 294 416 clip 0 1;
#X obj 348 418 clip 0 1;
#X obj 402 419 clip 0 1;
#X obj 456 421 clip 0 1;
#X obj 418 177 route add mul;
#X obj 117 332 t b f;
#X obj 156 335 t b f;
#X obj 193 335 t b f;
#X obj 230 335 t b f;
#X obj 266 335 t b f;
#X obj 304 335 t b f;
#X obj 341 335 t b f;
#X obj 378 335 t b f;
#X obj 118 356 * 1;
#X obj 156 356 * 1;
#X obj 193 356 * 1;
#X obj 231 355 * 1;
#X obj 266 356 * 1;
#X obj 304 356 * 1;
#X obj 341 356 * 1;
#X obj 378 356 * 1;
#X obj 397 275 route 0 1 2 3 4 5 6 7;
#X obj 550 262 +;
#X obj 550 241 t b f;
#X obj 587 262 +;
#X obj 587 241 t b f;
#X obj 624 262 +;
#X obj 624 241 t b f;
#X obj 661 262 +;
#X obj 661 241 t b f;
#X obj 697 262 +;
#X obj 697 241 t b f;
#X obj 735 262 +;
#X obj 735 241 t b f;
#X obj 772 262 +;
#X obj 772 241 t b f;
#X obj 809 262 +;
#X obj 809 241 t b f;
#X obj 548 481 outlet;
#X obj 604 477 outlet;
#X obj 657 480 outlet;
#X obj 713 480 outlet;
#X obj 767 477 outlet;
#X obj 819 477 outlet;
#X obj 874 476 outlet;
#X obj 941 475 outlet;
#X obj 527 400 clip 0 1;
#X obj 581 402 clip 0 1;
#X obj 635 403 clip 0 1;
#X obj 689 405 clip 0 1;
#X obj 743 407 clip 0 1;
#X obj 797 409 clip 0 1;
#X obj 851 410 clip 0 1;
#X obj 905 412 clip 0 1;
#X obj 867 168 route add mul;
#X obj 566 323 t b f;
#X obj 605 326 t b f;
#X obj 642 326 t b f;
#X obj 679 326 t b f;
#X obj 715 326 t b f;
#X obj 753 326 t b f;
#X obj 790 326 t b f;
#X obj 827 326 t b f;
#X obj 567 347 * 1;
#X obj 605 347 * 1;
#X obj 642 347 * 1;
#X obj 680 346 * 1;
#X obj 715 347 * 1;
#X obj 753 347 * 1;
#X obj 790 347 * 1;
#X obj 827 347 * 1;
#X obj 693 206 route 8 9 10 11 12 13 14 5;
#X obj 846 266 route 8 9 10 11 12 13 14 15;
#X msg 79 110 \$1 20;
#X msg 92 130 \$1 20;
#X msg 120 111 \$1 20;
#X msg 133 131 \$1 20;
#X msg 161 110 \$1 20;
#X msg 174 130 \$1 20;
#X msg 202 111 \$1 20;
#X msg 215 131 \$1 20;
#X obj 92 171 line 0 1;
#X obj 109 194 line 0 1;
#X obj 149 166 line 0 1;
#X obj 166 189 line 0 1;
#X obj 207 163 line 0 1;
#X obj 224 186 line 0 1;
#X obj 264 158 line 0 1;
#X obj 281 181 line 0 1;
#X msg 501 51 \$1 20;
#X msg 514 71 \$1 20;
#X msg 542 52 \$1 20;
#X msg 555 72 \$1 20;
#X msg 583 51 \$1 20;
#X msg 596 71 \$1 20;
#X msg 624 52 \$1 20;
#X msg 637 72 \$1 20;
#X obj 512 111 line 0 1;
#X obj 571 107 line 0 1;
#X obj 588 130 line 0 1;
#X obj 629 104 line 0 1;
#X obj 646 127 line 0 1;
#X obj 686 99 line 0 1;
#X obj 703 122 line 0 1;
#X obj 504 22 route 8 9 10 11 12 13 14 15;
#X obj 530 132 line 0 1;
#X obj 845 94 list trim;
#X obj 849 72 inlet;
#X connect 0 0 44 0;
#X connect 1 0 0 0;
#X connect 1 1 0 1;
#X connect 2 0 104 0;
#X connect 2 1 105 0;
#X connect 2 2 106 0;
#X connect 2 3 107 0;
#X connect 2 4 108 0;
#X connect 2 5 109 0;
#X connect 2 6 110 0;
#X connect 2 7 111 0;
#X connect 3 0 0 0;
#X connect 3 1 4 0;
#X connect 3 2 6 0;
#X connect 3 3 8 0;
#X connect 3 4 10 0;
#X connect 3 5 12 0;
#X connect 3 6 14 0;
#X connect 3 7 16 0;
#X connect 4 0 45 0;
#X connect 5 0 4 0;
#X connect 5 1 4 1;
#X connect 6 0 46 0;
#X connect 7 0 6 0;
#X connect 7 1 6 1;
#X connect 8 0 47 0;
#X connect 9 0 8 0;
#X connect 9 1 8 1;
#X connect 10 0 48 0;
#X connect 11 0 10 0;
#X connect 11 1 10 1;
#X connect 12 0 49 0;
#X connect 13 0 12 0;
#X connect 13 1 12 1;
#X connect 14 0 50 0;
#X connect 15 0 14 0;
#X connect 15 1 14 1;
#X connect 16 0 51 0;
#X connect 17 0 16 0;
#X connect 17 1 16 1;
#X connect 18 0 2 0;
#X connect 18 0 135 0;
#X connect 27 0 19 0;
#X connect 28 0 20 0;
#X connect 29 0 21 0;
#X connect 30 0 22 0;
#X connect 31 0 23 0;
#X connect 32 0 24 0;
#X connect 33 0 25 0;
#X connect 34 0 26 0;
#X connect 35 0 3 0;
#X connect 35 1 52 0;
#X connect 36 0 44 0;
#X connect 36 1 44 1;
#X connect 37 0 45 0;
#X connect 37 1 45 1;
#X connect 38 0 46 0;
#X connect 38 1 46 1;
#X connect 39 0 47 0;
#X connect 39 1 47 1;
#X connect 40 0 48 0;
#X connect 40 1 48 1;
#X connect 41 0 49 0;
#X connect 41 1 49 1;
#X connect 42 0 50 0;
#X connect 42 1 50 1;
#X connect 43 0 51 0;
#X connect 43 1 51 1;
#X connect 44 0 27 0;
#X connect 45 0 28 0;
#X connect 46 0 29 0;
#X connect 47 0 30 0;
#X connect 48 0 31 0;
#X connect 49 0 32 0;
#X connect 50 0 33 0;
#X connect 51 0 34 0;
#X connect 52 0 36 0;
#X connect 52 1 37 0;
#X connect 52 2 38 0;
#X connect 52 3 39 0;
#X connect 52 4 40 0;
#X connect 52 5 41 0;
#X connect 52 6 42 0;
#X connect 52 7 43 0;
#X connect 53 0 94 0;
#X connect 54 0 53 0;
#X connect 54 1 53 1;
#X connect 55 0 95 0;
#X connect 56 0 55 0;
#X connect 56 1 55 1;
#X connect 57 0 96 0;
#X connect 58 0 57 0;
#X connect 58 1 57 1;
#X connect 59 0 97 0;
#X connect 60 0 59 0;
#X connect 60 1 59 1;
#X connect 61 0 98 0;
#X connect 62 0 61 0;
#X connect 62 1 61 1;
#X connect 63 0 99 0;
#X connect 64 0 63 0;
#X connect 64 1 63 1;
#X connect 65 0 100 0;
#X connect 66 0 65 0;
#X connect 66 1 65 1;
#X connect 67 0 101 0;
#X connect 68 0 67 0;
#X connect 68 1 67 1;
#X connect 77 0 69 0;
#X connect 78 0 70 0;
#X connect 79 0 71 0;
#X connect 80 0 72 0;
#X connect 81 0 73 0;
#X connect 82 0 74 0;
#X connect 83 0 75 0;
#X connect 84 0 76 0;
#X connect 85 0 102 0;
#X connect 85 1 103 0;
#X connect 86 0 94 0;
#X connect 86 1 94 1;
#X connect 87 0 95 0;
#X connect 87 1 95 1;
#X connect 88 0 96 0;
#X connect 88 1 96 1;
#X connect 89 0 97 0;
#X connect 89 1 97 1;
#X connect 90 0 98 0;
#X connect 90 1 98 1;
#X connect 91 0 99 0;
#X connect 91 1 99 1;
#X connect 92 0 100 0;
#X connect 92 1 100 1;
#X connect 93 0 101 0;
#X connect 93 1 101 1;
#X connect 94 0 77 0;
#X connect 95 0 78 0;
#X connect 96 0 79 0;
#X connect 97 0 80 0;
#X connect 98 0 81 0;
#X connect 99 0 82 0;
#X connect 100 0 83 0;
#X connect 101 0 84 0;
#X connect 102 0 53 0;
#X connect 102 1 55 0;
#X connect 102 2 57 0;
#X connect 102 3 59 0;
#X connect 102 4 61 0;
#X connect 102 5 63 0;
#X connect 102 6 65 0;
#X connect 102 7 67 0;
#X connect 103 0 86 0;
#X connect 103 1 87 0;
#X connect 103 2 88 0;
#X connect 103 3 89 0;
#X connect 103 4 90 0;
#X connect 103 5 91 0;
#X connect 103 6 92 0;
#X connect 103 7 93 0;
#X connect 104 0 112 0;
#X connect 105 0 113 0;
#X connect 106 0 114 0;
#X connect 107 0 115 0;
#X connect 108 0 116 0;
#X connect 109 0 117 0;
#X connect 110 0 118 0;
#X connect 111 0 119 0;
#X connect 112 0 1 0;
#X connect 113 0 5 0;
#X connect 114 0 7 0;
#X connect 115 0 9 0;
#X connect 116 0 11 0;
#X connect 117 0 13 0;
#X connect 118 0 15 0;
#X connect 119 0 17 0;
#X connect 120 0 128 0;
#X connect 121 0 136 0;
#X connect 122 0 129 0;
#X connect 123 0 130 0;
#X connect 124 0 131 0;
#X connect 125 0 132 0;
#X connect 126 0 133 0;
#X connect 127 0 134 0;
#X connect 128 0 54 0;
#X connect 129 0 58 0;
#X connect 130 0 60 0;
#X connect 131 0 62 0;
#X connect 132 0 64 0;
#X connect 133 0 66 0;
#X connect 134 0 68 0;
#X connect 135 0 120 0;
#X connect 135 1 121 0;
#X connect 135 2 122 0;
#X connect 135 3 123 0;
#X connect 135 4 124 0;
#X connect 135 5 125 0;
#X connect 135 6 126 0;
#X connect 135 7 127 0;
#X connect 136 0 56 0;
#X connect 137 0 35 0;
#X connect 137 0 85 0;
#X connect 138 0 137 0;
#X restore 511 158 pd modulate.oOo..oOo..oOo..;
#X obj 511 198 s \$0-delay;
#X obj 579 198 s \$0-feedback;
#X obj 663 198 s \$0-gain;
#X msg 508 283 delay feedback gain;
#X msg 647 283 0.4 0.49 0.49;
#X obj 335 386 hsl 60 10 0 1 0 0 \$0-a \$0-ra delay -2 -7 0 10 -49
-262144 -355 2360 1;
#X obj 208 198 hsl 60 10 0 1 0 0 \$0-c \$0-rc gain -2 -7 0 10 -49 -262144
-355 2891 1;
#X obj 112 198 hsl 60 10 0 1 0 0 \$0-b \$0-rb feedback -2 -7 0 10 -49
-262144 -355 2891 1;
#X obj 646 256 t b b;
#N canvas 361 50 833 682 list-functions 0;
#N canvas 0 50 462 312 list-enumerate 0;
#X obj 107 63 t a b;
#N canvas 473 338 454 304 count 0;
#X obj 131 154 f 0;
#X obj 156 153 + 1;
#X msg 147 133 0;
#X obj 131 183 outlet;
#X obj 131 59 inlet;
#X obj 131 96 b;
#X obj 178 61 inlet;
#X obj 178 98 b;
#X connect 0 0 1 0;
#X connect 0 0 3 0;
#X connect 1 0 0 1;
#X connect 2 0 0 1;
#X connect 4 0 5 0;
#X connect 5 0 0 0;
#X connect 6 0 7 0;
#X connect 7 0 2 0;
#X restore 186 155 pd count;
#X obj 107 113 t a b;
#X obj 107 33 inlet;
#X obj 107 181 list prepend;
#X obj 107 209 outlet;
#X obj 165 209 outlet;
#N canvas 0 50 537 411 drip 0;
#X obj 64 206 list split 1;
#X obj 64 123 until;
#X obj 64 181 list append;
#X obj 194 206 bang;
#X text 146 90 First store list \, then start the loop;
#X text 163 118 "until" bangs its output until told to stop by a "bang"
to its right inlet.;
#X text 182 160 Store the remaining list.;
#X text 239 205 third outlet of "split" tells us to stop.;
#X obj 64 243 outlet;
#X obj 64 57 inlet;
#X text 237 44 From list-help.pd;
#X obj 143 243 outlet;
#X obj 64 86 t b a;
#X connect 0 0 8 0;
#X connect 0 1 2 1;
#X connect 0 2 3 0;
#X connect 0 2 11 0;
#X connect 1 0 2 0;
#X connect 2 0 0 0;
#X connect 3 0 1 1;
#X connect 9 0 12 0;
#X connect 12 0 1 0;
#X connect 12 1 2 1;
#X restore 110 88 pd drip;
#X obj 76 154 list prepend label;
#X connect 0 0 7 0;
#X connect 0 1 1 1;
#X connect 1 0 4 1;
#X connect 2 0 8 0;
#X connect 2 1 1 0;
#X connect 3 0 0 0;
#X connect 4 0 5 0;
#X connect 7 0 2 0;
#X connect 7 1 6 0;
#X connect 8 0 4 0;
#X restore 37 184 pd list-enumerate;
#X obj 37 230 s \$0-controls;
#N canvas 0 50 482 332 list-enumerate 0;
#N canvas 473 338 458 308 count 0;
#X obj 131 154 f 0;
#X obj 156 153 + 1;
#X msg 147 133 0;
#X obj 131 183 outlet;
#X obj 131 59 inlet;
#X obj 131 96 b;
#X obj 178 61 inlet;
#X obj 178 98 b;
#X connect 0 0 1 0;
#X connect 0 0 3 0;
#X connect 1 0 0 1;
#X connect 2 0 0 1;
#X connect 4 0 5 0;
#X connect 5 0 0 0;
#X connect 6 0 7 0;
#X connect 7 0 2 0;
#X restore 186 155 pd count;
#X obj 107 113 t a b;
#X obj 107 33 inlet;
#X obj 107 181 list prepend;
#X obj 112 253 outlet;
#N canvas 0 50 541 415 drip 0;
#X obj 64 206 list split 1;
#X obj 64 123 until;
#X obj 64 181 list append;
#X obj 194 206 bang;
#X text 146 90 First store list \, then start the loop;
#X text 163 118 "until" bangs its output until told to stop by a "bang"
to its right inlet.;
#X text 182 160 Store the remaining list.;
#X text 239 205 third outlet of "split" tells us to stop.;
#X obj 64 243 outlet;
#X obj 64 57 inlet;
#X text 237 44 From list-help.pd;
#X obj 143 243 outlet;
#X obj 64 86 t b a;
#X connect 0 0 8 0;
#X connect 0 1 2 1;
#X connect 0 2 3 0;
#X connect 0 2 11 0;
#X connect 1 0 2 0;
#X connect 2 0 0 0;
#X connect 3 0 1 1;
#X connect 9 0 12 0;
#X connect 12 0 1 0;
#X connect 12 1 2 1;
#X restore 110 88 pd drip;
#X obj 107 63 t a b;
#X connect 0 0 3 1;
#X connect 1 0 3 0;
#X connect 1 1 0 0;
#X connect 2 0 6 0;
#X connect 3 0 4 0;
#X connect 5 0 1 0;
#X connect 6 0 5 0;
#X connect 6 1 0 1;
#X restore 149 183 pd list-enumerate;
#X obj 190 231 808_state \$1/controls;
#N canvas 0 50 498 348 list-enumerate 0;
#N canvas 473 338 458 308 count 0;
#X obj 131 154 f 0;
#X obj 156 153 + 1;
#X msg 147 133 0;
#X obj 131 183 outlet;
#X obj 131 59 inlet;
#X obj 131 96 b;
#X obj 178 61 inlet;
#X obj 178 98 b;
#X connect 0 0 1 0;
#X connect 0 0 3 0;
#X connect 1 0 0 1;
#X connect 2 0 0 1;
#X connect 4 0 5 0;
#X connect 5 0 0 0;
#X connect 6 0 7 0;
#X connect 7 0 2 0;
#X restore 186 155 pd count;
#X obj 107 113 t a b;
#X obj 107 33 inlet;
#X obj 107 181 list prepend;
#X obj 112 253 outlet;
#N canvas 0 50 541 415 drip 0;
#X obj 64 206 list split 1;
#X obj 64 123 until;
#X obj 64 181 list append;
#X obj 194 206 bang;
#X text 146 90 First store list \, then start the loop;
#X text 163 118 "until" bangs its output until told to stop by a "bang"
to its right inlet.;
#X text 182 160 Store the remaining list.;
#X text 239 205 third outlet of "split" tells us to stop.;
#X obj 64 243 outlet;
#X obj 64 57 inlet;
#X text 237 44 From list-help.pd;
#X obj 143 243 outlet;
#X obj 64 86 t b a;
#X connect 0 0 8 0;
#X connect 0 1 2 1;
#X connect 0 2 3 0;
#X connect 0 2 11 0;
#X connect 1 0 2 0;
#X connect 2 0 0 0;
#X connect 3 0 1 1;
#X connect 9 0 12 0;
#X connect 12 0 1 0;
#X connect 12 1 2 1;
#X restore 110 88 pd drip;
#X obj 194 215 t a;
#X obj 106 209 list prepend;
#X obj 107 63 t a b b;
#X connect 0 0 3 1;
#X connect 1 0 3 0;
#X connect 1 1 0 0;
#X connect 2 0 8 0;
#X connect 3 0 7 0;
#X connect 5 0 1 0;
#X connect 6 0 7 1;
#X connect 7 0 6 0;
#X connect 7 0 4 0;
#X connect 8 0 5 0;
#X connect 8 1 0 1;
#X connect 8 2 7 1;
#X restore 411 149 pd list-enumerate;
#X obj 104 251 r \$0-controls;
#X obj 272 98 r \$0-values;
#N canvas 283 65 551 703 replacelist 0;
#X obj 164 224 list;
#X obj 327 98 inlet;
#X obj 250 98 inlet;
#X text 331 72 orig;
#X text 256 74 pos;
#X text 77 70 list to insert;
#X obj 85 94 inlet;
#X obj 207 281 list split;
#X obj 85 526 list;
#X obj 85 598 outlet;
#X obj 85 317 list prepend;
#X obj 85 120 t a b a b;
#X obj 85 430 list prepend 0;
#X obj 250 125 t f f;
#X obj 207 524 list prepend;
#X obj 85 469 route 0 1;
#X obj 316 347 f;
#X obj 286 282 t a b;
#X obj 316 377 > 0;
#X obj 122 358 r \$0-init;
#X obj 122 377 0;
#X obj 300 524 r \$0-init;
#X obj 176 317 r \$0-init;
#X obj 118 527 r \$0-init;
#X obj 159 131 s \$0-init;
#X text 47 25 list-replace: Replace the list starting at position POS
with a new list \, overwriting the old elements.;
#N canvas 0 50 458 308 length 0;
#X obj 171 164 + 1;
#X obj 92 127 b;
#X obj 126 204 f;
#X obj 158 138 1;
#X obj 142 166 f 1;
#X obj 216 168 0;
#X obj 136 59 t a b b;
#N canvas 0 50 537 411 drip 0;
#X obj 64 206 list split 1;
#X obj 64 123 until;
#X obj 64 181 list append;
#X obj 194 206 bang;
#X text 146 90 First store list \, then start the loop;
#X text 163 118 "until" bangs its output until told to stop by a "bang"
to its right inlet.;
#X text 182 160 Store the remaining list.;
#X text 239 205 third outlet of "split" tells us to stop.;
#X obj 64 243 outlet;
#X obj 64 57 inlet;
#X text 237 44 From list-help.pd;
#X obj 143 243 outlet;
#X obj 64 86 t b a;
#X connect 0 0 8 0;
#X connect 0 1 2 1;
#X connect 0 2 3 0;
#X connect 0 2 11 0;
#X connect 1 0 2 0;
#X connect 2 0 0 0;
#X connect 3 0 1 1;
#X connect 9 0 12 0;
#X connect 12 0 1 0;
#X connect 12 1 2 1;
#X restore 92 104 pd drip;
#X obj 137 36 inlet;
#X obj 125 238 outlet;
#X connect 0 0 4 1;
#X connect 1 0 4 0;
#X connect 2 0 9 0;
#X connect 3 0 4 1;
#X connect 4 0 0 0;
#X connect 4 0 2 1;
#X connect 5 0 2 1;
#X connect 6 0 7 0;
#X connect 6 1 3 0;
#X connect 6 2 5 0;
#X connect 7 0 1 0;
#X connect 7 1 2 0;
#X connect 8 0 6 0;
#X restore 268 216 pd length;
#X obj 162 254 list split;
#X connect 0 0 27 0;
#X connect 1 0 0 1;
#X connect 2 0 13 0;
#X connect 6 0 11 0;
#X connect 7 1 8 1;
#X connect 7 1 14 1;
#X connect 8 0 9 0;
#X connect 10 0 12 0;
#X connect 11 0 10 0;
#X connect 11 1 0 0;
#X connect 11 2 26 0;
#X connect 11 3 24 0;
#X connect 12 0 15 0;
#X connect 13 0 27 1;
#X connect 13 1 16 1;
#X connect 14 0 9 0;
#X connect 15 0 8 0;
#X connect 15 1 14 0;
#X connect 16 0 18 0;
#X connect 17 0 14 1;
#X connect 17 0 8 1;
#X connect 17 1 16 0;
#X connect 18 0 12 1;
#X connect 19 0 20 0;
#X connect 20 0 12 1;
#X connect 21 0 14 1;
#X connect 22 0 10 1;
#X connect 23 0 8 1;
#X connect 26 0 7 1;
#X connect 27 0 10 1;
#X connect 27 1 7 0;
#X connect 27 2 17 0;
#X restore 289 199 pd replacelist;
#X obj 423 265 t a;
#X obj 272 130 swap;
#X obj 50 109 inlet;
#N canvas 0 50 545 419 drip2 0;
#X obj 64 123 until;
#X obj 64 181 list append;
#X obj 194 206 bang;
#X text 146 90 First store list \, then start the loop;
#X text 163 118 "until" bangs its output until told to stop by a "bang"
to its right inlet.;
#X text 182 160 Store the remaining list.;
#X text 239 205 third outlet of "split" tells us to stop.;
#X obj 64 243 outlet;
#X obj 64 57 inlet;
#X text 237 44 From list-help.pd;
#X obj 143 243 outlet;
#X obj 64 86 t b a;
#X obj 64 206 list split 2;
#X connect 0 0 1 0;
#X connect 1 0 12 0;
#X connect 2 0 0 1;
#X connect 8 0 11 0;
#X connect 11 0 0 0;
#X connect 11 1 1 1;
#X connect 12 0 7 0;
#X connect 12 1 1 1;
#X connect 12 2 2 0;
#X connect 12 2 10 0;
#X restore 190 285 pd drip2;
#X obj 253 24 inlet;
#X obj 144 355 route 0 1 2 3 4 5 6 7 8 9 10 11 12 13 14 15;
#X obj 144 381 s \$0-ra;
#X obj 156 401 s \$0-rb;
#X obj 167 422 s \$0-rc;
#X obj 179 442 s \$0-rd;
#X obj 194 381 s \$0-re;
#X obj 206 401 s \$0-rf;
#X obj 217 422 s \$0-rg;
#X obj 229 442 s \$0-rh;
#X obj 250 383 s \$0-ri;
#X obj 262 403 s \$0-rj;
#X obj 273 424 s \$0-rk;
#X obj 285 444 s \$0-rl;
#X obj 299 383 s \$0-rm;
#X obj 312 403 s \$0-rn;
#X obj 323 424 s \$0-ro;
#X obj 335 444 s \$0-rp;
#X obj 35 505 r \$0-a;
#X msg 35 530 0 \$1;
#X obj 78 505 r \$0-b;
#X msg 77 529 1 \$1;
#X obj 121 505 r \$0-c;
#X obj 164 505 r \$0-d;
#X msg 121 530 2 \$1;
#X msg 163 529 3 \$1;
#X obj 208 503 r \$0-e;
#X obj 251 503 r \$0-f;
#X obj 294 503 r \$0-g;
#X obj 337 503 r \$0-h;
#X msg 208 528 4 \$1;
#X msg 250 526 5 \$1;
#X msg 294 527 6 \$1;
#X msg 336 527 7 \$1;
#X obj 383 503 r \$0-i;
#X obj 426 502 r \$0-j;
#X obj 468 503 r \$0-k;
#X obj 512 503 r \$0-l;
#X obj 556 501 r \$0-m;
#X obj 599 501 r \$0-o;
#X obj 642 501 r \$0-p;
#X obj 685 501 r \$0-q;
#X msg 383 528 8 \$1;
#X msg 425 527 9 \$1;
#X msg 469 528 10 \$1;
#X msg 511 527 11 \$1;
#X msg 556 526 12 \$1;
#X msg 598 524 13 \$1;
#X msg 641 525 14 \$1;
#X msg 684 525 15 \$1;
#X obj 683 559 s \$0-values;
#X obj 413 202 t a a;
#X obj 412 182 list;
#X obj 257 47 t a b a;
#X obj 294 150 * 2;
#X obj 295 170 + 1;
#X obj 191 253 t a a;
#X connect 0 0 1 0;
#X connect 2 0 1 0;
#X connect 3 0 68 0;
#X connect 4 0 64 1;
#X connect 5 0 13 0;
#X connect 6 0 9 0;
#X connect 7 0 8 0;
#X connect 7 0 3 1;
#X connect 8 0 7 2;
#X connect 9 0 7 0;
#X connect 9 1 66 0;
#X connect 10 0 0 0;
#X connect 11 0 13 0;
#X connect 12 0 65 0;
#X connect 13 0 14 0;
#X connect 13 1 15 0;
#X connect 13 2 16 0;
#X connect 13 3 17 0;
#X connect 13 4 18 0;
#X connect 13 5 19 0;
#X connect 13 6 20 0;
#X connect 13 7 21 0;
#X connect 13 8 22 0;
#X connect 13 9 23 0;
#X connect 13 10 24 0;
#X connect 13 11 25 0;
#X connect 13 12 26 0;
#X connect 13 13 27 0;
#X connect 13 14 28 0;
#X connect 13 15 29 0;
#X connect 30 0 31 0;
#X connect 31 0 62 0;
#X connect 32 0 33 0;
#X connect 33 0 62 0;
#X connect 34 0 36 0;
#X connect 35 0 37 0;
#X connect 36 0 62 0;
#X connect 37 0 62 0;
#X connect 38 0 42 0;
#X connect 39 0 43 0;
#X connect 40 0 44 0;
#X connect 41 0 45 0;
#X connect 42 0 62 0;
#X connect 43 0 62 0;
#X connect 44 0 62 0;
#X connect 45 0 62 0;
#X connect 46 0 54 0;
#X connect 47 0 55 0;
#X connect 48 0 56 0;
#X connect 49 0 57 0;
#X connect 50 0 58 0;
#X connect 51 0 59 0;
#X connect 52 0 60 0;
#X connect 53 0 61 0;
#X connect 54 0 62 0;
#X connect 55 0 62 0;
#X connect 56 0 62 0;
#X connect 57 0 62 0;
#X connect 58 0 62 0;
#X connect 59 0 62 0;
#X connect 60 0 62 0;
#X connect 61 0 62 0;
#X connect 63 0 7 2;
#X connect 63 1 3 1;
#X connect 64 0 63 0;
#X connect 65 0 2 0;
#X connect 65 1 64 0;
#X connect 65 2 4 0;
#X connect 66 0 67 0;
#X connect 67 0 7 1;
#X connect 68 0 11 0;
#X connect 68 1 7 2;
#X restore 508 345 pd list-functions;
#X obj 680 309 s \$0-loadbang;
#X obj 421 113 phasor~;
#X obj 420 90 sig~ 890;
#N canvas 0 50 458 308 rh_scalelog 0;
#X obj 20 155 exp;
#X obj 20 107 *;
#X obj 20 130 +;
#X obj 98 87 log;
#X obj 194 84 log;
#X obj 123 123 t b f;
#X obj 123 145 -;
#X obj 20 183 outlet;
#X obj 20 19 inlet;
#X obj 98 23 inlet;
#X obj 194 24 inlet;
#X connect 0 0 7 0;
#X connect 1 0 2 0;
#X connect 2 0 0 0;
#X connect 3 0 2 1;
#X connect 3 0 5 0;
#X connect 4 0 6 0;
#X connect 5 0 6 0;
#X connect 5 1 6 1;
#X connect 6 0 1 1;
#X connect 8 0 1 0;
#X connect 9 0 3 0;
#X connect 10 0 4 0;
#X restore 104 327 pd rh_scalelog;
#X obj 229 445 r \$0-gain;
#N canvas 0 50 462 312 rh_scalelog 0;
#X obj 20 155 exp;
#X obj 20 107 *;
#X obj 20 130 +;
#X obj 98 87 log;
#X obj 194 84 log;
#X obj 123 123 t b f;
#X obj 123 145 -;
#X obj 20 183 outlet;
#X obj 20 19 inlet;
#X obj 98 23 inlet;
#X obj 194 24 inlet;
#X connect 0 0 7 0;
#X connect 1 0 2 0;
#X connect 2 0 0 0;
#X connect 3 0 2 1;
#X connect 3 0 5 0;
#X connect 4 0 6 0;
#X connect 5 0 6 0;
#X connect 5 1 6 1;
#X connect 6 0 1 1;
#X connect 8 0 1 0;
#X connect 9 0 3 0;
#X connect 10 0 4 0;
#X restore 229 515 pd rh_scalelog;
#X msg 276 491 0.1;
#X msg 322 491 10;
#X obj 105 244 r \$0-delay;
#X msg 197 303 1000;
#X msg 150 302 1;
#X obj 86 492 delwrite~ \$0-fbbb 1000;
#X obj 92 470 *~;
#X obj 121 436 r \$0-feedback;
#X obj 122 457 * 0.95;
#X obj 34 541 *~ 1;
#X obj 90 414 vd~ \$0-fbbb 100;
#X msg 105 350 \$1 20;
#X obj 106 374 line~;
#X obj 150 275 r \$0-loadbang;
#X obj 276 463 r \$0-loadbang;
#X obj 331 113 osc~ 1000;
#X obj 223 107 tgl 15 0 empty empty off|on 17 7 0 10 -262144 -1 -1
0 1;
#X obj 330 211 snapshot~;
#X floatatom 330 234 0 0 0 0 - - -;
#X obj 329 257 + 1;
#X obj 329 280 / 2;
#X obj 332 351 line;
#X obj 154 167 hsl 67 15 0 1000 0 0 empty empty metro_time(0-1000)
-2 -8 0 10 -262144 -1 -1 0 1;
#X obj 329 302 pack f f;
#X msg 330 326 \$1 \$2;
#X obj 196 135 hsl 67 15 0 1000 0 0 empty empty phasor -2 -8 0 10 -262144
-1 -1 0 1;
#X obj 330 141 +~;
#X obj 107 134 hsl 67 15 0 1000 0 0 empty empty osc -2 -8 0 10 -262144
-1 -1 0 1;
#X obj 351 181 metro 100;
#X obj 89 21 inlet;
#X obj 789 44 inlet;
#X obj 788 77 tgl 15 0 empty empty empty 17 7 0 10 -262144 -1 -1 0
1;
#X obj 788 97 switch~;
#X obj 90 47 route 0 1 2;
#X obj 194 72 * 1000;
#X obj 89 71 * 1000;
#X obj 143 72 * 1000;
#X connect 1 0 27 0;
#X connect 1 0 31 0;
#X connect 3 0 14 0;
#X connect 4 0 5 0;
#X connect 5 0 6 0;
#X connect 5 1 7 0;
#X connect 9 0 15 0;
#X connect 10 0 15 1;
#X connect 14 0 10 0;
#X connect 14 1 16 0;
#X connect 17 0 48 0;
#X connect 18 0 17 0;
#X connect 19 0 33 0;
#X connect 20 0 21 0;
#X connect 21 0 31 1;
#X connect 22 0 21 1;
#X connect 23 0 21 2;
#X connect 24 0 19 0;
#X connect 25 0 19 2;
#X connect 26 0 19 1;
#X connect 28 0 27 0;
#X connect 29 0 30 0;
#X connect 30 0 28 1;
#X connect 31 0 2 0;
#X connect 32 0 28 0;
#X connect 32 0 31 0;
#X connect 33 0 34 0;
#X connect 34 0 32 0;
#X connect 35 0 26 0;
#X connect 35 0 25 0;
#X connect 36 0 22 0;
#X connect 36 0 23 0;
#X connect 37 0 48 0;
#X connect 38 0 50 0;
#X connect 39 0 40 0;
#X connect 39 0 40 0;
#X connect 40 0 41 0;
#X connect 41 0 42 0;
#X connect 42 0 45 0;
#X connect 43 0 11 0;
#X connect 44 0 45 1;
#X connect 44 0 50 1;
#X connect 45 0 46 0;
#X connect 46 0 43 0;
#X connect 47 0 18 0;
#X connect 48 0 39 0;
#X connect 49 0 37 0;
#X connect 50 0 39 0;
#X connect 51 0 55 0;
#X connect 52 0 53 0;
#X connect 53 0 54 0;
#X connect 53 0 38 0;
#X connect 55 0 57 0;
#X connect 55 1 58 0;
#X connect 55 2 56 0;
#X connect 56 0 44 0;
#X connect 57 0 49 0;
#X connect 58 0 47 0;
#X restore 17 674 pd delayBB.pd;
#N canvas 194 106 1246 725 looper 0;
#X obj 40 81 +~;
#X obj 39 379 *~;
#X obj 40 432 *~ 0.5;
#X obj 40 526 tabwrite~ loop;
#X obj 103 352 line~;
#X obj 103 323 pack 0 6;
#X msg 103 280 0;
#X msg 143 292 1;
#X msg 484 32 reset;
#X obj 434 461 tabplay~ loop;
#X msg 434 427 bang;
#X msg 484 427 stop;
#X obj 509 484 bng 15 250 50 0 empty empty empty 17 7 0 10 -262144
-1 -1;
#X obj 319 286 timer;
#X obj 319 318 * 44.1;
#X floatatom 319 347 5 0 0 0 - - -;
#X msg 319 372 resize \$1;
#X obj 319 401 s loop;
#X msg 531 350 normalize;
#X obj 337 240 t b b b;
#X msg 512 384 resize 3.969e+06 \, const 0;
#X obj 724 40 table loop 3.969e+06;
#X msg 373 50 0;
#X obj 270 71 f;
#X obj 257 110 + 1;
#X msg 372 72 2;
#X obj 297 91 sel 0 1 2 3;
#X obj 230 88 sel 3;
#X text 519 427 stop playback;
#X text 527 32 clear loop;
#X obj 270 13 tgl 15 0 empty empty empty 17 7 0 10 -262144 -1 -1 0
1;
#X msg 270 48 bang;
#X text 288 11 rec;
#X text 572 136 functional \, unlimited overdubbing looper. there is
still an unfortunate quirk however: you can't seem to overdub during
the very first playback of the first loop \, the overdubs do not record
in this scenario.;
#X obj 40 48 inlet~;
#X obj 433 588 outlet~;
#X obj 340 19 inlet;
#X obj 555 5 inlet;
#X obj 435 535 *~;
#X obj 483 532 inlet;
#X connect 0 0 1 0;
#X connect 1 0 2 0;
#X connect 2 0 3 0;
#X connect 4 0 1 1;
#X connect 5 0 4 0;
#X connect 6 0 5 0;
#X connect 7 0 5 0;
#X connect 8 0 22 0;
#X connect 8 0 11 0;
#X connect 8 0 20 0;
#X connect 9 0 3 0;
#X connect 9 0 38 0;
#X connect 9 1 12 0;
#X connect 9 1 3 0;
#X connect 10 0 9 0;
#X connect 11 0 9 0;
#X connect 12 0 10 0;
#X connect 13 0 14 0;
#X connect 14 0 15 0;
#X connect 15 0 16 0;
#X connect 16 0 17 0;
#X connect 18 0 17 0;
#X connect 19 0 6 0;
#X connect 19 1 10 0;
#X connect 19 2 13 1;
#X connect 20 0 17 0;
#X connect 22 0 23 1;
#X connect 23 0 27 0;
#X connect 23 0 26 0;
#X connect 24 0 23 1;
#X connect 25 0 23 1;
#X connect 26 0 3 0;
#X connect 26 0 13 0;
#X connect 26 0 7 0;
#X connect 26 1 19 0;
#X connect 26 1 6 0;
#X connect 26 2 7 0;
#X connect 26 3 6 0;
#X connect 26 3 25 0;
#X connect 27 1 24 0;
#X connect 30 0 31 0;
#X connect 31 0 23 0;
#X connect 34 0 0 0;
#X connect 36 0 30 0;
#X connect 37 0 8 0;
#X connect 38 0 35 0;
#X connect 39 0 38 1;
#X restore 225 772 pd looper;
#X obj 246 654 tgl 20 0 empty empty Recording 17 7 0 10 -258113 -1
-1 0 1;
#X obj 442 379 bng 60 250 50 0 empty empty Clear/Reset_Loop 17 7 0
10 -258113 -1 -1;
#N canvas 22 53 698 649 metrolooper 0;
#X floatatom 403 17 5 0 0 0 - - -;
#X floatatom 403 87 5 0 0 0 - - -;
#X obj 403 55 expr (60/$f1)*1000;
#X text 439 18 bpm;
#X text 521 57 convert to ms;
#X text 446 88 ms;
#X obj 372 133 metro;
#X obj 376 96 tgl 15 0 empty empty empty 17 7 0 10 -262144 -1 -1 0
1;
#X text 325 93 on/off;
#X text 414 132 outputs bang every 'x' ms;
#X obj 494 277 *~;
#X obj 494 202 vline~;
#X text 470 162 got to 1 (full volume) in 20 \, then go to zero (no
volume) in 20 ms after waiting 20 ms;
#X text 542 201 translate to audio rate signal;
#X text 572 234 generate 800 hz sine tone;
#X text 524 276 multiply sine tone by amplitude envelope;
#X obj 494 317 dac~;
#X obj 403 -12 inlet;
#X obj 363 43 inlet;
#X obj 21 199 float;
#X obj 87 200 + 1;
#X floatatom 84 256 5 0 0 0 - - -;
#X floatatom 22 314 5 0 0 0 - - -;
#X obj 217 444 tgl 15 0 empty empty empty 17 7 0 10 -262144 -1 -1 0
1;
#X floatatom 20 510 5 0 0 0 - - -;
#X floatatom 62 418 5 0 0 0 - - -;
#X obj 64 355 t b b;
#X obj 513 422 tgl 15 0 empty empty empty 17 7 0 10 -262144 -1 -1 0
1;
#X floatatom 365 508 5 0 0 0 - - -;
#X floatatom 407 383 5 0 0 0 - - -;
#X obj 365 474 expr if (($f3 == 1 && $f2 == $f1) \, 1 \, 0);
#X text 534 421 Arm Stop Rec;
#X obj 21 472 expr if (($f3 == 1 && $f2 == $f1) \, 1 \, 0);
#X obj 24 541 route 0 1;
#X obj 64 595 outlet;
#X text 184 421 Arm Rec;
#X obj 364 537 route 0 1;
#X obj 361 590 outlet;
#X text 124 595 Go to Arm Rec;
#X text 421 594 Go to Stop Rec;
#X obj 175 353 inlet AR;
#X obj 90 314 outlet;
#X obj 70 136 inlet;
#X obj 189 48 bng 15 250 50 0 empty empty empty 17 7 0 10 -262144 -1
-1;
#X text 207 45 restart Metro;
#X obj 192 147 outlet;
#X obj 176 12 inlet;
#X obj 22 257 mod 8;
#X obj 474 385 - 1;
#X obj 363 564 t b;
#X floatatom 486 562 5 0 0 0 - - -;
#X msg 190 85 -1;
#X msg 376 165 1 50 \, 0 10 10;
#X obj 509 233 osc~ 900;
#X connect 0 0 2 0;
#X connect 1 0 6 1;
#X connect 2 0 1 0;
#X connect 6 0 52 0;
#X connect 6 0 19 0;
#X connect 7 0 6 0;
#X connect 10 0 16 0;
#X connect 10 0 16 1;
#X connect 11 0 10 0;
#X connect 17 0 0 0;
#X connect 18 0 7 0;
#X connect 19 0 20 0;
#X connect 19 0 21 0;
#X connect 19 0 47 0;
#X connect 20 0 19 1;
#X connect 22 0 26 0;
#X connect 22 0 30 0;
#X connect 22 0 32 0;
#X connect 22 0 41 0;
#X connect 23 0 32 2;
#X connect 24 0 33 0;
#X connect 25 0 32 1;
#X connect 26 0 25 0;
#X connect 26 1 29 0;
#X connect 27 0 30 2;
#X connect 28 0 36 0;
#X connect 29 0 30 1;
#X connect 30 0 28 0;
#X connect 32 0 24 0;
#X connect 33 1 34 0;
#X connect 33 1 27 0;
#X connect 36 1 49 0;
#X connect 40 0 23 0;
#X connect 42 0 47 1;
#X connect 43 0 51 0;
#X connect 46 0 43 0;
#X connect 47 0 22 0;
#X connect 48 0 30 1;
#X connect 49 0 37 0;
#X connect 49 0 50 0;
#X connect 50 0 27 0;
#X connect 51 0 45 0;
#X connect 51 0 19 0;
#X connect 52 0 11 0;
#X connect 53 0 10 1;
#X restore 804 409 pd metrolooper;
#N canvas 231 129 1047 529 metronone2 0;
#N canvas 430 91 548 456 tempo 0;
#X obj 100 100 cnv 15 200 100 empty empty Tempo: 20 12 0 14 -203904
-66577 0;
#X obj 117 135 hsl 128 15 30 240 0 0 empty empty empty -2 -8 0 10 -4032
-257985 -1 0 1;
#X obj 114 223 int;
#X floatatom 254 135 6 0 0 0 - - -;
#N canvas 60 100 690 700 keyboard 0;
#X symbolatom 138 -58 10 0 0 0 - - -;
#X obj 68 -4 + 0.25;
#X obj 69 170 - 0.25;
#X floatatom -7 23 5 0 0 0 - - -;
#X floatatom -6 205 5 0 0 0 - - -;
#X obj 32 39 send up;
#X obj 34 221 send down;
#X obj -41 121 receive up;
#X obj -50 -48 receive down;
#X obj -7 -4 float \$1;
#X obj -6 170 float \$1;
#X obj 38 -31 max 30;
#X obj 39 138 min 240;
#X floatatom -12 394 5 0 0 0 - - -;
#X obj -44 309 receive up;
#X obj -12 359 float \$1;
#X obj 33 327 min 240;
#X obj 63 359 - 5;
#X obj 29 410 send left;
#X obj -30 -84 receive left;
#X obj 17 -116 receive right;
#X floatatom 8 584 5 0 0 0 - - -;
#X obj 47 600 send up;
#X obj 8 557 float \$1;
#X obj 53 530 max 30;
#X obj -35 513 receive up;
#X obj -15 477 receive down;
#X obj 32 445 receive left;
#X obj 83 557 + 5;
#X obj -18 96 receive left;
#X obj 29 64 receive right;
#X obj -22 282 receive down;
#X obj 25 250 receive right;
#X obj 137 -106 inlet;
#X obj 353 98 receive up;
#X obj 360 132 receive down;
#X obj 276 132 receive left;
#X obj 442 132 receive right;
#X obj 353 215 outlet;
#X obj 138 -21 sel Up Down Left Right;
#X connect 0 0 39 0;
#X connect 1 0 9 1;
#X connect 2 0 10 1;
#X connect 3 0 5 0;
#X connect 4 0 6 0;
#X connect 7 0 12 0;
#X connect 8 0 11 0;
#X connect 9 0 3 0;
#X connect 9 0 1 0;
#X connect 10 0 4 0;
#X connect 10 0 2 0;
#X connect 11 0 9 1;
#X connect 12 0 10 1;
#X connect 13 0 18 0;
#X connect 14 0 16 0;
#X connect 15 0 13 0;
#X connect 15 0 17 0;
#X connect 16 0 15 1;
#X connect 17 0 15 1;
#X connect 19 0 11 0;
#X connect 20 0 11 0;
#X connect 21 0 22 0;
#X connect 23 0 21 0;
#X connect 23 0 28 0;
#X connect 24 0 23 1;
#X connect 25 0 24 0;
#X connect 26 0 24 0;
#X connect 27 0 24 0;
#X connect 28 0 23 1;
#X connect 29 0 12 0;
#X connect 30 0 12 0;
#X connect 31 0 16 0;
#X connect 32 0 16 0;
#X connect 33 0 0 0;
#X connect 34 0 38 0;
#X connect 35 0 38 0;
#X connect 36 0 38 0;
#X connect 37 0 38 0;
#X connect 39 0 9 0;
#X connect 39 1 10 0;
#X connect 39 2 15 0;
#X connect 39 3 23 0;
#X restore 114 58 pd keyboard;
#X obj 114 255 s tempo;
#X obj 114 26 keyname;
#X obj 29 33 loadbang;
#X obj 58 69 60;
#X connect 1 0 2 0;
#X connect 2 0 3 0;
#X connect 2 0 5 0;
#X connect 4 0 1 0;
#X connect 6 1 4 0;
#X connect 7 0 8 0;
#X connect 8 0 1 0;
#X coords 0 -1 1 1 200 100 1 100 100;
#X restore 83 42 pd tempo;
#N canvas 582 50 683 738 light_sound 0;
#X obj 100 100 cnv 15 258 100 empty empty Volume_controle: 20 12 0
14 -262130 -66577 0;
#X obj 108 -130 osc~ 440;
#X obj 108 45 *~;
#X obj 123 5 line~;
#X obj 123 -33 1 50;
#X obj 185 -12 0 50;
#X obj 185 -50 delay 50;
#X obj 126 153 hsl 120 30 0.01 1 1 0 \$0-v \$0-v volume 7 13 1 9 -245500
-13381 -1 0 0;
#X obj 269 110 tgl 30 0 THIS_IS_HERE_TO_GET_RID_OF_THE_OUTLET \$0-dsp-toggle
dsp 8 14 1 9 -262144 -195568 -33289 0 1;
#N canvas 366 444 482 356 dsp 0;
#X obj 11 7 inlet;
#X obj 92 226 select 0 1;
#X msg 125 248 6;
#X obj 92 57 route dsp;
#X obj 92 36 receive pd;
#X obj 206 138 loadbang;
#X msg 11 220 dsp \$1;
#X obj 11 245 send pd;
#X msg 206 278 set \$1;
#X obj 206 174 value GLOBAL_PDDP_DSP;
#X msg 109 278 color \$1 20 12;
#X obj 180 309 send \$0-dsp-toggle;
#X obj 92 115 change;
#X msg 92 247 0;
#X connect 0 0 6 0;
#X connect 0 0 12 0;
#X connect 1 0 13 0;
#X connect 1 1 2 0;
#X connect 2 0 10 0;
#X connect 3 0 12 0;
#X connect 4 0 3 0;
#X connect 5 0 9 0;
#X connect 6 0 7 0;
#X connect 8 0 11 0;
#X connect 9 0 8 0;
#X connect 9 0 1 0;
#X connect 10 0 11 0;
#X connect 12 0 8 0;
#X connect 12 0 1 0;
#X connect 12 0 9 0;
#X connect 13 0 10 0;
#X restore 264 73 pd dsp logic;
#X obj 269 153 bng 30 1000 50 0 THIS_IS_HERE_TO_GET_RID_OF_THE_OUTLET
\$0-MUTE_TOGGLE empty 0 9 2 8 -262144 -258699 -195568;
#X obj 222 289 line~;
#X obj 322 349 *~;
#X obj 342 379 dac~;
#X obj 384 348 *~;
#X obj 471 60 hip~ 3;
#X obj 533 60 hip~ 3;
#X obj 118 304 send pd;
#X msg 118 283 dsp 1;
#X obj 384 378 outlet~;
#X obj 284 378 outlet~;
#X obj 466 378 outlet;
#N canvas 679 297 361 328 mute 0;
#X obj 23 20 inlet;
#X obj 173 20 inlet;
#X obj 222 208 float;
#X obj 265 121 tgl 15 1 empty empty empty 17 7 0 10 -262144 -1 -1 1
1;
#X obj 222 162 spigot;
#X obj 172 41 trigger bang bang;
#X obj 254 263 outlet;
#X msg 274 208 0;
#X obj 274 163 select 0;
#X obj 127 64 bang;
#X msg 127 85 set 1;
#X obj 65 304 send \$0-MUTE_TOGGLE;
#X msg 65 283 color \$1 13 20;
#X obj 65 235 bang;
#X msg 65 255 0;
#X msg 98 255 3;
#X connect 0 0 2 1;
#X connect 0 0 9 0;
#X connect 1 0 5 0;
#X connect 2 0 6 0;
#X connect 2 0 13 0;
#X connect 3 0 4 1;
#X connect 3 0 8 0;
#X connect 4 0 2 0;
#X connect 5 0 4 0;
#X connect 5 1 3 0;
#X connect 7 0 6 0;
#X connect 8 0 7 0;
#X connect 8 0 15 0;
#X connect 9 0 10 0;
#X connect 9 0 13 0;
#X connect 10 0 3 0;
#X connect 12 0 11 0;
#X connect 13 0 14 0;
#X connect 14 0 12 0;
#X connect 15 0 12 0;
#X restore 230 217 pd mute;
#X obj 222 268 pack 0 50;
#X text 289 267 <-- make a ramp to avoid clicks or zipper noise;
#X msg 222 233 0;
#X obj 222 210 moses 0.011;
#X text 577 61 filter out DC;
#X obj 123 -95 r bang2;
#X obj 248 35 *~;
#X obj 263 -5 line~;
#X obj 263 -43 1 50;
#X obj 325 -22 0 50;
#X obj 325 -60 delay 50;
#X obj 263 -105 r bang1;
#X obj 248 -140 osc~ 500;
#X obj 396 13 loadbang;
#X connect 1 0 2 0;
#X connect 2 0 15 0;
#X connect 2 0 16 0;
#X connect 3 0 2 1;
#X connect 4 0 3 0;
#X connect 5 0 3 0;
#X connect 6 0 5 0;
#X connect 7 0 18 0;
#X connect 7 0 22 0;
#X connect 7 0 21 0;
#X connect 7 0 26 0;
#X connect 8 0 9 0;
#X connect 10 0 22 1;
#X connect 11 0 14 0;
#X connect 11 0 12 0;
#X connect 12 0 13 0;
#X connect 12 0 20 0;
#X connect 14 0 13 1;
#X connect 14 0 19 0;
#X connect 15 0 12 1;
#X connect 16 0 14 1;
#X connect 18 0 17 0;
#X connect 22 0 7 0;
#X connect 22 0 26 0;
#X connect 23 0 11 0;
#X connect 25 0 23 0;
#X connect 26 0 25 0;
#X connect 26 1 23 0;
#X connect 28 0 6 0;
#X connect 28 0 4 0;
#X connect 29 0 15 0;
#X connect 29 0 16 0;
#X connect 30 0 29 1;
#X connect 31 0 30 0;
#X connect 32 0 30 0;
#X connect 33 0 32 0;
#X connect 34 0 33 0;
#X connect 34 0 31 0;
#X connect 35 0 29 0;
#X connect 36 0 8 0;
#X coords 0 -1 1 1 258 100 1 100 100;
#X restore 24 141 pd light_sound;
#N canvas 598 50 359 361 on_off 0;
#X obj 100 100 cnv 15 58 98 empty empty On/Off: 3 12 0 10 -204786 -66577
0;
#X obj 111 147 tgl 40 0 empty empty empty 17 7 0 10 -261234 -258113
-1 0 1;
#X obj 167 187 metro \$1;
#X obj 38 129 sel 109;
#N canvas 340 113 706 543 timer 0;
#X obj 165 86 expr $f1 \; if ($f1 > 0 \, ( 60 / $f1 ) * 1000 \, $f1)
\; if ($f1 <= 0 \, $f1 + 1 \, $f1);
#X obj 164 27 inlet;
#X obj 281 189 outlet;
#X text 431 92 Equasion for tempo conversion in to miliseconds for
[metro] object.;
#X connect 0 1 2 0;
#X connect 1 0 0 0;
#X restore 212 146 pd timer;
#X obj 244 204 s bang;
#X obj 212 104 r tempo;
#X obj 38 100 key;
#X obj 111 227 s on;
#X connect 1 0 2 0;
#X connect 1 0 8 0;
#X connect 2 0 5 0;
#X connect 3 0 1 0;
#X connect 4 0 2 1;
#X connect 6 0 4 0;
#X connect 7 0 3 0;
#X coords 0 -1 1 1 58 98 1 100 100;
#X restore 24 42 pd on_off;
#N canvas 562 199 708 632 light 0;
#X obj 100 67 r bang;
#X obj 100 100 bng 130 250 50 0 $LIGHT empty empty 17 7 0 10 -262144
-1 -1;
#X obj 100 100 cnv 15 287 200 empty $colLIGHT empty 20 12 0 14 -166441
-262144 0;
#N canvas 419 50 651 747 counter 0;
#X obj 48 266 float;
#X obj 102 266 + 1;
#X floatatom 48 362 5 0 0 0 - - -;
#X obj 48 216 r bang;
#X obj 48 340 + 1;
#X obj 21 410 sel 1 2 3 4 5 6 7 8 9;
#X obj 48 316 mod;
#N canvas 0 50 450 300 reset 0;
#X obj 33 133 r on;
#X obj 33 169 0;
#X obj 87 131 r ONE;
#X obj 126 131 r TWO;
#X obj 165 131 r THREE;
#X obj 215 131 r FOUR;
#X obj 259 131 r FIVE;
#X obj 84 167 r SIX;
#X obj 122 167 r SEVEN;
#X obj 172 167 r EIGHT;
#X obj 222 167 r NINE;
#X obj 34 208 outlet;
#X connect 0 0 1 0;
#X connect 1 0 11 0;
#X connect 2 0 1 0;
#X connect 3 0 1 0;
#X connect 4 0 1 0;
#X connect 5 0 1 0;
#X connect 6 0 1 0;
#X connect 7 0 1 0;
#X connect 8 0 1 0;
#X connect 9 0 1 0;
#X connect 10 0 1 0;
#X restore -23 345 pd reset;
#N canvas 0 50 450 300 bar 0;
#X obj 43 67 r ONE;
#X obj 43 91 1;
#X obj 121 90 3;
#X obj 82 90 2;
#X obj 171 90 4;
#X obj 215 90 5;
#X obj 262 91 6;
#X obj 300 91 7;
#X obj 350 91 8;
#X obj 400 91 9;
#X obj 82 67 r TWO;
#X obj 121 67 r THREE;
#X obj 171 67 r FOUR;
#X obj 215 67 r FIVE;
#X obj 262 68 r SIX;
#X obj 300 68 r SEVEN;
#X obj 350 68 r EIGHT;
#X obj 400 68 r NINE;
#X obj 197 186 outlet;
#X connect 0 0 1 0;
#X connect 1 0 18 0;
#X connect 2 0 18 0;
#X connect 3 0 18 0;
#X connect 4 0 18 0;
#X connect 5 0 18 0;
#X connect 6 0 18 0;
#X connect 7 0 18 0;
#X connect 8 0 18 0;
#X connect 9 0 18 0;
#X connect 10 0 3 0;
#X connect 11 0 2 0;
#X connect 12 0 4 0;
#X connect 13 0 5 0;
#X connect 14 0 6 0;
#X connect 15 0 7 0;
#X connect 16 0 8 0;
#X connect 17 0 9 0;
#X restore 139 299 pd bar;
#X msg 92 584 \; $colLIGHT color \$1;
#X msg 92 549 15;
#X msg -106 511 \; $colLIGHT color \$1;
#X msg -106 476 13;
#X msg -73 476 1;
#X msg 125 549 1;
#X obj -73 451 del 100;
#X obj 125 524 del 100;
#X obj -125 427 t b b b;
#X obj 73 500 t b b b;
#X obj -161 476 s bang1;
#X obj 38 549 s bang2;
#X connect 0 0 1 0;
#X connect 0 0 6 0;
#X connect 1 0 0 1;
#X connect 2 0 5 0;
#X connect 3 0 0 0;
#X connect 4 0 2 0;
#X connect 5 0 17 0;
#X connect 5 1 18 0;
#X connect 5 2 18 0;
#X connect 5 3 18 0;
#X connect 5 4 18 0;
#X connect 5 5 18 0;
#X connect 5 6 18 0;
#X connect 5 7 18 0;
#X connect 5 8 18 0;
#X connect 6 0 4 0;
#X connect 7 0 2 0;
#X connect 8 0 6 1;
#X connect 10 0 9 0;
#X connect 12 0 11 0;
#X connect 13 0 11 0;
#X connect 14 0 9 0;
#X connect 15 0 13 0;
#X connect 16 0 14 0;
#X connect 17 0 19 0;
#X connect 17 1 12 0;
#X connect 17 2 15 0;
#X connect 18 0 20 0;
#X connect 18 1 10 0;
#X connect 18 2 16 0;
#X restore -25 278 pd counter;
#X connect 0 0 1 0;
#X coords 0 -1 1 1 287 200 1 100 100;
#X restore 283 42 pd light;
#N canvas 242 85 473 469 one 0;
#X obj 100 100 tgl 60 0 empty empty empty 17 7 0 10 -262144 -1 -1 1
1;
#X msg 181 332 \; $colONE color \$1;
#X obj 100 100 cnv 15 60 60 empty $colONE empty 20 12 0 14 -260818
-262144 0;
#X obj 100 36 key;
#X obj 181 160 sel 1 0;
#X msg 200 262 \; $colONE color \$1;
#X msg 200 238 4;
#X msg 181 297 14;
#X floatatom 280 56 5 0 0 0 - - -;
#X obj 100 68 sel 49;
#X text 117 121 1/4;
#X obj 126 177 s ONE;
#N canvas 346 279 644 409 button 0;
#X obj 92 77 r TWO;
#X obj 131 77 r THREE;
#X obj 181 77 r FOUR;
#X obj 225 77 r FIVE;
#X obj 272 78 r SIX;
#X obj 310 78 r SEVEN;
#X obj 360 78 r EIGHT;
#X obj 410 78 r NINE;
#X obj 207 158 sel 1 0;
#X obj 207 233 outlet;
#X msg 207 203 0;
#X obj 207 126 tgl 15 0 empty empty empty 17 7 0 10 -262144 -1 -1 0
1;
#X obj 31 82 r ONE;
#X msg 63 109 0;
#X connect 0 0 11 0;
#X connect 1 0 11 0;
#X connect 2 0 11 0;
#X connect 3 0 11 0;
#X connect 4 0 11 0;
#X connect 5 0 11 0;
#X connect 6 0 11 0;
#X connect 7 0 11 0;
#X connect 8 0 10 0;
#X connect 10 0 9 0;
#X connect 11 0 8 0;
#X connect 12 0 13 0;
#X connect 13 0 11 0;
#X restore 10 83 pd button;
#X obj 26 45 loadbang;
#X connect 0 0 4 0;
#X connect 3 0 8 0;
#X connect 3 0 9 0;
#X connect 4 0 7 0;
#X connect 4 0 11 0;
#X connect 4 1 6 0;
#X connect 6 0 5 0;
#X connect 7 0 1 0;
#X connect 9 0 0 0;
#X connect 12 0 0 0;
#X connect 13 0 0 0;
#X coords 0 -1 1 1 60 60 1 100 100;
#X restore 23 242 pd one;
#N canvas 574 51 545 629 two 0;
#X obj 100 100 tgl 60 0 empty empty empty 17 7 0 10 -262144 -1 -1 0
1;
#X obj 100 100 cnv 15 60 60 empty $colTWO empty 20 12 0 14 -261681
-262144 0;
#X obj 100 36 key;
#X obj 181 160 sel 1 0;
#X msg 200 238 4;
#X msg 181 297 14;
#X text 117 121 2/4;
#X obj 141 177 s TWO;
#X obj 100 68 sel 50;
#X floatatom 280 56 5 0 0 0 - - -;
#X msg 200 262 \; $colTWO color \$1;
#X msg 181 331 \; $colTWO color \$1;
#N canvas 346 279 644 409 button 0;
#X obj 131 77 r THREE;
#X obj 181 77 r FOUR;
#X obj 225 77 r FIVE;
#X obj 272 78 r SIX;
#X obj 310 78 r SEVEN;
#X obj 360 78 r EIGHT;
#X obj 410 78 r NINE;
#X obj 207 158 sel 1 0;
#X obj 207 233 outlet;
#X msg 207 203 0;
#X obj 207 126 tgl 15 0 empty empty empty 17 7 0 10 -262144 -1 -1 1
1;
#X msg 63 109 0;
#X obj 31 82 r TWO;
#X obj 92 77 r ONE;
#X connect 0 0 10 0;
#X connect 1 0 10 0;
#X connect 2 0 10 0;
#X connect 3 0 10 0;
#X connect 4 0 10 0;
#X connect 5 0 10 0;
#X connect 6 0 10 0;
#X connect 7 0 9 0;
#X connect 9 0 8 0;
#X connect 10 0 7 0;
#X connect 11 0 10 0;
#X connect 12 0 11 0;
#X connect 13 0 10 0;
#X restore 20 83 pd button;
#X connect 0 0 3 0;
#X connect 2 0 8 0;
#X connect 2 0 9 0;
#X connect 3 0 5 0;
#X connect 3 0 7 0;
#X connect 3 1 4 0;
#X connect 4 0 10 0;
#X connect 5 0 11 0;
#X connect 8 0 0 0;
#X connect 12 0 0 0;
#X coords 0 -1 1 1 60 60 1 100 100;
#X restore 84 242 pd two;
#N canvas 559 50 654 723 three 0;
#X obj 100 100 tgl 60 0 empty empty empty 17 7 0 10 -262144 -1 -1 0
1;
#X obj 100 100 cnv 15 60 60 empty $colTHREE empty 20 12 0 14 -261681
-262144 0;
#X obj 100 36 key;
#X obj 181 160 sel 1 0;
#X msg 200 238 4;
#X msg 181 297 14;
#X msg 200 262 \; $colTHREE color \$1;
#X msg 181 329 \; $colTHREE color \$1;
#X text 117 121 3/4;
#X obj 121 177 s THREE;
#X obj 100 68 sel 51;
#N canvas 346 279 644 409 button 0;
#X obj 181 77 r FOUR;
#X obj 225 77 r FIVE;
#X obj 272 78 r SIX;
#X obj 310 78 r SEVEN;
#X obj 360 78 r EIGHT;
#X obj 410 78 r NINE;
#X obj 207 158 sel 1 0;
#X obj 207 233 outlet;
#X msg 207 203 0;
#X obj 207 126 tgl 15 0 empty empty empty 17 7 0 10 -262144 -1 -1 1
1;
#X msg 63 109 0;
#X obj 31 82 r THREE;
#X obj 93 77 r ONE;
#X obj 131 77 r TWO;
#X connect 0 0 9 0;
#X connect 1 0 9 0;
#X connect 2 0 9 0;
#X connect 3 0 9 0;
#X connect 4 0 9 0;
#X connect 5 0 9 0;
#X connect 6 0 8 0;
#X connect 8 0 7 0;
#X connect 9 0 6 0;
#X connect 10 0 9 0;
#X connect 11 0 10 0;
#X connect 12 0 9 0;
#X connect 13 0 9 0;
#X restore 30 83 pd button;
#X connect 0 0 3 0;
#X connect 2 0 10 0;
#X connect 3 0 5 0;
#X connect 3 0 9 0;
#X connect 3 1 4 0;
#X connect 4 0 6 0;
#X connect 5 0 7 0;
#X connect 10 0 0 0;
#X connect 11 0 0 0;
#X coords 0 -1 1 1 60 60 1 100 100;
#X restore 144 242 pd three;
#N canvas 595 97 545 629 four 0;
#X obj 100 100 tgl 60 0 empty empty empty 17 7 0 10 -262144 -1 -1 0
1;
#X obj 100 100 cnv 15 60 60 empty $colFOUR empty 20 12 0 14 -261681
-262144 0;
#X obj 100 36 key;
#X obj 181 160 sel 1 0;
#X msg 200 238 4;
#X msg 181 297 14;
#X msg 200 262 \; $colFOUR color \$1;
#X msg 181 324 \; $colFOUR color \$1;
#X text 117 121 4/4;
#X floatatom 194 40 5 0 0 0 - - -;
#X obj 100 68 sel 52;
#X obj 141 177 s FOUR;
#N canvas 346 279 644 409 button 0;
#X obj 132 77 r TWO;
#X obj 171 77 r THREE;
#X obj 33 74 r FOUR;
#X obj 225 77 r FIVE;
#X obj 272 78 r SIX;
#X obj 310 78 r SEVEN;
#X obj 360 78 r EIGHT;
#X obj 410 78 r NINE;
#X obj 207 158 sel 1 0;
#X obj 207 233 outlet;
#X msg 207 203 0;
#X obj 207 126 tgl 15 0 empty empty empty 17 7 0 10 -262144 -1 -1 1
1;
#X obj 87 76 r ONE;
#X msg 63 109 0;
#X connect 0 0 11 0;
#X connect 1 0 11 0;
#X connect 2 0 13 0;
#X connect 3 0 11 0;
#X connect 4 0 11 0;
#X connect 5 0 11 0;
#X connect 6 0 11 0;
#X connect 7 0 11 0;
#X connect 8 0 10 0;
#X connect 10 0 9 0;
#X connect 11 0 8 0;
#X connect 12 0 11 0;
#X connect 13 0 11 0;
#X restore 28 84 pd button;
#X connect 0 0 3 0;
#X connect 2 0 9 0;
#X connect 2 0 10 0;
#X connect 3 0 5 0;
#X connect 3 0 11 0;
#X connect 3 1 4 0;
#X connect 4 0 6 0;
#X connect 5 0 7 0;
#X connect 10 0 0 0;
#X connect 12 0 0 0;
#X coords 0 -1 1 1 60 60 1 100 100;
#X restore 205 242 pd four;
#N canvas 574 51 545 629 five 0;
#X obj 100 100 tgl 60 0 empty empty empty 17 7 0 10 -262144 -1 -1 0
1;
#X obj 100 100 cnv 15 60 60 empty $colFIVE empty 20 12 0 14 -261681
-262144 0;
#X obj 100 36 key;
#X obj 181 160 sel 1 0;
#X msg 200 238 4;
#X msg 181 297 14;
#X obj 100 68 sel 53;
#X obj 141 177 s FIVE;
#X msg 200 262 \; $colFIVE color \$1;
#X msg 181 329 \; $colFIVE color \$1;
#X text 117 121 5/4;
#N canvas 346 279 644 409 button 0;
#X obj 132 77 r TWO;
#X obj 171 77 r THREE;
#X obj 272 78 r SIX;
#X obj 310 78 r SEVEN;
#X obj 360 78 r EIGHT;
#X obj 410 78 r NINE;
#X obj 207 158 sel 1 0;
#X obj 207 233 outlet;
#X msg 207 203 0;
#X obj 207 126 tgl 15 0 empty empty empty 17 7 0 10 -262144 -1 -1 1
1;
#X obj 87 76 r ONE;
#X msg 63 109 0;
#X obj 33 74 r FIVE;
#X obj 225 77 r FOUR;
#X connect 0 0 9 0;
#X connect 1 0 9 0;
#X connect 2 0 9 0;
#X connect 3 0 9 0;
#X connect 4 0 9 0;
#X connect 5 0 9 0;
#X connect 6 0 8 0;
#X connect 8 0 7 0;
#X connect 9 0 6 0;
#X connect 10 0 9 0;
#X connect 11 0 9 0;
#X connect 12 0 11 0;
#X connect 13 0 9 0;
#X restore 26 83 pd button;
#X connect 0 0 3 0;
#X connect 2 0 6 0;
#X connect 3 0 5 0;
#X connect 3 0 7 0;
#X connect 3 1 4 0;
#X connect 4 0 8 0;
#X connect 5 0 9 0;
#X connect 6 0 0 0;
#X connect 11 0 0 0;
#X coords 0 -1 1 1 60 60 1 100 100;
#X restore 266 242 pd five;
#N canvas 574 51 545 629 six 0;
#X obj 100 100 tgl 60 0 empty empty empty 17 7 0 10 -262144 -1 -1 0
1;
#X obj 100 100 cnv 15 60 60 empty $colSIX empty 20 12 0 14 -261681
-262144 0;
#X obj 100 36 key;
#X obj 181 160 sel 1 0;
#X msg 200 238 4;
#X msg 181 297 14;
#X text 117 121 6/4;
#X obj 100 68 sel 54;
#X obj 141 177 s SIX;
#X msg 200 262 \; $colSIX color \$1;
#X msg 181 328 \; $colSIX color \$1;
#N canvas 346 279 644 409 button 0;
#X obj 132 77 r TWO;
#X obj 171 77 r THREE;
#X obj 220 77 r FOUR;
#X obj 265 78 r FIVE;
#X obj 35 75 r SIX;
#X obj 310 78 r SEVEN;
#X obj 360 78 r EIGHT;
#X obj 410 78 r NINE;
#X obj 207 158 sel 1 0;
#X obj 207 233 outlet;
#X msg 207 203 0;
#X obj 207 126 tgl 15 0 empty empty empty 17 7 0 10 -262144 -1 -1 1
1;
#X obj 87 76 r ONE;
#X msg 63 109 0;
#X connect 0 0 11 0;
#X connect 1 0 11 0;
#X connect 2 0 11 0;
#X connect 3 0 11 0;
#X connect 4 0 13 0;
#X connect 5 0 11 0;
#X connect 6 0 11 0;
#X connect 7 0 11 0;
#X connect 8 0 10 0;
#X connect 10 0 9 0;
#X connect 11 0 8 0;
#X connect 12 0 11 0;
#X connect 13 0 11 0;
#X restore 26 84 pd button;
#X connect 0 0 3 0;
#X connect 2 0 7 0;
#X connect 3 0 5 0;
#X connect 3 0 8 0;
#X connect 3 1 4 0;
#X connect 4 0 9 0;
#X connect 5 0 10 0;
#X connect 7 0 0 0;
#X connect 11 0 0 0;
#X coords 0 -1 1 1 60 60 1 100 100;
#X restore 327 242 pd six;
#N canvas 574 51 545 629 seven 0;
#X obj 100 100 tgl 60 0 empty empty empty 17 7 0 10 -262144 -1 -1 0
1;
#X obj 100 100 cnv 15 60 60 empty $colSEVEN empty 20 12 0 14 -261681
-262144 0;
#X obj 100 36 key;
#X obj 181 160 sel 1 0;
#X msg 200 238 4;
#X msg 181 297 14;
#X text 117 121 7/4;
#X obj 131 177 s SEVEN;
#X msg 200 262 \; $colSEVEN color \$1;
#X msg 181 330 \; $colSEVEN color \$1;
#X obj 100 68 sel 55;
#N canvas 346 279 644 409 button 0;
#X obj 132 77 r TWO;
#X obj 171 77 r THREE;
#X obj 220 77 r FOUR;
#X obj 265 78 r FIVE;
#X obj 360 78 r EIGHT;
#X obj 410 78 r NINE;
#X obj 207 158 sel 1 0;
#X obj 207 233 outlet;
#X msg 207 203 0;
#X obj 207 126 tgl 15 0 empty empty empty 17 7 0 10 -262144 -1 -1 1
1;
#X obj 87 76 r ONE;
#X msg 63 109 0;
#X obj 35 75 r SEVEN;
#X obj 310 78 r SIX;
#X connect 0 0 9 0;
#X connect 1 0 9 0;
#X connect 2 0 9 0;
#X connect 3 0 9 0;
#X connect 4 0 9 0;
#X connect 5 0 9 0;
#X connect 6 0 8 0;
#X connect 8 0 7 0;
#X connect 9 0 6 0;
#X connect 10 0 9 0;
#X connect 11 0 9 0;
#X connect 12 0 11 0;
#X connect 13 0 9 0;
#X restore 17 83 pd button;
#X connect 0 0 3 0;
#X connect 2 0 10 0;
#X connect 3 0 5 0;
#X connect 3 0 7 0;
#X connect 3 1 4 0;
#X connect 4 0 8 0;
#X connect 5 0 9 0;
#X connect 10 0 0 0;
#X connect 11 0 0 0;
#X coords 0 -1 1 1 60 60 1 100 100;
#X restore 388 242 pd seven;
#N canvas 574 51 545 629 six 0;
#X obj 100 100 tgl 60 0 empty empty empty 17 7 0 10 -262144 -1 -1 0
1;
#X obj 100 100 cnv 15 60 60 empty $colEIGHT empty 20 12 0 14 -261681
-262144 0;
#X obj 100 36 key;
#X obj 181 160 sel 1 0;
#X msg 200 238 4;
#X msg 181 297 14;
#X text 117 121 8/4;
#X obj 100 68 sel 56;
#X obj 121 177 s EIGHT;
#X msg 200 262 \; $colEIGHT color \$1;
#X msg 181 328 \; $colEIGHT color \$1;
#N canvas 346 279 644 409 button 0;
#X obj 132 77 r TWO;
#X obj 171 77 r THREE;
#X obj 220 77 r FOUR;
#X obj 265 78 r FIVE;
#X obj 310 75 r SIX;
#X obj 349 77 r SEVEN;
#X obj 24 74 r EIGHT;
#X obj 410 78 r NINE;
#X obj 207 158 sel 1 0;
#X obj 207 233 outlet;
#X msg 207 203 0;
#X obj 207 126 tgl 15 0 empty empty empty 17 7 0 10 -262144 -1 -1 1
1;
#X obj 87 76 r ONE;
#X msg 63 109 0;
#X connect 0 0 11 0;
#X connect 1 0 11 0;
#X connect 2 0 11 0;
#X connect 3 0 11 0;
#X connect 5 0 11 0;
#X connect 6 0 13 0;
#X connect 7 0 11 0;
#X connect 8 0 10 0;
#X connect 10 0 9 0;
#X connect 11 0 8 0;
#X connect 12 0 11 0;
#X connect 13 0 11 0;
#X restore 28 83 pd button;
#X connect 0 0 3 0;
#X connect 2 0 7 0;
#X connect 3 0 5 0;
#X connect 3 0 8 0;
#X connect 3 1 4 0;
#X connect 4 0 9 0;
#X connect 5 0 10 0;
#X connect 7 0 0 0;
#X connect 11 0 0 0;
#X coords 0 -1 1 1 60 60 1 100 100;
#X restore 449 242 pd six;
#N canvas 574 51 545 629 seven 0;
#X obj 100 100 tgl 60 0 empty empty empty 17 7 0 10 -262144 -1 -1 0
1;
#X obj 100 100 cnv 15 60 60 empty $colNINE empty 20 12 0 14 -261681
-262144 0;
#X obj 100 36 key;
#X obj 181 160 sel 1 0;
#X msg 200 238 4;
#X msg 181 297 14;
#X obj 131 177 s NINE;
#X msg 200 262 \; $colNINE color \$1;
#X msg 181 324 \; $colNINE color \$1;
#X obj 100 68 sel 57;
#X text 118 122 9/4;
#N canvas 346 279 644 409 button 0;
#X obj 132 77 r TWO;
#X obj 171 77 r THREE;
#X obj 220 77 r FOUR;
#X obj 265 78 r FIVE;
#X obj 312 78 r SIX;
#X obj 355 78 r SEVEN;
#X obj 405 78 r EIGHT;
#X obj 28 74 r NINE;
#X obj 207 158 sel 1 0;
#X obj 207 233 outlet;
#X msg 207 203 0;
#X obj 207 126 tgl 15 0 empty empty empty 17 7 0 10 -262144 -1 -1 1
1;
#X obj 87 76 r ONE;
#X msg 63 109 0;
#X connect 0 0 11 0;
#X connect 1 0 11 0;
#X connect 2 0 11 0;
#X connect 3 0 11 0;
#X connect 4 0 11 0;
#X connect 5 0 11 0;
#X connect 6 0 11 0;
#X connect 7 0 13 0;
#X connect 8 0 10 0;
#X connect 10 0 9 0;
#X connect 11 0 8 0;
#X connect 12 0 11 0;
#X connect 13 0 11 0;
#X restore 21 83 pd button;
#X connect 0 0 3 0;
#X connect 2 0 9 0;
#X connect 3 0 5 0;
#X connect 3 0 6 0;
#X connect 3 1 4 0;
#X connect 4 0 7 0;
#X connect 5 0 8 0;
#X connect 9 0 0 0;
#X connect 11 0 0 0;
#X coords 0 -1 1 1 60 60 1 100 100;
#X restore 510 242 pd seven;
#X obj 23 21 cnv 15 547 20 empty empty METRONOME_2.0 20 12 0 14 -204800
-66577 0;
#X text 611 58 Controles: m - metronome on/off up/down - tempo +/-
left/right - tempo +/- (fast) numbers 1/9 - time signatures;
#X restore 16 699 pd metronone2;
#X obj 869 290 tgl 60 0 empty empty Start_Metro_To_Rec 17 7 0 10 -4032
-1 -1 0 1;
#X floatatom 978 302 5 0 0 2 BPM - -;
#X obj 568 517 tgl 25 0 empty empty REC?over 17 7 0 10 -4034 -1 -1
0 1;
#X obj 855 565 s metro;
#X msg 712 373 16;
#X obj 863 448 s restartMetro;
#X obj 795 290 bng 60 250 50 0 empty empty empty 17 7 0 10 -162280
-1 -1;
#X msg 712 317 4;
#X msg 713 345 8;
#X obj 849 501 hradio 15 1 0 16 empty empty empty 0 -8 0 20 -99865
-4032 -1 7;
#X obj 984 446 s BangStopRec;
#X obj 247 625 r BangStopRec;
#N canvas 284 62 450 300 visualMetro 0;
#X obj -121 169 hradio 15 1 0 8 empty empty empty 0 -8 0 20 -99865
-4032 -1 0;
#X obj -98 -60 r metro;
#X obj 4 169 hradio 15 1 0 8 empty empty empty 0 -8 0 20 -99865 -4032
-1 7;
#X obj -97 24 route 1 2;
#X floatatom -5 25 5 0 0 0 - - -;
#X obj -116 73 float;
#X obj -63 74 + 1;
#X obj 0 75 float;
#X obj 53 76 + 1;
#X obj -2 104 mod 8;
#X obj -120 109 mod 8;
#X floatatom -76 109 5 0 0 0 - - -;
#X floatatom 52 105 5 0 0 0 - - -;
#X floatatom 69 45 5 0 0 0 - - -;
#X obj 111 -15 r restartMetro;
#X floatatom -120 138 5 0 0 0 - - -;
#X floatatom -2 138 5 0 0 0 - - -;
#X obj -96 -22 expr if ($f1 <= 7 \, 1 \, 2);
#X connect 1 0 17 0;
#X connect 3 0 5 0;
#X connect 3 1 7 0;
#X connect 5 0 6 0;
#X connect 5 0 10 0;
#X connect 5 0 11 0;
#X connect 6 0 5 1;
#X connect 7 0 8 0;
#X connect 7 0 9 0;
#X connect 7 0 12 0;
#X connect 8 0 7 1;
#X connect 9 0 16 0;
#X connect 10 0 15 0;
#X connect 13 0 7 0;
#X connect 13 0 5 0;
#X connect 14 0 13 0;
#X connect 15 0 0 0;
#X connect 16 0 2 0;
#X connect 17 0 3 0;
#X connect 17 0 4 0;
#X restore 11 726 pd visualMetro;
#X obj 773 499 s RecBang;
#X obj 245 598 r RecBang;
#N canvas 378 58 1056 663 sendOscToMObile 0;
#X obj 704 115 s metroPoistion;
#X obj 734 369 r metroPoistion;
#X obj 703 20 inlet;
#X obj 120 20 inlet;
#X obj 324 20 inlet;
#X obj 11 20 inlet;
#X obj 220 20 inlet;
#X obj 120 50 route 0 1;
#X obj 219 50 route 0 1;
#X obj 1011 369 netreceive -u -b;
#X obj 1011 399 oscparse;
#X obj 1011 429 list trim;
#X obj 1014 549 hsl 128 15 0 127 0 0 empty empty empty -2 -8 0 10 -262144
-1 -1 0 1;
#X obj 1011 546 hradio 15 1 0 8 empty empty empty 0 -8 0 10 -262144
-1 -1 5;
#X obj 424 657 list prepend send;
#X obj 424 687 list trim;
#X obj 350 735 print;
#X obj 424 717 netsend -u -b;
#X msg 282 656 disconnect;
#X obj 1011 459 route metro;
#X obj 1011 489 route position;
#X obj 1011 519 route 1;
#X obj 734 429 oscformat metro position;
#X obj 1103 518 print out byte;
#X msg 1011 339 listen;
#X msg 734 399 1 \$1 1;
#X obj 11 50 s connections;
#X obj 195 576 r connections;
#X obj 24 570 oscparse;
#X obj 24 600 print parse-output;
#X obj 23 423 any2list;
#X obj 23 453 oscformat looper1 rec_ovr color;
#X obj 23 483 s looperColour;
#X obj 393 557 r looperColour;
#X obj 472 631 r metroPosition;
#X obj 734 459 s metroPosition;
#X msg 20 115 blue;
#X msg 20 144 orange;
#X obj 270 423 any2list;
#X obj 269 366 r symbolText;
#X obj 138 271 s symbolText;
#X obj 270 455 oscformat looper1 symbol;
#X msg 132 172 Arm_To_Record;
#X obj 271 489 s looperSymboltext;
#X obj 411 583 r looperSymboltext;
#X msg 21 174 green;
#X msg 40 210 red;
#X msg 256 144 doubletap_to_Ovrdub;
#X obj 474 425 any2list;
#X obj 474 457 oscformat looper1 symbolRecording;
#X msg 259 188 Recording_Now;
#X obj 257 271 s looperActiveRecordingtext;
#X obj 474 367 r looperActiveRecordingtext;
#X obj 474 491 s looperSymbolRecordingtext;
#X obj 443 605 r looperSymbolRecordingtext;
#X obj 18 271 s looperColours;
#X obj 23 363 r looperColours;
#X msg 127 143 Press_to_Arm;
#X obj 322 52 route 0 1;
#X msg 195 606 connect 192.168.8.98 8002;
#X connect 1 0 25 0;
#X connect 2 0 0 0;
#X connect 3 0 7 0;
#X connect 4 0 58 0;
#X connect 5 0 26 0;
#X connect 6 0 8 0;
#X connect 7 0 57 0;
#X connect 7 1 37 0;
#X connect 7 1 42 0;
#X connect 8 0 47 0;
#X connect 8 0 45 0;
#X connect 8 1 50 0;
#X connect 8 1 46 0;
#X connect 9 0 10 0;
#X connect 10 0 11 0;
#X connect 10 0 23 0;
#X connect 11 0 19 0;
#X connect 14 0 15 0;
#X connect 15 0 17 0;
#X connect 17 0 16 0;
#X connect 18 0 17 0;
#X connect 19 0 20 0;
#X connect 20 0 21 0;
#X connect 21 0 13 0;
#X connect 22 0 35 0;
#X connect 24 0 9 0;
#X connect 25 0 22 0;
#X connect 27 0 17 0;
#X connect 28 0 29 0;
#X connect 30 0 31 0;
#X connect 31 0 32 0;
#X connect 33 0 14 0;
#X connect 34 0 14 0;
#X connect 36 0 55 0;
#X connect 37 0 55 0;
#X connect 38 0 41 0;
#X connect 39 0 38 0;
#X connect 41 0 43 0;
#X connect 42 0 40 0;
#X connect 44 0 14 0;
#X connect 45 0 55 0;
#X connect 46 0 55 0;
#X connect 47 0 51 0;
#X connect 48 0 49 0;
#X connect 49 0 53 0;
#X connect 50 0 51 0;
#X connect 52 0 48 0;
#X connect 54 0 14 0;
#X connect 56 0 30 0;
#X connect 57 0 40 0;
#X connect 58 0 36 0;
#X connect 59 0 17 0;
#X restore 841 770 pd sendOscToMObile;
#X obj 568 455 tgl 15 0 empty empty empty 17 7 0 10 -262144 -1 -1 0
1;
#X floatatom 568 475 5 0 0 0 - - -;
#X obj 568 394 bng 15 250 50 0 empty empty empty 17 7 0 10 -262144
-1 -1;
#X obj 601 409 tgl 15 0 empty empty empty 17 7 0 10 -262144 -1 -1 0
1;
#X obj 568 432 spigot;
#X floatatom 442 454 5 0 0 0 - - -;
#X obj 27 56 oscparse;
#X obj 27 104 list trim;
#X obj 24 18 netreceive -u -b 7000;
#X obj 25 153 route input metro looper1, f 44;
#X obj 267 198 route rec_ovr volume clear;
#X obj 507 199 route clear on bpm lenght4 lenght8 lenght16 position
;
#X obj 28 199 route v1 v2 v3 v4 v5 v6 v7 v8;
#X obj 308 64 declare -lib zexy;
#X msg 840 633 connect 192.168.2.7 8002;
#X obj 262 291 s rec_ovr;
#X obj 570 357 r rec_ovr;
#X obj 278 266 s volumelooper;
#X obj 391 608 r volumelooper;
#X obj 315 244 s clearloop;
#X obj 444 326 r clearloop;
#X obj 288 673 s recOSCout;
#X obj 902 693 r recOSCout;
#X obj 964 741 r metro;
#X obj 686 409 s resetMetro;
#X obj 840 601 r resetMetro;
#X obj 442 278 r resetMetro;
#X obj 439 522 s resetlooprec;
#X obj 931 717 r resetlooprec;
#X obj 442 485 s resetREC;
#X obj 285 745 r resetREC;
#X obj 567 553 s armOsc;
#X obj 871 661 r armOsc;
#X obj 390 641 vsl 15 128 0 40 0 0 empty empty empty 0 -9 0 10 -262144
-1 -1 5600 1;
#X connect 0 0 8 0;
#X connect 0 1 13 0;
#X connect 0 2 15 0;
#X connect 0 3 17 0;
#X connect 1 0 12 0;
#X connect 2 0 14 0;
#X connect 4 0 16 0;
#X connect 5 0 18 0;
#X connect 8 0 10 0;
#X connect 11 0 20 0;
#X connect 11 0 9 0;
#X connect 11 0 9 1;
#X connect 12 0 8 1;
#X connect 13 0 10 0;
#X connect 14 0 13 1;
#X connect 15 0 10 0;
#X connect 16 0 15 1;
#X connect 17 0 10 0;
#X connect 18 0 17 1;
#X connect 20 0 9 0;
#X connect 20 0 9 1;
#X connect 21 0 20 1;
#X connect 21 0 62 0;
#X connect 22 0 46 0;
#X connect 22 0 70 0;
#X connect 23 0 38 0;
#X connect 23 0 27 0;
#X connect 23 1 34 0;
#X connect 23 2 30 0;
#X connect 23 3 35 0;
#X connect 25 0 23 3;
#X connect 26 0 23 4;
#X connect 27 0 23 1;
#X connect 27 0 72 0;
#X connect 29 0 23 0;
#X connect 31 0 23 2;
#X connect 31 0 65 0;
#X connect 32 0 23 0;
#X connect 33 0 23 0;
#X connect 34 0 28 0;
#X connect 36 0 21 0;
#X connect 39 0 21 0;
#X connect 41 0 42 0;
#X connect 42 0 27 0;
#X connect 43 0 44 0;
#X connect 43 0 45 0;
#X connect 44 0 45 1;
#X connect 45 0 41 0;
#X connect 46 0 42 0;
#X connect 46 0 68 0;
#X connect 47 0 48 0;
#X connect 48 0 50 0;
#X connect 49 0 47 0;
#X connect 50 0 53 0;
#X connect 50 1 52 0;
#X connect 50 2 51 0;
#X connect 51 0 56 0;
#X connect 51 1 58 0;
#X connect 51 2 60 0;
#X connect 52 0 31 0;
#X connect 52 1 25 0;
#X connect 52 2 26 0;
#X connect 52 3 32 0;
#X connect 52 4 33 0;
#X connect 52 5 29 0;
#X connect 53 0 1 0;
#X connect 53 1 2 0;
#X connect 53 2 4 0;
#X connect 53 3 5 0;
#X connect 53 4 3 0;
#X connect 53 5 7 0;
#X connect 53 6 6 0;
#X connect 55 0 40 0;
#X connect 57 0 43 0;
#X connect 59 0 74 0;
#X connect 61 0 22 0;
#X connect 63 0 40 2;
#X connect 64 0 40 4;
#X connect 66 0 55 0;
#X connect 67 0 22 0;
#X connect 69 0 40 3;
#X connect 71 0 20 3;
#X connect 73 0 40 1;
#X connect 74 0 20 2;
