#N canvas 314 218 1416 701 12;
#X declare -lib zexy;
#X obj 16 471 *~;
#X obj 22 874 dac~;
#X obj 77 471 *~;
#X obj 145 471 *~;
#X obj 183 470 *~;
#N canvas 194 106 1246 725 looper 0;
#X obj 40 81 +~;
#X obj 39 379 *~;
#X obj 40 432 *~ 0.5;
#X obj 40 526 tabwrite~ loop;
#X obj 103 352 line~;
#X obj 103 323 pack 0 6;
#X msg 103 280 0;
#X msg 143 292 1;
#X msg 484 32 reset;
#X obj 434 461 tabplay~ loop;
#X msg 434 427 bang;
#X msg 484 427 stop;
#X obj 509 484 bng 15 250 50 0 empty empty empty 17 7 0 10 -262144
-1 -1;
#X obj 319 286 timer;
#X obj 319 318 * 44.1;
#X floatatom 319 347 5 0 0 0 - - -, f 5;
#X msg 319 372 resize \$1;
#X obj 319 401 s loop;
#X msg 531 350 normalize;
#X obj 337 240 t b b b;
#X msg 512 384 resize 3.969e+06 \, const 0;
#X obj 724 40 table loop 3.969e+06;
#X msg 373 50 0;
#X obj 270 71 f;
#X obj 257 110 + 1;
#X msg 372 72 2;
#X obj 297 91 sel 0 1 2 3;
#X obj 230 88 sel 3;
#X text 519 427 stop playback;
#X text 527 32 clear loop;
#X obj 270 13 tgl 15 0 empty empty empty 17 7 0 10 -262144 -1 -1 0
1;
#X msg 270 48 bang;
#X text 288 11 rec;
#X text 572 136 functional \, unlimited overdubbing looper. there is
still an unfortunate quirk however: you can't seem to overdub during
the very first playback of the first loop \, the overdubs do not record
in this scenario.;
#X obj 40 48 inlet~;
#X obj 433 588 outlet~;
#X obj 340 19 inlet;
#X obj 555 5 inlet;
#X obj 435 535 *~;
#X obj 483 532 inlet;
#X connect 0 0 1 0;
#X connect 1 0 2 0;
#X connect 2 0 3 0;
#X connect 4 0 1 1;
#X connect 5 0 4 0;
#X connect 6 0 5 0;
#X connect 7 0 5 0;
#X connect 8 0 22 0;
#X connect 8 0 11 0;
#X connect 8 0 20 0;
#X connect 9 0 3 0;
#X connect 9 0 38 0;
#X connect 9 1 12 0;
#X connect 9 1 3 0;
#X connect 10 0 9 0;
#X connect 11 0 9 0;
#X connect 12 0 10 0;
#X connect 13 0 14 0;
#X connect 14 0 15 0;
#X connect 15 0 16 0;
#X connect 16 0 17 0;
#X connect 18 0 17 0;
#X connect 19 0 6 0;
#X connect 19 1 10 0;
#X connect 19 2 13 1;
#X connect 20 0 17 0;
#X connect 22 0 23 1;
#X connect 23 0 27 0;
#X connect 23 0 26 0;
#X connect 24 0 23 1;
#X connect 25 0 23 1;
#X connect 26 0 3 0;
#X connect 26 0 13 0;
#X connect 26 0 7 0;
#X connect 26 1 19 0;
#X connect 26 1 6 0;
#X connect 26 2 7 0;
#X connect 26 3 6 0;
#X connect 26 3 25 0;
#X connect 27 1 24 0;
#X connect 30 0 31 0;
#X connect 31 0 23 0;
#X connect 34 0 0 0;
#X connect 36 0 30 0;
#X connect 37 0 8 0;
#X connect 38 0 35 0;
#X connect 39 0 38 1;
#X restore 1061 801 pd looper;
#X obj 1082 683 tgl 20 0 empty empty Recording 17 7 0 10 -258113 -1
-1 0 1;
#X obj 657 350 bng 60 250 50 0 empty empty Clear/Reset_Loop 17 7 0
10 -258113 -1 -1;
#N canvas 543 60 698 649 metrolooper 0;
#X floatatom 403 87 5 0 0 0 - - -, f 5;
#X obj 403 55 expr (60/$f1)*1000;
#X text 521 57 convert to ms;
#X text 446 88 ms;
#X obj 372 133 metro;
#X obj 376 96 tgl 15 0 empty empty empty 17 7 0 10 -262144 -1 -1 0
1;
#X text 325 93 on/off;
#X text 414 132 outputs bang every 'x' ms;
#X obj 494 277 *~;
#X obj 494 202 vline~;
#X text 470 162 got to 1 (full volume) in 20 \, then go to zero (no
volume) in 20 ms after waiting 20 ms;
#X text 542 201 translate to audio rate signal;
#X text 572 234 generate 800 hz sine tone;
#X text 524 276 multiply sine tone by amplitude envelope;
#X obj 494 317 dac~;
#X obj 403 -12 inlet;
#X obj 363 43 inlet;
#X obj 21 199 float;
#X obj 87 200 + 1;
#X obj 217 444 tgl 15 0 empty empty empty 17 7 0 10 -262144 -1 -1 0
1;
#X floatatom 20 510 5 0 0 0 - - -, f 5;
#X obj 513 422 tgl 15 0 empty empty empty 17 7 0 10 -262144 -1 -1 0
1;
#X floatatom 365 508 5 0 0 0 - - -, f 5;
#X obj 365 474 expr if (($f3 == 1 && $f2 == $f1) \, 1 \, 0);
#X text 534 421 Arm Stop Rec;
#X obj 21 472 expr if (($f3 == 1 && $f2 == $f1) \, 1 \, 0);
#X obj 24 541 route 0 1;
#X obj 64 595 outlet;
#X text 184 421 Arm Rec;
#X obj 364 537 route 0 1;
#X obj 361 590 outlet;
#X text 124 595 Go to Arm Rec;
#X text 421 594 Go to Stop Rec;
#X obj 175 353 inlet AR;
#X obj 90 314 outlet;
#X obj 70 136 inlet;
#X obj 189 48 bng 15 250 50 0 empty empty empty 17 7 0 10 -262144 -1
-1;
#X text 207 45 restart Metro;
#X obj 192 147 outlet;
#X obj 176 12 inlet;
#X obj 22 257 mod 8;
#X obj 474 385 - 1;
#X obj 363 564 t b;
#X msg 190 85 -1;
#X msg 376 165 1 50 \, 0 10 10;
#X obj 509 233 osc~ 900;
#X obj 64 355 t b b;
#X msg 64 404 0;
#X msg 380 408 0;
#X connect 0 0 4 1;
#X connect 1 0 0 0;
#X connect 4 0 44 0;
#X connect 4 0 17 0;
#X connect 5 0 4 0;
#X connect 8 0 14 0;
#X connect 8 0 14 1;
#X connect 9 0 8 0;
#X connect 15 0 1 0;
#X connect 16 0 5 0;
#X connect 17 0 18 0;
#X connect 17 0 40 0;
#X connect 18 0 17 1;
#X connect 19 0 25 2;
#X connect 20 0 26 0;
#X connect 21 0 23 2;
#X connect 22 0 29 0;
#X connect 23 0 22 0;
#X connect 25 0 20 0;
#X connect 26 1 27 0;
#X connect 26 1 21 0;
#X connect 29 1 42 0;
#X connect 29 1 21 0;
#X connect 33 0 19 0;
#X connect 35 0 40 1;
#X connect 36 0 43 0;
#X connect 39 0 36 0;
#X connect 40 0 34 0;
#X connect 40 0 23 0;
#X connect 40 0 25 0;
#X connect 40 0 46 0;
#X connect 41 0 23 1;
#X connect 42 0 30 0;
#X connect 43 0 38 0;
#X connect 43 0 17 0;
#X connect 44 0 9 0;
#X connect 45 0 8 1;
#X connect 46 0 47 0;
#X connect 46 1 48 0;
#X connect 47 0 25 1;
#X connect 48 0 23 1;
#X restore 978 396 pd metrolooper;
#X obj 1043 276 tgl 60 0 empty empty Start_Metro_To_Rec 17 7 0 10 -4032
-1 -1 0 1;
#X floatatom 1180 284 5 0 0 2 BPM - -, f 5;
#X obj 782 455 tgl 25 0 empty empty REC?over 17 7 0 10 -4034 -1 -1
0 1;
#X obj 1012 488 s metro;
#X msg 886 360 16;
#X obj 1043 459 s restartMetro;
#X obj 969 277 bng 60 250 50 0 empty empty empty 17 7 0 10 -162280
-1 -1;
#X msg 886 304 4;
#X msg 887 332 8;
#X obj 1072 433 s BangStopRec;
#X obj 1083 654 r BangStopRec;
#X obj 980 522 s RecBang;
#X obj 1081 627 r RecBang;
#N canvas 375 56 1056 663 sendOscToMObile 0;
#X obj 704 115 s metroPoistion;
#X obj 734 369 r metroPoistion;
#X obj 703 20 inlet;
#X obj 120 20 inlet;
#X obj 324 20 inlet;
#X obj 11 20 inlet;
#X obj 220 20 inlet;
#X obj 120 50 route 0 1;
#X obj 219 50 route 0 1;
#X obj 1011 369 netreceive -u -b;
#X obj 1011 399 oscparse;
#X obj 1011 429 list trim;
#X obj 1014 549 hsl 128 15 0 127 0 0 empty empty empty -2 -8 0 10 -262144
-1 -1 0 1;
#X obj 1011 546 hradio 15 1 0 8 empty empty empty 0 -8 0 10 -262144
-1 -1 5;
#X obj 424 657 list prepend send;
#X obj 424 687 list trim;
#X obj 350 735 print;
#X obj 424 717 netsend -u -b;
#X msg 282 656 disconnect;
#X obj 1011 459 route metro;
#X obj 1011 489 route position;
#X obj 1011 519 route 1;
#X obj 734 429 oscformat metro position;
#X obj 1103 518 print out byte;
#X msg 1011 339 listen;
#X msg 734 399 1 \$1 1;
#X obj 11 50 s connections;
#X obj 195 576 r connections;
#X obj 24 570 oscparse;
#X obj 24 600 print parse-output;
#X obj 23 423 any2list;
#X obj 23 453 oscformat looper1 rec_ovr color;
#X obj 23 483 s looperColour;
#X obj 393 557 r looperColour;
#X obj 472 631 r metroPosition;
#X obj 734 459 s metroPosition;
#X msg 20 115 blue;
#X msg 20 144 orange;
#X obj 270 423 any2list;
#X obj 269 366 r symbolText;
#X obj 138 271 s symbolText;
#X obj 270 455 oscformat looper1 symbol;
#X msg 132 172 Arm_To_Record;
#X obj 271 489 s looperSymboltext;
#X obj 411 583 r looperSymboltext;
#X msg 21 174 green;
#X msg 40 210 red;
#X msg 256 144 doubletap_to_Ovrdub;
#X obj 474 425 any2list;
#X obj 474 457 oscformat looper1 symbolRecording;
#X msg 259 188 Recording_Now;
#X obj 257 271 s looperActiveRecordingtext;
#X obj 474 367 r looperActiveRecordingtext;
#X obj 474 491 s looperSymbolRecordingtext;
#X obj 443 605 r looperSymbolRecordingtext;
#X obj 18 271 s looperColours;
#X obj 23 363 r looperColours;
#X msg 127 143 Press_to_Arm;
#X obj 322 52 route 0 1;
#X msg 195 606 connect 192.168.100.30 8002;
#X connect 1 0 25 0;
#X connect 2 0 0 0;
#X connect 3 0 7 0;
#X connect 4 0 58 0;
#X connect 5 0 26 0;
#X connect 6 0 8 0;
#X connect 7 0 57 0;
#X connect 7 1 37 0;
#X connect 7 1 42 0;
#X connect 8 0 47 0;
#X connect 8 0 45 0;
#X connect 8 1 50 0;
#X connect 8 1 46 0;
#X connect 9 0 10 0;
#X connect 10 0 11 0;
#X connect 10 0 23 0;
#X connect 11 0 19 0;
#X connect 14 0 15 0;
#X connect 15 0 17 0;
#X connect 17 0 16 0;
#X connect 18 0 17 0;
#X connect 19 0 20 0;
#X connect 20 0 21 0;
#X connect 21 0 13 0;
#X connect 22 0 35 0;
#X connect 24 0 9 0;
#X connect 25 0 22 0;
#X connect 27 0 17 0;
#X connect 28 0 29 0;
#X connect 30 0 31 0;
#X connect 31 0 32 0;
#X connect 33 0 14 0;
#X connect 34 0 14 0;
#X connect 36 0 55 0;
#X connect 37 0 55 0;
#X connect 38 0 41 0;
#X connect 39 0 38 0;
#X connect 41 0 43 0;
#X connect 42 0 40 0;
#X connect 44 0 14 0;
#X connect 45 0 55 0;
#X connect 46 0 55 0;
#X connect 47 0 51 0;
#X connect 48 0 49 0;
#X connect 49 0 53 0;
#X connect 50 0 51 0;
#X connect 52 0 48 0;
#X connect 54 0 14 0;
#X connect 56 0 30 0;
#X connect 57 0 40 0;
#X connect 58 0 36 0;
#X connect 59 0 17 0;
#X restore 1087 183 pd sendOscToMObile;
#X obj 782 393 tgl 15 0 empty empty empty 17 7 0 10 -262144 -1 -1 0
1;
#X floatatom 782 413 5 0 0 0 - - -, f 5;
#X obj 782 332 bng 15 250 50 0 empty empty empty 17 7 0 10 -262144
-1 -1;
#X obj 815 347 tgl 15 0 empty empty empty 17 7 0 10 -262144 -1 -1 0
1;
#X obj 782 370 spigot;
#X floatatom 669 425 5 0 0 0 - - -, f 5;
#X obj 27 56 oscparse;
#X obj 20 84 list trim;
#X obj 24 18 netreceive -u -b 7000;
#X obj 25 153 route input metro looper1, f 44;
#X obj 267 198 route rec_ovr volume clear;
#X obj 681 186 route clear on bpm lenght4 lenght8 lenght16 position
;
#X obj 25 194 route v1 v2 v3 v4 v5 v6 v7 v8;
#X obj 210 2 declare -lib zexy;
#X obj 262 291 s rec_ovr;
#X obj 784 295 r rec_ovr;
#X obj 328 267 s volumelooper;
#X obj 1102 733 r volumelooper;
#X obj 388 244 s clearloop;
#X obj 659 297 r clearloop;
#X obj 1124 702 s recOSCout;
#X obj 1148 106 r recOSCout;
#X obj 1210 154 r metro;
#X obj 971 349 s resetMetro;
#X obj 1088 7 r resetMetro;
#X obj 657 249 r resetMetro;
#X obj 654 493 s resetlooprec;
#X obj 1177 130 r resetlooprec;
#X obj 657 456 s resetREC;
#X obj 1121 774 r resetREC;
#X obj 781 491 s armOsc;
#X obj 1117 84 r armOsc;
#X obj 1061 843 s~ looperAudio;
#X obj 17 738 r~ looperAudio;
#X obj 702 58 s eq;
#X obj 702 28 route eq channelselect;
#X obj 779 54 list prepend;
#X msg 782 79 \$2;
#X obj 831 79 any2list;
#X obj 897 79 route symbol;
#X obj 26 233 adc~ 1 2 3 4;
#X msg 1179 244 120;
#X obj 1158 211 r resetMetro;
#X obj 20 703 s~ audioOut;
#X obj 317 579 r~ audioOut;
#X obj 392 877 s~ effects+Audio;
#X obj 939 676 r~ effects+Audio;
#X obj 43 803 r~ effects+Audio;
#X msg 36 442 1;
#X obj 36 416 loadbang;
#N canvas 0 50 450 300 bypassBB 0;
#X obj 195 -4 route 0 1;
#X obj 195 23 bng 15 250 50 0 empty empty empty 17 7 0 10 -262144 -1
-1;
#X obj 220 24 bng 15 250 50 0 empty empty empty 17 7 0 10 -262144 -1
-1;
#X msg 168 65 1;
#X msg 195 65 0;
#X msg 220 65 0;
#X msg 246 65 1;
#X obj 74 218 outlet~;
#X obj 195 -33 inlet;
#X obj 75 -33 inlet~;
#X obj 138 -33 inlet~;
#N canvas 628 268 450 300 pot~ 0;
#X obj -183 96 line~;
#X obj -220 175 *~;
#X obj -182 135 *~;
#X msg -183 69 \$1 20;
#X obj -221 20 inlet~;
#X obj -221 205 outlet~;
#X obj -183 43 inlet;
#X connect 0 0 2 0;
#X connect 0 0 2 1;
#X connect 1 0 5 0;
#X connect 2 0 1 1;
#X connect 3 0 0 0;
#X connect 4 0 1 0;
#X connect 6 0 3 0;
#X restore 74 138 pd pot~;
#N canvas 630 270 450 300 pot~ 0;
#X obj -183 96 line~;
#X obj -220 175 *~;
#X obj -182 135 *~;
#X msg -183 69 \$1 20;
#X obj -221 20 inlet~;
#X obj -221 205 outlet~;
#X obj -183 43 inlet;
#X connect 0 0 2 0;
#X connect 0 0 2 1;
#X connect 1 0 5 0;
#X connect 2 0 1 1;
#X connect 3 0 0 0;
#X connect 4 0 1 0;
#X connect 6 0 3 0;
#X restore 137 138 pd pot~;
#X connect 0 0 1 0;
#X connect 0 1 2 0;
#X connect 1 0 3 0;
#X connect 1 0 4 0;
#X connect 2 0 5 0;
#X connect 2 0 6 0;
#X connect 3 0 11 1;
#X connect 4 0 12 1;
#X connect 5 0 11 1;
#X connect 6 0 12 1;
#X connect 8 0 0 0;
#X connect 9 0 11 0;
#X connect 10 0 12 0;
#X connect 11 0 7 0;
#X connect 12 0 7 0;
#X restore 388 718 pd bypassBB;
#X msg 474 523 60000;
#X obj 471 578 /;
#X obj 388 684 *~ 0.5;
#X obj 1190 327 s bpm;
#X obj 476 467 r bpm;
#X msg 489 552 \$1;
#X obj 476 497 bang;
#X msg 523 523 30000;
#X msg 574 523 45000;
#X obj 355 75 route bypassEcho quarter eight triplet;
#X obj 355 42 route echo;
#X obj 357 118 s bypassEcho;
#X obj 451 118 s quarter;
#X obj 526 118 s eight;
#X obj 585 118 s triplet;
#X obj 578 578 r bypassEcho;
#X obj 470 410 r quarter;
#X obj 545 410 r eight;
#X obj 575 488 r triplet;
#X msg 1034 38 connect 192.168.2.7 8002;
#X obj 997 442 + 1;
#N canvas 523 196 735 635 single_eq 0;
#X obj 224 546 outlet~;
#X obj 147 10 inlet oscEQ;
#X obj 148 54 route low lowQ band bandQ high highQ;
#X obj 68 160 inlet~ audio1;
#X obj 563 168 tgl 15 0 empty empty empty 17 7 0 10 -262144 -1 -1 0
1;
#X obj 563 188 switch~;
#X obj 558 22 inlet;
#X obj 560 82 expr if($f1 == 1 \, 0 \, 1);
#X obj 67 389 else/lowpass~ 1000 0.1;
#X obj 215 391 else/bandpass~ 100 0.1;
#X obj 360 390 else/highpass~ 1000 0.1;
#X connect 1 0 2 0;
#X connect 2 0 8 1;
#X connect 2 1 8 2;
#X connect 2 2 9 1;
#X connect 2 3 9 2;
#X connect 2 4 10 1;
#X connect 2 5 10 2;
#X connect 3 0 8 0;
#X connect 3 0 9 0;
#X connect 3 0 10 0;
#X connect 4 0 5 0;
#X connect 6 0 7 0;
#X connect 7 0 4 0;
#X connect 8 0 0 0;
#X connect 9 0 0 0;
#X connect 10 0 0 0;
#X restore 18 585 pd single_eq;
#X obj 154 124 s singleEq;
#X obj 57 501 r singleEq;
#N canvas 0 50 450 300 bypassBB 0;
#X obj 195 -4 route 0 1;
#X obj 195 23 bng 15 250 50 0 empty empty empty 17 7 0 10 -262144 -1
-1;
#X obj 220 24 bng 15 250 50 0 empty empty empty 17 7 0 10 -262144 -1
-1;
#X msg 168 65 1;
#X msg 195 65 0;
#X msg 220 65 0;
#X msg 246 65 1;
#X obj 74 218 outlet~;
#X obj 195 -33 inlet;
#X obj 75 -33 inlet~;
#X obj 138 -33 inlet~;
#N canvas 628 268 450 300 pot~ 0;
#X obj -183 96 line~;
#X obj -220 175 *~;
#X obj -182 135 *~;
#X msg -183 69 \$1 20;
#X obj -221 20 inlet~;
#X obj -221 205 outlet~;
#X obj -183 43 inlet;
#X connect 0 0 2 0;
#X connect 0 0 2 1;
#X connect 1 0 5 0;
#X connect 2 0 1 1;
#X connect 3 0 0 0;
#X connect 4 0 1 0;
#X connect 6 0 3 0;
#X restore 74 138 pd pot~;
#N canvas 630 270 450 300 pot~ 0;
#X obj -183 96 line~;
#X obj -220 175 *~;
#X obj -182 135 *~;
#X msg -183 69 \$1 20;
#X obj -221 20 inlet~;
#X obj -221 205 outlet~;
#X obj -183 43 inlet;
#X connect 0 0 2 0;
#X connect 0 0 2 1;
#X connect 1 0 5 0;
#X connect 2 0 1 1;
#X connect 3 0 0 0;
#X connect 4 0 1 0;
#X connect 6 0 3 0;
#X restore 137 138 pd pot~;
#X connect 0 0 1 0;
#X connect 0 1 2 0;
#X connect 1 0 3 0;
#X connect 1 0 4 0;
#X connect 2 0 5 0;
#X connect 2 0 6 0;
#X connect 3 0 11 1;
#X connect 4 0 12 1;
#X connect 5 0 11 1;
#X connect 6 0 12 1;
#X connect 8 0 0 0;
#X connect 9 0 11 0;
#X connect 10 0 12 0;
#X connect 11 0 7 0;
#X connect 12 0 7 0;
#X restore 19 653 pd bypassBB;
#X obj 151 564 tgl 15 1 empty empty empty 17 7 0 10 -258113 -1 -1 1
1;
#X obj 101 527 r bypassEq;
#X obj 234 125 s bypassEq;
#N canvas 0 50 450 300 bypassBB 0;
#X obj 195 -4 route 0 1;
#X obj 195 23 bng 15 250 50 0 empty empty empty 17 7 0 10 -262144 -1
-1;
#X obj 220 24 bng 15 250 50 0 empty empty empty 17 7 0 10 -262144 -1
-1;
#X msg 168 65 1;
#X msg 195 65 0;
#X msg 220 65 0;
#X msg 246 65 1;
#X obj 74 218 outlet~;
#X obj 195 -33 inlet;
#X obj 75 -33 inlet~;
#X obj 138 -33 inlet~;
#N canvas 628 268 450 300 pot~ 0;
#X obj -183 96 line~;
#X obj -220 175 *~;
#X obj -182 135 *~;
#X msg -183 69 \$1 20;
#X obj -221 20 inlet~;
#X obj -221 205 outlet~;
#X obj -183 43 inlet;
#X connect 0 0 2 0;
#X connect 0 0 2 1;
#X connect 1 0 5 0;
#X connect 2 0 1 1;
#X connect 3 0 0 0;
#X connect 4 0 1 0;
#X connect 6 0 3 0;
#X restore 74 138 pd pot~;
#N canvas 630 270 450 300 pot~ 0;
#X obj -183 96 line~;
#X obj -220 175 *~;
#X obj -182 135 *~;
#X msg -183 69 \$1 20;
#X obj -221 20 inlet~;
#X obj -221 205 outlet~;
#X obj -183 43 inlet;
#X connect 0 0 2 0;
#X connect 0 0 2 1;
#X connect 1 0 5 0;
#X connect 2 0 1 1;
#X connect 3 0 0 0;
#X connect 4 0 1 0;
#X connect 6 0 3 0;
#X restore 137 138 pd pot~;
#X connect 0 0 1 0;
#X connect 0 1 2 0;
#X connect 1 0 3 0;
#X connect 1 0 4 0;
#X connect 2 0 5 0;
#X connect 2 0 6 0;
#X connect 3 0 11 1;
#X connect 4 0 12 1;
#X connect 5 0 11 1;
#X connect 6 0 12 1;
#X connect 8 0 0 0;
#X connect 9 0 11 0;
#X connect 10 0 12 0;
#X connect 11 0 7 0;
#X connect 12 0 7 0;
#X restore 390 821 pd bypassBB;
#X obj 477 778 tgl 15 1 empty empty empty 17 7 0 10 -258113 -1 -1 1
1;
#X obj 154 97 route singleEq bypassEq bypassReverb;
#X obj 322 135 s bypassReverb;
#X obj 478 702 r bypassReverb;
#X obj 185 506 loadbang;
#X msg 183 529 1;
#X obj 597 657 tgl 15 1 empty empty empty 17 7 0 10 -258113 -1 -1 1
1;
#X obj 599 597 loadbang;
#X msg 600 621 1;
#N canvas 226 105 450 300 reverb 0;
#X obj 83 140 freeverb~;
#X obj 45 65 inlet~;
#X obj 32 212 outlet~;
#X obj 240 176 tgl 15 0 empty empty empty 17 7 0 10 -262144 -1 -1 0
1;
#X obj 240 196 switch~;
#X obj 235 30 inlet;
#X obj 237 90 expr if($f1 == 1 \, 0 \, 1);
#X connect 0 0 2 0;
#X connect 0 1 2 0;
#X connect 1 0 0 0;
#X connect 1 0 0 1;
#X connect 1 0 2 0;
#X connect 3 0 4 0;
#X connect 5 0 6 0;
#X connect 6 0 3 0;
#X restore 389 766 pd reverb;
#X obj 485 725 loadbang;
#X msg 485 752 1;
#X obj 387 655 nusmuk-audio/echo~ 592 0.2;
#X obj 274 466 readsf~;
#X msg 237 432 start;
#X msg 297 434 stop;
#X obj 256 403 bng 15 250 50 0 empty empty empty 17 7 0 10 -262144
-1 -1;
#X obj 244 359 threshold~ 1 100 0.1 100;
#X msg 298 393 open Bass-Drum-1.wav;
#X msg 1084 65 connect 192.168.8.98 8005;
#X obj 689 120 loadbang;
#X obj 779 139 delay 100;
#X msg 596 161 \; pd dsp 1;
#X connect 0 0 95 0;
#X connect 0 0 98 1;
#X connect 2 0 120 0;
#X connect 5 0 55 0;
#X connect 6 0 5 1;
#X connect 6 0 43 0;
#X connect 7 0 28 0;
#X connect 7 0 51 0;
#X connect 8 0 20 0;
#X connect 8 0 11 0;
#X connect 8 1 94 0;
#X connect 8 2 14 0;
#X connect 8 3 18 0;
#X connect 9 0 8 3;
#X connect 10 0 8 4;
#X connect 10 0 77 0;
#X connect 11 0 8 1;
#X connect 11 0 53 0;
#X connect 13 0 8 0;
#X connect 15 0 8 2;
#X connect 15 0 46 0;
#X connect 16 0 8 0;
#X connect 17 0 8 0;
#X connect 19 0 6 0;
#X connect 21 0 6 0;
#X connect 23 0 24 0;
#X connect 24 0 11 0;
#X connect 25 0 26 0;
#X connect 25 0 27 0;
#X connect 26 0 27 1;
#X connect 27 0 23 0;
#X connect 28 0 24 0;
#X connect 28 0 49 0;
#X connect 29 0 30 0;
#X connect 30 0 32 0;
#X connect 30 0 58 0;
#X connect 30 0 84 0;
#X connect 30 0 104 0;
#X connect 31 0 29 0;
#X connect 32 0 35 0;
#X connect 32 1 34 0;
#X connect 32 2 33 0;
#X connect 33 0 37 0;
#X connect 33 1 39 0;
#X connect 33 2 41 0;
#X connect 34 0 15 0;
#X connect 34 1 9 0;
#X connect 34 2 10 0;
#X connect 34 3 16 0;
#X connect 34 4 17 0;
#X connect 34 5 13 0;
#X connect 35 0 0 1;
#X connect 35 1 2 1;
#X connect 35 2 3 1;
#X connect 35 3 4 1;
#X connect 38 0 25 0;
#X connect 40 0 5 2;
#X connect 42 0 7 0;
#X connect 44 0 22 2;
#X connect 45 0 22 4;
#X connect 47 0 122 0;
#X connect 48 0 7 0;
#X connect 50 0 22 3;
#X connect 52 0 5 3;
#X connect 54 0 22 1;
#X connect 56 0 1 0;
#X connect 56 0 1 1;
#X connect 58 0 57 0;
#X connect 58 1 59 0;
#X connect 59 0 60 0;
#X connect 60 0 61 0;
#X connect 61 0 62 0;
#X connect 63 0 0 0;
#X connect 63 1 2 0;
#X connect 63 2 3 0;
#X connect 63 3 4 0;
#X connect 64 0 10 0;
#X connect 65 0 64 0;
#X connect 67 0 73 1;
#X connect 67 0 73 0;
#X connect 67 0 115 0;
#X connect 69 0 5 0;
#X connect 70 0 1 0;
#X connect 70 0 1 1;
#X connect 71 0 0 1;
#X connect 72 0 71 0;
#X connect 73 0 102 1;
#X connect 73 0 112 0;
#X connect 74 0 75 0;
#X connect 75 0 115 1;
#X connect 76 0 73 0;
#X connect 78 0 79 0;
#X connect 78 0 80 0;
#X connect 79 0 75 1;
#X connect 80 0 74 0;
#X connect 81 0 75 0;
#X connect 82 0 75 0;
#X connect 83 0 85 0;
#X connect 83 1 86 0;
#X connect 83 2 87 0;
#X connect 83 3 88 0;
#X connect 84 0 83 0;
#X connect 89 0 109 0;
#X connect 90 0 74 0;
#X connect 91 0 81 0;
#X connect 92 0 82 0;
#X connect 93 0 22 0;
#X connect 94 0 12 0;
#X connect 95 0 98 0;
#X connect 97 0 95 1;
#X connect 98 0 66 0;
#X connect 99 0 98 2;
#X connect 99 0 95 2;
#X connect 100 0 99 0;
#X connect 102 0 68 0;
#X connect 103 0 102 2;
#X connect 103 0 112 1;
#X connect 104 0 96 0;
#X connect 104 1 101 0;
#X connect 104 2 105 0;
#X connect 106 0 103 0;
#X connect 107 0 108 0;
#X connect 108 0 99 0;
#X connect 109 0 73 2;
#X connect 110 0 111 0;
#X connect 111 0 109 0;
#X connect 112 0 102 0;
#X connect 113 0 114 0;
#X connect 114 0 103 0;
#X connect 115 0 76 0;
#X connect 116 0 95 0;
#X connect 116 0 98 1;
#X connect 117 0 116 0;
#X connect 118 0 116 0;
#X connect 119 0 121 0;
#X connect 119 0 117 0;
#X connect 120 0 119 0;
#X connect 121 0 116 0;
#X connect 122 0 22 0;
#X connect 123 0 124 0;
#X connect 124 0 125 0;
