#N canvas 155 66 1269 745 12;
#X obj 64 184 adc~ 1 2;
#X obj 324 669 dac~;
#X obj 67 336 writesf~;
#X msg 324 280 stop;
#X obj 323 627 readsf~;
#X obj 67 278 *~ 1;
#X obj 322 504 bng 15 250 50 0 empty empty empty 17 7 0 10 -262144
-1 -1;
#X obj 322 473 del 10;
#X obj 324 369 bng 15 250 50 0 empty empty empty 17 7 0 10 -262144
-1 -1;
#N canvas 194 106 1246 725 looper 0;
#X obj 40 81 +~;
#X obj 39 379 *~;
#X obj 40 432 *~ 0.5;
#X obj 40 526 tabwrite~ loop;
#X obj 103 352 line~;
#X obj 103 323 pack 0 6;
#X msg 103 280 0;
#X msg 143 292 1;
#X msg 484 32 reset;
#X obj 434 461 tabplay~ loop;
#X msg 434 427 bang;
#X msg 484 427 stop;
#X obj 509 484 bng 15 250 50 0 empty empty empty 17 7 0 10 -262144
-1 -1;
#X obj 319 286 timer;
#X obj 319 318 * 44.1;
#X floatatom 317 347 5 0 0 0 - - -;
#X msg 319 372 resize \$1;
#X obj 319 401 s loop;
#X msg 531 350 normalize;
#X obj 337 240 t b b b;
#X msg 512 384 resize 3.969e+06 \, const 0;
#X obj 724 40 table loop 3.969e+06;
#X msg 373 50 0;
#X obj 270 71 f;
#X obj 257 110 + 1;
#X msg 372 72 2;
#X obj 297 91 sel 0 1 2 3;
#X obj 230 88 sel 3;
#X text 519 427 stop playback;
#X text 527 32 clear loop;
#X obj 270 13 tgl 15 0 empty empty empty 17 7 0 10 -262144 -1 -1 0
1;
#X msg 270 48 bang;
#X text 288 11 rec;
#X text 572 136 functional \, unlimited overdubbing looper. there is
still an unfortunate quirk however: you can't seem to overdub during
the very first playback of the first loop \, the overdubs do not record
in this scenario.;
#X obj 40 48 inlet~;
#X obj 433 588 outlet~;
#X obj 340 19 inlet;
#X obj 555 5 inlet;
#X obj 435 535 *~;
#X obj 483 532 inlet;
#X connect 0 0 1 0;
#X connect 1 0 2 0;
#X connect 2 0 3 0;
#X connect 4 0 1 1;
#X connect 5 0 4 0;
#X connect 6 0 5 0;
#X connect 7 0 5 0;
#X connect 8 0 22 0;
#X connect 8 0 11 0;
#X connect 8 0 20 0;
#X connect 9 0 3 0;
#X connect 9 0 38 0;
#X connect 9 1 12 0;
#X connect 9 1 3 0;
#X connect 10 0 9 0;
#X connect 11 0 9 0;
#X connect 12 0 10 0;
#X connect 13 0 14 0;
#X connect 14 0 15 0;
#X connect 15 0 16 0;
#X connect 16 0 17 0;
#X connect 18 0 17 0;
#X connect 19 0 6 0;
#X connect 19 1 10 0;
#X connect 19 2 13 1;
#X connect 20 0 17 0;
#X connect 22 0 23 1;
#X connect 23 0 27 0;
#X connect 23 0 26 0;
#X connect 24 0 23 1;
#X connect 25 0 23 1;
#X connect 26 0 3 0;
#X connect 26 0 13 0;
#X connect 26 0 7 0;
#X connect 26 1 19 0;
#X connect 26 1 6 0;
#X connect 26 2 7 0;
#X connect 26 3 6 0;
#X connect 26 3 25 0;
#X connect 27 1 24 0;
#X connect 30 0 31 0;
#X connect 31 0 23 0;
#X connect 34 0 0 0;
#X connect 36 0 30 0;
#X connect 37 0 8 0;
#X connect 38 0 35 0;
#X connect 39 0 38 1;
#X restore 1113 240 pd looper;
#X obj 1134 122 tgl 20 0 empty empty Recording 17 7 0 10 -258113 -1
-1 0 1;
#X obj 1154 172 r volumelooper;
#X obj 1176 141 s recOSCout;
#X obj 1173 213 r resetREC;
#X obj 1113 282 s~ looperAudio;
#X obj 1159 25 r BangStopRec1;
#X obj 1076 26 r RecBang1;
#X obj 140 388 timer;
#X obj 140 420 * 44.1;
#X floatatom 138 449 5 0 0 0 - - -;
#X obj 139 477 print;
#X obj 141 369 bng 15 250 50 0 empty empty empty 17 7 0 10 -262144
-1 -1;
#X obj 143 338 t b;
#X msg 478 590 0;
#X text 472 569 stop loop;
#X msg 144 253 \$1;
#X obj 205 224 v loopernum;
#X obj 322 532 v loopernum;
#X msg 322 560 \$1;
#X floatatom 144 187 5 0 0 0 - - -;
#X obj 477 207 adc~ 1 2;
#X obj 738 684 dac~;
#X obj 480 359 writesf~;
#X msg 737 303 stop;
#X obj 736 641 readsf~;
#X obj 480 301 *~ 1;
#X obj 735 527 bng 15 250 50 0 empty empty empty 17 7 0 10 -262144
-1 -1;
#X obj 735 496 del 10;
#X obj 737 392 bng 15 250 50 0 empty empty empty 17 7 0 10 -262144
-1 -1;
#X obj 553 411 timer;
#X obj 553 443 * 44.1;
#X floatatom 551 472 5 0 0 0 - - -;
#X obj 552 500 print;
#X obj 554 392 bng 15 250 50 0 empty empty empty 17 7 0 10 -262144
-1 -1;
#X obj 556 361 t b;
#X msg 891 613 0;
#X text 885 592 stop loop;
#X msg 557 266 \$1;
#X msg 735 583 \$1;
#X floatatom 557 240 5 0 0 0 - - -;
#X obj 609 264 v Overdubloopernum;
#X obj 152 110 bng 15 250 50 0 empty empty empty 17 7 0 10 -262144
-1 -1;
#X obj 558 157 bng 15 250 50 0 empty empty empty 17 7 0 10 -262144
-1 -1;
#X msg 143 279 open loops-\$1.wav \, start;
#X msg 556 302 open loops-\$1.wav \, start;
#X msg 735 610 open loops-\$1.wav \, 1;
#X obj 735 555 v Overdubloopernum;
#X msg 322 587 open loops-\$1.wav \, 1;
#X obj 145 165 float;
#X msg 188 138 0;
#X obj 189 164 + 2;
#X obj 558 186 v loopernum;
#X obj 558 215 + 1;
#X obj 314 77 tgl 15 0 empty empty empty 17 7 0 10 -262144 -1 -1 1
1;
#X obj 265 113 route 1 0;
#X obj 145 224 route 0;
#X connect 0 0 5 0;
#X connect 0 1 5 0;
#X connect 3 0 2 0;
#X connect 3 0 8 0;
#X connect 4 0 1 0;
#X connect 4 0 1 1;
#X connect 4 0 32 0;
#X connect 4 1 6 0;
#X connect 5 0 2 0;
#X connect 6 0 27 0;
#X connect 7 0 6 0;
#X connect 8 0 7 0;
#X connect 8 0 17 1;
#X connect 8 0 45 0;
#X connect 9 0 14 0;
#X connect 10 0 9 1;
#X connect 10 0 12 0;
#X connect 11 0 9 2;
#X connect 13 0 9 3;
#X connect 15 0 10 0;
#X connect 16 0 10 0;
#X connect 17 0 18 0;
#X connect 18 0 19 0;
#X connect 19 0 20 0;
#X connect 21 0 17 0;
#X connect 22 0 21 0;
#X connect 23 0 4 0;
#X connect 25 0 53 0;
#X connect 27 0 28 0;
#X connect 28 0 57 0;
#X connect 29 0 65 0;
#X connect 29 0 26 0;
#X connect 30 0 35 0;
#X connect 30 1 35 0;
#X connect 33 0 32 0;
#X connect 33 0 38 0;
#X connect 34 0 31 0;
#X connect 34 0 31 1;
#X connect 34 0 2 0;
#X connect 34 1 36 0;
#X connect 35 0 32 0;
#X connect 36 0 56 0;
#X connect 37 0 36 0;
#X connect 38 0 37 0;
#X connect 38 0 39 1;
#X connect 38 0 23 0;
#X connect 39 0 40 0;
#X connect 40 0 41 0;
#X connect 41 0 42 0;
#X connect 43 0 39 0;
#X connect 44 0 43 0;
#X connect 45 0 34 0;
#X connect 47 0 54 0;
#X connect 48 0 55 0;
#X connect 49 0 50 0;
#X connect 49 0 47 0;
#X connect 51 0 58 0;
#X connect 52 0 61 0;
#X connect 53 0 2 0;
#X connect 53 0 22 0;
#X connect 54 0 32 0;
#X connect 54 0 44 0;
#X connect 55 0 34 0;
#X connect 56 0 48 0;
#X connect 57 0 4 0;
#X connect 58 0 29 0;
#X connect 58 0 60 0;
#X connect 59 0 58 0;
#X connect 60 0 58 1;
#X connect 61 0 62 0;
#X connect 62 0 49 0;
#X connect 63 0 64 0;
#X connect 64 0 51 0;
#X connect 64 1 52 0;
#X connect 65 1 25 0;
