#N canvas 1 55 1425 807 12;
#X declare -lib zexy;
#X declare -lib list-abs;
#X obj 15 590 *~;
#X obj 811 1295 dac~;
#X obj 64 588 *~;
#X obj 138 582 *~;
#X obj 176 581 *~;
#X obj 794 560 bng 60 250 50 0 empty empty Clear/Reset_Loop 17 7 0
10 -258113 -1 -1;
#N canvas 331 62 698 649 metrolooper 1;
#X floatatom 403 87 5 0 0 0 - - -, f 5;
#X obj 403 55 expr (60/$f1)*1000;
#X text 521 57 convert to ms;
#X text 446 88 ms;
#X obj 372 133 metro;
#X obj 376 96 tgl 15 0 empty empty empty 17 7 0 10 -262144 -1 -1 1
1;
#X text 325 93 on/off;
#X text 414 132 outputs bang every 'x' ms;
#X obj 494 277 *~;
#X obj 494 202 vline~;
#X text 470 162 got to 1 (full volume) in 20 \, then go to zero (no
volume) in 20 ms after waiting 20 ms;
#X text 542 201 translate to audio rate signal;
#X text 572 234 generate 800 hz sine tone;
#X text 524 276 multiply sine tone by amplitude envelope;
#X obj 552 386 dac~;
#X obj 403 -12 inlet;
#X obj 363 43 inlet;
#X obj 21 199 float;
#X obj 87 200 + 1;
#X obj 217 444 tgl 15 0 empty empty empty 17 7 0 10 -262144 -1 -1 0
1;
#X floatatom 20 510 5 0 0 0 - - -, f 5;
#X obj 513 422 tgl 15 0 empty empty empty 17 7 0 10 -262144 -1 -1 0
1;
#X floatatom 365 508 5 0 0 0 - - -, f 5;
#X obj 365 474 expr if (($f3 == 1 && $f2 == $f1) \, 1 \, 0);
#X text 534 421 Arm Stop Rec;
#X obj 21 472 expr if (($f3 == 1 && $f2 == $f1) \, 1 \, 0);
#X obj 24 541 route 0 1;
#X obj 64 595 outlet;
#X text 184 421 Arm Rec;
#X obj 364 537 route 0 1;
#X obj 361 590 outlet;
#X text 124 595 Go to Arm Rec;
#X text 421 594 Go to Stop Rec;
#X obj 175 353 inlet AR;
#X obj 94 310 outlet;
#X obj 70 136 inlet;
#X obj 189 48 bng 15 250 50 0 empty empty empty 17 7 0 10 -262144 -1
-1;
#X text 207 45 restart Metro;
#X obj 192 147 outlet;
#X obj 176 12 inlet;
#X obj 22 257 mod 8;
#X obj 474 385 - 1;
#X obj 363 564 t b;
#X msg 190 85 -1;
#X msg 376 165 1 50 \, 0 10 10;
#X obj 509 233 osc~ 900;
#X obj 64 355 t b b;
#X msg 64 404 0;
#X msg 380 408 0;
#X obj 135 561 print;
#X obj 146 205 s bar;
#X text 558 321 multiply sine tone by amplitude envelope;
#X obj 496 323 *~ 4;
#X connect 0 0 4 1;
#X connect 1 0 0 0;
#X connect 4 0 44 0;
#X connect 4 0 17 0;
#X connect 5 0 4 0;
#X connect 8 0 52 0;
#X connect 9 0 8 0;
#X connect 15 0 1 0;
#X connect 16 0 5 0;
#X connect 17 0 18 0;
#X connect 17 0 40 0;
#X connect 18 0 17 1;
#X connect 19 0 25 2;
#X connect 20 0 26 0;
#X connect 21 0 23 2;
#X connect 22 0 29 0;
#X connect 23 0 22 0;
#X connect 25 0 20 0;
#X connect 26 1 27 0;
#X connect 26 1 21 0;
#X connect 29 1 42 0;
#X connect 29 1 21 0;
#X connect 33 0 19 0;
#X connect 35 0 40 1;
#X connect 35 0 50 0;
#X connect 36 0 43 0;
#X connect 39 0 36 0;
#X connect 40 0 34 0;
#X connect 40 0 23 0;
#X connect 40 0 25 0;
#X connect 40 0 46 0;
#X connect 41 0 23 1;
#X connect 42 0 30 0;
#X connect 43 0 38 0;
#X connect 43 0 17 0;
#X connect 44 0 9 0;
#X connect 45 0 8 1;
#X connect 46 0 47 0;
#X connect 46 1 48 0;
#X connect 47 0 25 1;
#X connect 48 0 23 1;
#X connect 52 0 14 0;
#X connect 52 0 14 1;
#X restore 1083 607 pd metrolooper;
#X obj 1131 469 tgl 60 0 empty empty Start_Metro_To_Rec 17 7 0 10 -4032
-1 -1 1 1;
#X floatatom 1283 527 5 0 0 2 BPM - -, f 5;
#X obj 911 672 tgl 25 0 empty empty REC?over 17 7 0 10 -4034 -1 -1
0 1;
#X obj 1099 692 s metro;
#X msg 991 571 16;
#X obj 1148 670 s restartMetro;
#X obj 1048 469 bng 60 250 50 0 empty empty empty 17 7 0 10 -162280
-1 -1;
#X msg 991 515 4;
#X msg 992 543 8;
#X obj 911 610 tgl 15 0 empty empty empty 17 7 0 10 -262144 -1 -1 1
1;
#X floatatom 911 630 5 0 0 0 - - -, f 5;
#X obj 911 549 bng 15 250 50 0 empty empty empty 17 7 0 10 -262144
-1 -1;
#X obj 944 564 tgl 15 0 empty empty empty 17 7 0 10 -262144 -1 -1 0
1;
#X obj 911 587 spigot;
#X obj 18 56 oscparse;
#X obj 18 84 list trim;
#X obj 768 199 route clear on bpm lenght4 lenght8 lenght16 position
;
#X obj 14 198 route v1 v2 v3 v4 v5 v6 v7 v8;
#X obj 210 2 declare -lib zexy;
#X obj 308 261 s rec_ovr;
#X obj 913 512 r rec_ovr;
#X obj 331 232 s volumelooper;
#X obj 443 235 s clearloop;
#X obj 796 533 r clearloop;
#X obj 587 453 r recOSCout;
#X obj 1059 566 s resetMetro;
#X obj 795 507 r resetMetro;
#X obj 602 476 r resetlooprec;
#X obj 796 659 s resetREC;
#X obj 910 708 s armOsc;
#X obj 558 430 r armOsc;
#X obj 12 493 adc~ 1 2 3 4;
#X msg 1282 487 120;
#X obj 1261 454 r resetMetro;
#X obj 13 977 s~ audioOut;
#X obj 814 1229 r~ effects+Audio;
#X obj 29 527 loadbang;
#X obj 1293 570 s bpm;
#X obj 1102 653 + 1;
#N canvas 523 196 735 635 single_eq 0;
#X obj 224 546 outlet~;
#X obj 147 10 inlet oscEQ;
#X obj 148 54 route low lowQ band bandQ high highQ;
#X obj 68 160 inlet~ audio1;
#X obj 563 168 tgl 15 0 empty empty empty 17 7 0 10 -262144 -1 -1 0
1;
#X obj 563 188 switch~;
#X obj 558 22 inlet;
#X obj 560 82 expr if($f1 == 1 \, 0 \, 1);
#X obj 67 389 else/lowpass~ 1000 0.1;
#X obj 215 391 else/bandpass~ 100 0.1;
#X obj 360 390 else/highpass~ 1000 0.1;
#X connect 1 0 2 0;
#X connect 2 0 8 1;
#X connect 2 1 8 2;
#X connect 2 2 9 1;
#X connect 2 3 9 2;
#X connect 2 4 10 1;
#X connect 2 5 10 2;
#X connect 3 0 8 0;
#X connect 3 0 9 0;
#X connect 3 0 10 0;
#X connect 4 0 5 0;
#X connect 6 0 7 0;
#X connect 7 0 4 0;
#X connect 8 0 0 0;
#X connect 9 0 0 0;
#X connect 10 0 0 0;
#X restore 11 696 pd single_eq;
#X obj 51 670 r singleEq;
#N canvas 0 50 450 300 bypassBB 0;
#X obj 195 -4 route 0 1;
#X obj 195 23 bng 15 250 50 0 empty empty empty 17 7 0 10 -262144 -1
-1;
#X obj 220 24 bng 15 250 50 0 empty empty empty 17 7 0 10 -262144 -1
-1;
#X msg 168 65 1;
#X msg 195 65 0;
#X msg 220 65 0;
#X msg 246 65 1;
#X obj 74 218 outlet~;
#X obj 195 -33 inlet;
#X obj 75 -33 inlet~;
#X obj 138 -33 inlet~;
#N canvas 628 268 450 300 pot~ 0;
#X obj -183 96 line~;
#X obj -220 175 *~;
#X obj -182 135 *~;
#X msg -183 69 \$1 20;
#X obj -221 20 inlet~;
#X obj -221 205 outlet~;
#X obj -183 43 inlet;
#X connect 0 0 2 0;
#X connect 0 0 2 1;
#X connect 1 0 5 0;
#X connect 2 0 1 1;
#X connect 3 0 0 0;
#X connect 4 0 1 0;
#X connect 6 0 3 0;
#X restore 74 138 pd pot~;
#N canvas 630 270 450 300 pot~ 0;
#X obj -183 96 line~;
#X obj -220 175 *~;
#X obj -182 135 *~;
#X msg -183 69 \$1 20;
#X obj -221 20 inlet~;
#X obj -221 205 outlet~;
#X obj -183 43 inlet;
#X connect 0 0 2 0;
#X connect 0 0 2 1;
#X connect 1 0 5 0;
#X connect 2 0 1 1;
#X connect 3 0 0 0;
#X connect 4 0 1 0;
#X connect 6 0 3 0;
#X restore 137 138 pd pot~;
#X connect 0 0 1 0;
#X connect 0 1 2 0;
#X connect 1 0 3 0;
#X connect 1 0 4 0;
#X connect 2 0 5 0;
#X connect 2 0 6 0;
#X connect 3 0 11 1;
#X connect 4 0 12 1;
#X connect 5 0 11 1;
#X connect 6 0 12 1;
#X connect 8 0 0 0;
#X connect 9 0 11 0;
#X connect 10 0 12 0;
#X connect 11 0 7 0;
#X connect 12 0 7 0;
#X restore 12 764 pd bypassBB;
#X obj 144 675 tgl 15 1 empty empty empty 17 7 0 10 -258113 -1 -1 1
1;
#X obj 94 638 r bypassEq;
#X obj 178 617 loadbang;
#X msg 176 640 1;
#X obj 1230 629 s BangStopRec;
#N canvas 144 78 1440 683 sendOscToMObileLooper1 0;
#X obj 839 19 s metroPoistion;
#X obj 1009 296 r metroPoistion;
#X obj 840 -2 inlet;
#X obj 113 19 inlet;
#X obj 317 19 inlet;
#X obj 11 20 inlet;
#X obj 213 19 inlet;
#X obj 113 49 route 0 1;
#X obj 212 49 route 0 1;
#X obj 424 657 list prepend send;
#X obj 424 687 list trim;
#X obj 350 735 print;
#X obj 424 717 netsend -u -b;
#X msg 188 682 disconnect;
#X obj 1009 356 oscformat metro position;
#X obj 11 50 s connections;
#X obj 195 576 r connections;
#X obj 22 377 any2list;
#X obj 22 531 s looperColour;
#X obj 386 467 r looperColour;
#X obj 307 427 r metroPosition;
#X obj 1009 386 s metroPosition;
#X msg 115 81 blue;
#X msg 115 110 orange;
#X obj 566 323 any2list;
#X obj 565 295 r symbolText;
#X obj 233 219 s symbolText;
#X obj 566 384 oscformat looper1 symbol;
#X msg 227 138 Arm_To_Record;
#X obj 567 418 s looperSymboltext;
#X obj 391 544 r looperSymboltext;
#X msg 116 140 green;
#X msg 135 176 red;
#X msg 351 110 doubletap_to_Ovrdub;
#X obj 749 352 any2list;
#X obj 749 384 oscformat looper1 symbolRecording;
#X msg 354 154 Recording_Now;
#X obj 350 217 s looperActiveRecordingtext;
#X obj 749 294 r looperActiveRecordingtext;
#X obj 749 418 s looperSymbolRecordingtext;
#X obj 392 568 r looperSymbolRecordingtext;
#X obj 112 215 s looperColours;
#X obj 22 346 r looperColours;
#X msg 222 109 Press_to_Arm;
#X obj 315 51 route 0 1;
#X msg 195 606 connect 192.168.100.30 8002;
#X obj 24 490 oscformat looper1 rec_ovr color;
#X obj 504 -4 inlet undo;
#X obj 589 -6 inlet redo;
#X obj 504 58 oscformat looper1 undo;
#X obj 505 91 s looperUndo;
#X obj 389 515 r looperUndo;
#X obj 588 16 oscformat looper1 redo;
#X obj 587 38 s looperRedo;
#X obj 389 490 r looperRedo;
#X obj 504 28 any2list;
#X obj 980 18 inlet;
#X obj 1184 18 inlet;
#X obj 1080 18 inlet;
#X obj 980 48 route 0 1;
#X obj 1079 48 route 0 1;
#X msg 982 80 blue;
#X msg 982 109 orange;
#X msg 983 139 green;
#X msg 1002 175 red;
#X obj 1182 50 route 0 1;
#X obj 979 214 s looperColours2;
#X msg 1221 153 Recording_Now_ 2;
#X msg 1218 109 doubletap_to_Ovrdub_2;
#X msg 1089 108 Press_to_Arm_2;
#X msg 1094 138 Arm_To_Record_2;
#X obj 1100 218 s symbolText2;
#X obj 1217 216 s looperActiveRecordingtext2;
#X obj 1193 357 any2list;
#X obj 1195 329 r looperColours2;
#X obj 1194 398 oscformat looper2 rec_ovr color;
#X obj 1426 364 any2list;
#X obj 1425 427 s looperSymboltext;
#X obj 1610 365 any2list;
#X obj 1425 336 r symbolText2;
#X obj 1609 335 r looperActiveRecordingtext2;
#X obj 1192 439 s looperColour2;
#X obj 1612 425 s looperSymbolRecordingtext2;
#X obj 1433 31 inlet undo;
#X obj 1604 34 inlet redo;
#X obj 1434 62 any2list;
#X obj 1439 98 oscformat looper2 undo;
#X obj 1607 100 oscformat looper2 redo;
#X obj 1440 131 s looperUndo2;
#X obj 1608 134 s looperRedo2;
#X obj 683 509 r looperRedo2;
#X obj 683 537 r looperUndo2;
#X obj 683 561 r looperColour2;
#X obj 682 584 r looperSymboltext2;
#X obj 682 612 r looperSymbolRecordingtext2;
#X obj 1611 395 oscformat looper1 symbolRecording;
#X obj 1426 397 oscformat looper1 symbol;
#X obj 1862 229 oscformat dsp;
#X obj 1892 257 s statusdsp;
#X obj 311 408 r statusdsp;
#X obj 1657 214 oscformat looper2 countmax;
#X obj 743 167 s looper1countm;
#X obj 1658 248 s looper2countm;
#X obj 539 473 r looper2countm;
#X obj 548 520 r looper1countm;
#X obj 1862 193 r dspStatus;
#X obj 1659 187 r countmax2;
#X obj 744 141 oscformat looper1 countmax;
#X obj 1440 188 r count2;
#X obj 1441 212 oscformat looper2 count;
#X obj 1442 242 s looper2count;
#X obj 551 118 r count1;
#X obj 551 141 oscformat looper1 count;
#X obj 550 164 s looper1count;
#X obj 549 496 r looper1count;
#X obj 541 446 r looper2count;
#X obj 744 117 r countmax1;
#X msg 1009 326 \$1 1 1;
#X obj 1007 430 r metroPoistion;
#X obj 1010 471 oscformat metro countBar;
#X obj 1013 505 s countbar;
#X obj 309 450 r countbar;
#X obj 1010 535 r bar;
#X obj 1008 639 oscformat metro bar;
#X obj 1011 673 s bars;
#X obj 309 482 r bars;
#X obj 725 -5 inlet stop/clear;
#X obj 751 44 oscformat looper1 clear;
#X obj 750 66 s looperClear;
#X obj 417 444 r looperClear;
#X obj 650 448 r looper2Clear;
#X obj 1752 31 inlet stop/clear2;
#X obj 1778 80 oscformat looper2 clear;
#X obj 1777 102 s looper2Clear;
#X connect 1 0 117 0;
#X connect 2 0 0 0;
#X connect 3 0 7 0;
#X connect 4 0 44 0;
#X connect 5 0 15 0;
#X connect 6 0 8 0;
#X connect 7 0 43 0;
#X connect 7 1 23 0;
#X connect 7 1 28 0;
#X connect 8 0 33 0;
#X connect 8 0 31 0;
#X connect 8 1 36 0;
#X connect 8 1 32 0;
#X connect 9 0 10 0;
#X connect 10 0 12 0;
#X connect 12 0 11 0;
#X connect 13 0 12 0;
#X connect 16 0 12 0;
#X connect 17 0 46 0;
#X connect 19 0 9 0;
#X connect 20 0 9 0;
#X connect 22 0 41 0;
#X connect 23 0 41 0;
#X connect 24 0 27 0;
#X connect 25 0 24 0;
#X connect 27 0 29 0;
#X connect 28 0 26 0;
#X connect 30 0 9 0;
#X connect 31 0 41 0;
#X connect 32 0 41 0;
#X connect 33 0 37 0;
#X connect 34 0 35 0;
#X connect 35 0 39 0;
#X connect 36 0 37 0;
#X connect 38 0 34 0;
#X connect 40 0 9 0;
#X connect 42 0 17 0;
#X connect 43 0 26 0;
#X connect 44 0 22 0;
#X connect 45 0 12 0;
#X connect 46 0 18 0;
#X connect 47 0 55 0;
#X connect 48 0 52 0;
#X connect 49 0 50 0;
#X connect 51 0 9 0;
#X connect 52 0 53 0;
#X connect 54 0 9 0;
#X connect 55 0 49 0;
#X connect 56 0 59 0;
#X connect 57 0 65 0;
#X connect 58 0 60 0;
#X connect 59 0 69 0;
#X connect 59 1 62 0;
#X connect 59 1 70 0;
#X connect 60 0 68 0;
#X connect 60 0 63 0;
#X connect 60 1 67 0;
#X connect 60 1 64 0;
#X connect 61 0 66 0;
#X connect 62 0 66 0;
#X connect 63 0 66 0;
#X connect 64 0 66 0;
#X connect 65 0 61 0;
#X connect 67 0 72 0;
#X connect 68 0 72 0;
#X connect 69 0 71 0;
#X connect 70 0 71 0;
#X connect 73 0 75 0;
#X connect 74 0 73 0;
#X connect 75 0 81 0;
#X connect 76 0 96 0;
#X connect 78 0 95 0;
#X connect 79 0 76 0;
#X connect 80 0 78 0;
#X connect 83 0 85 0;
#X connect 84 0 87 0;
#X connect 85 0 86 0;
#X connect 86 0 88 0;
#X connect 87 0 89 0;
#X connect 90 0 9 0;
#X connect 91 0 9 0;
#X connect 92 0 9 0;
#X connect 93 0 9 0;
#X connect 94 0 9 0;
#X connect 95 0 82 0;
#X connect 96 0 77 0;
#X connect 97 0 98 0;
#X connect 99 0 9 0;
#X connect 100 0 102 0;
#X connect 103 0 9 0;
#X connect 104 0 9 0;
#X connect 105 0 97 0;
#X connect 106 0 100 0;
#X connect 107 0 101 0;
#X connect 108 0 109 0;
#X connect 109 0 110 0;
#X connect 111 0 112 0;
#X connect 112 0 113 0;
#X connect 114 0 9 0;
#X connect 115 0 9 0;
#X connect 116 0 107 0;
#X connect 117 0 14 0;
#X connect 118 0 119 0;
#X connect 119 0 120 0;
#X connect 121 0 9 0;
#X connect 122 0 123 0;
#X connect 123 0 124 0;
#X connect 125 0 9 0;
#X connect 126 0 127 0;
#X connect 127 0 128 0;
#X connect 129 0 9 0;
#X connect 130 0 9 0;
#X connect 131 0 132 0;
#X connect 132 0 133 0;
#X restore 548 601 pd sendOscToMObileLooper1;
#X obj 642 502 r metro;
#X obj 846 699 bng 15 250 50 0 empty empty empty 17 7 0 10 -262144
-1 -1;
#X floatatom 846 743 5 0 0 0 - - -, f 5;
#X obj 846 719 del 100;
#X obj 343 481 r BangStopRec;
#X obj 308 432 r~ effects+Audio;
#X obj 310 665 s~ wavelooper;
#X obj 808 1202 r~ wavelooper;
#X obj 393 413 bng 15 250 50 0 empty empty empty 17 7 0 10 -262144
-1 -1;
#X obj 235 329 route 1;
#X obj 407 385 spigot;
#X obj 470 320 tgl 20 0 empty empty Undo 17 7 0 10 -257985 -1 -1 0
1;
#X obj 462 415 bng 15 250 50 0 empty empty empty 17 7 0 10 -262144
-1 -1;
#X obj 460 385 spigot;
#X obj 507 320 tgl 20 0 empty empty Redo 10 7 0 10 -228856 -1 -1 0
1;
#X obj 236 295 r metro;
#X obj 236 554 s recOSCout;
#X obj 421 534 s resetlooprec;
#X obj 758 20 loadbang;
#X msg 781 464 connect 192.168.8.98 8006;
#X obj 548 226 s L1undo;
#X obj 614 228 s L1redo;
#X obj 470 289 r L1undo;
#X obj 506 266 r L1redo;
#X obj 242 196 s looper2;
#X obj 533 753 r looper2;
#X obj 446 832 s rec_ovr2;
#X obj 526 832 s volumelooper2;
#X obj 634 833 s clearloop2;
#X obj 439 980 r~ effects+Audio;
#X obj 602 1037 bng 15 250 50 0 empty empty empty 17 7 0 10 -262144
-1 -1;
#X obj 599 979 route 1;
#X obj 602 1009 spigot;
#X obj 665 944 tgl 20 0 empty empty Undo 17 7 0 10 -257985 -1 -1 0
1;
#X obj 657 1039 bng 15 250 50 0 empty empty empty 17 7 0 10 -262144
-1 -1;
#X obj 655 1009 spigot;
#X obj 702 944 tgl 20 0 empty empty Redo 10 7 0 10 -228856 -1 -1 0
1;
#X obj 600 945 r metro;
#X obj 665 891 r L2redo;
#X obj 665 913 r L2undo;
#X obj 797 832 s L2redo;
#X obj 729 833 s L2undo;
#X obj 976 1034 bng 60 250 50 0 empty empty Clear/Reset_Loop 17 7 0
10 -258113 -1 -1;
#X obj 1145 1154 tgl 25 0 empty empty REC?over 17 7 0 10 -4034 -1 -1
0 1;
#X obj 1145 1092 tgl 15 0 empty empty empty 17 7 0 10 -262144 -1 -1
1 1;
#X floatatom 1145 1112 5 0 0 0 - - -, f 5;
#X obj 1145 1031 bng 15 250 50 0 empty empty empty 17 7 0 10 -262144
-1 -1;
#X obj 1145 1069 spigot;
#X obj 977 981 r resetMetro;
#X obj 1080 1181 bng 15 250 50 0 empty empty empty 17 7 0 10 -262144
-1 -1;
#X floatatom 1080 1225 5 0 0 0 - - -, f 5;
#X obj 1080 1201 del 100;
#X obj 1144 1190 s armOsc2;
#X obj 1056 536 r armOsc2;
#X obj 980 1233 print;
#X obj 981 1172 bng 15 250 50 0 empty empty empty 17 7 0 10 -262144
-1 -1;
#X obj 986 1202 v loopernum;
#N canvas 57 59 1377 803 wavelooper1 0;
#X obj 29 345 writesf~;
#X msg 286 311 stop;
#X obj 285 636 readsf~;
#X obj 29 287 *~ 1;
#X obj 284 488 bng 15 250 50 0 empty empty empty 17 7 0 10 -262144
-1 -1;
#X obj 281 381 bng 15 250 50 0 empty empty empty 17 7 0 10 -262144
-1 -1;
#X msg 440 599 0;
#X msg 106 284 \$1;
#X obj 284 511 v loopernum;
#X msg 284 583 \$1;
#X floatatom 102 241 5 0 0 0 Count - -, f 5;
#X obj 442 368 writesf~;
#X msg 699 313 stop;
#X obj 698 650 readsf~;
#X obj 442 310 *~ 1;
#X obj 699 463 bng 15 250 50 0 empty empty empty 17 7 0 10 -262144
-1 -1;
#X obj 699 374 bng 15 250 50 0 empty empty empty 17 7 0 10 -262144
-1 -1;
#X msg 853 622 0;
#X text 847 601 stop loop;
#X msg 517 296 \$1;
#X msg 697 592 \$1;
#X floatatom 519 245 5 0 0 0 - - -, f 5;
#X obj 97 139 bng 15 250 50 0 empty empty empty 17 7 0 10 -262144 -1
-1;
#X obj 518 131 bng 15 250 50 0 empty empty empty 17 7 0 10 -262144
-1 -1;
#X msg 92 35 0;
#X obj 517 153 v loopernum;
#X obj 518 200 + 1;
#X obj 103 261 route 0;
#X obj 11 0 r resetMetro;
#X obj 322 246 bng 15 250 50 0 empty empty empty 17 7 0 10 -262144
-1 -1;
#X obj 699 294 bng 15 250 50 0 empty empty empty 17 7 0 10 -262144
-1 -1;
#X obj 220 9 inlet;
#X obj 404 7 inlet;
#X obj 25 74 inlet~;
#X obj 29 670 outlet~;
#X obj 571 77 inlet;
#X text 434 578 comment;
#X text 471 71 stop record;
#X text 618 80 stop loops;
#X obj 573 117 s stoploops;
#X obj 835 51 bng 15 250 50 0 empty empty empty 17 7 0 10 -262144 -1
-1;
#X obj 517 269 route 0;
#X obj 836 149 - 1;
#X obj 884 241 v loopernum;
#X obj 836 21 inlet;
#N canvas 780 50 566 300 inverse 0;
#X text 329 30 start record;
#X obj 224 27 bng 15 250 50 0 empty empty empty 17 7 0 10 -262144 -1
-1;
#X obj 221 103 sel;
#X msg 244 43 0;
#X msg 286 41 1;
#X floatatom 238 78 5 0 0 0 - - -, f 5;
#X floatatom 171 71 5 0 0 0 - - -, f 5;
#X obj 221 150 print L;
#X obj 276 122 t b;
#X obj 291 160 print R;
#X obj 227 1 inlet;
#X obj 283 12 inlet;
#X obj 244 208 outlet;
#X obj 310 218 outlet;
#X floatatom 377 221 5 0 0 0 - - -, f 5;
#X msg 427 195 1;
#X obj 385 273 outlet;
#X msg 370 190 0;
#X connect 1 0 6 0;
#X connect 1 0 5 0;
#X connect 2 0 4 0;
#X connect 2 0 7 0;
#X connect 2 0 12 0;
#X connect 2 0 14 0;
#X connect 2 0 17 0;
#X connect 2 1 3 0;
#X connect 2 1 8 0;
#X connect 2 1 15 0;
#X connect 3 0 5 0;
#X connect 4 0 5 0;
#X connect 5 0 2 1;
#X connect 6 0 2 0;
#X connect 8 0 9 0;
#X connect 8 0 13 0;
#X connect 10 0 1 0;
#X connect 11 0 5 0;
#X connect 14 0 16 0;
#X connect 15 0 14 0;
#X connect 17 0 14 0;
#X restore 223 60 pd inverse;
#X obj 220 37 bng 15 250 50 0 empty empty empty 17 7 0 10 -262144 -1
-1;
#X obj 404 34 bng 15 250 50 0 empty empty empty 17 7 0 10 -262144 -1
-1;
#X obj 404 59 v selec;
#X floatatom 405 85 5 0 0 0 - - -, f 5;
#X obj 404 118 route 0 1;
#X obj 876 527 r resetMetro;
#X obj 395 556 r resetMetro;
#X obj 94 78 v loopernum;
#X obj 309 61 v selec;
#X obj 101 170 v loopernum;
#X floatatom 838 174 5 0 0 0 - - -, f 5;
#X obj 937 196 bng 15 250 50 0 empty empty empty 17 7 0 10 -262144
-1 -1;
#X obj 837 310 s resetselec;
#X obj 290 9 r resetselec;
#X obj 835 199 t b b f;
#X obj 102 207 + 1;
#X obj 162 216 v loopernum;
#X floatatom 284 559 5 0 0 0 Count - -, f 5;
#X floatatom 697 567 5 0 0 0 - - -, f 5;
#X obj 739 540 bng 15 250 50 0 empty empty empty 17 7 0 10 -262130
-1 -1;
#X obj 345 567 bng 15 250 50 0 empty empty empty 17 7 0 10 -262130
-1 -1;
#X obj 562 223 v loopernum;
#X obj 700 485 v loopernum;
#X obj 836 115 expr if($f1 <= 2 \, 2 \, $f1);
#X obj 834 77 v loopernum;
#X obj 1035 51 bng 15 250 50 0 empty empty empty 17 7 0 10 -262144
-1 -1;
#X obj 1084 241 v loopernum;
#X obj 1036 21 inlet;
#X floatatom 1038 174 5 0 0 0 - - -, f 5;
#X obj 1037 310 s resetselec;
#X obj 1035 199 t b b f;
#X obj 1035 86 v loopernum;
#X obj 1037 115 + 1;
#X msg 841 269 1;
#X msg 1033 263 0;
#X obj 881 557 r stoploops;
#X obj 396 533 r stoploops;
#X obj 125 768 tgl 15 0 empty empty empty 17 7 0 10 -262144 -1 -1 1
1;
#X msg 162 692 0;
#X obj 171 777 outlet Rec;
#X msg 122 690 1;
#X obj 833 761 outlet resetloop;
#X obj 284 425 del 2;
#X obj 699 430 del 2;
#X msg 105 310 open l1-\$1.wav \, start;
#X msg 516 319 open l1-\$1.wav \, start;
#X msg 284 608 open l1-\$1.wav \, 1;
#X msg 697 619 open l1-\$1.wav \, 1;
#X obj 284 774 outlet count;
#X obj 416 756 expr if($f1>$f2 \, $f1 \, $f2);
#X floatatom 616 717 5 0 0 0 - - -, f 5;
#X obj 676 676 r resetMetro;
#X msg 682 717 1;
#X obj 621 768 outlet countmax;
#X obj 1037 143 expr if($f1>$f2 \, $f2 \, $f1);
#X obj 1291 64 hradio 15 1 0 8 empty empty empty 0 -8 0 10 -262144
-1 -1 1;
#X floatatom 1242 177 5 0 0 0 - - -, f 5;
#X obj 1241 200 t b b f;
#X msg 1239 264 0;
#X obj 1241 126 expr if($f1>$f2 \, $f2 \, $f1);
#X obj 1185 43 bng 15 250 50 0 empty empty empty 17 7 0 10 -262144
-1 -1;
#X obj 1201 7 inlet;
#X obj 1215 41 t b b;
#X obj 1269 99 + 1;
#X obj 1216 77 +;
#X obj 1292 42 - 1;
#X obj 1294 18 r selectl1;
#X obj 1243 311 s resetselec;
#X obj 1290 242 v loopernum;
#X obj 132 11 r deleteL1;
#X obj 187 111 s stoploops;
#X obj 772 675 r deleteL1;
#X connect 1 0 0 0;
#X connect 1 0 5 0;
#X connect 1 0 84 0;
#X connect 2 0 34 0;
#X connect 2 0 11 0;
#X connect 2 1 66 0;
#X connect 3 0 0 0;
#X connect 4 0 8 0;
#X connect 5 0 17 0;
#X connect 5 0 88 0;
#X connect 6 0 2 0;
#X connect 6 0 87 0;
#X connect 7 0 90 0;
#X connect 8 0 63 0;
#X connect 9 0 92 0;
#X connect 10 0 27 0;
#X connect 12 0 11 0;
#X connect 12 0 16 0;
#X connect 12 0 84 0;
#X connect 13 0 0 0;
#X connect 13 0 34 0;
#X connect 13 1 65 0;
#X connect 14 0 11 0;
#X connect 15 0 68 0;
#X connect 16 0 6 0;
#X connect 16 0 89 0;
#X connect 17 0 13 0;
#X connect 17 0 87 0;
#X connect 19 0 91 0;
#X connect 20 0 93 0;
#X connect 21 0 41 0;
#X connect 22 0 55 0;
#X connect 23 0 25 0;
#X connect 24 0 45 1;
#X connect 24 0 53 0;
#X connect 24 0 116 0;
#X connect 25 0 26 0;
#X connect 26 0 21 0;
#X connect 26 0 67 0;
#X connect 27 1 7 0;
#X connect 28 0 24 0;
#X connect 29 0 1 0;
#X connect 30 0 12 0;
#X connect 31 0 46 0;
#X connect 32 0 47 0;
#X connect 33 0 3 0;
#X connect 33 0 14 0;
#X connect 35 0 39 0;
#X connect 40 0 70 0;
#X connect 41 1 19 0;
#X connect 42 0 56 0;
#X connect 44 0 40 0;
#X connect 45 0 22 0;
#X connect 45 1 23 0;
#X connect 45 2 54 0;
#X connect 46 0 45 0;
#X connect 47 0 48 0;
#X connect 48 0 49 0;
#X connect 49 0 50 0;
#X connect 50 0 29 0;
#X connect 50 1 30 0;
#X connect 51 0 17 0;
#X connect 52 0 6 0;
#X connect 55 0 61 0;
#X connect 56 0 60 0;
#X connect 57 0 43 0;
#X connect 59 0 45 1;
#X connect 60 0 79 0;
#X connect 60 1 8 0;
#X connect 60 1 17 0;
#X connect 60 2 43 0;
#X connect 61 0 10 0;
#X connect 61 0 62 0;
#X connect 63 0 9 0;
#X connect 63 0 94 0;
#X connect 63 0 95 0;
#X connect 64 0 20 0;
#X connect 64 0 94 0;
#X connect 64 0 95 0;
#X connect 65 0 64 0;
#X connect 66 0 63 0;
#X connect 68 0 64 0;
#X connect 69 0 42 0;
#X connect 70 0 69 0;
#X connect 71 0 77 0;
#X connect 73 0 71 0;
#X connect 74 0 76 0;
#X connect 76 0 6 0;
#X connect 76 0 80 0;
#X connect 76 1 68 0;
#X connect 76 2 72 0;
#X connect 77 0 78 0;
#X connect 78 0 100 0;
#X connect 79 0 58 0;
#X connect 80 0 75 0;
#X connect 81 0 17 0;
#X connect 82 0 6 0;
#X connect 83 0 85 0;
#X connect 84 0 83 0;
#X connect 86 0 83 0;
#X connect 88 0 4 0;
#X connect 89 0 15 0;
#X connect 90 0 0 0;
#X connect 90 0 86 0;
#X connect 91 0 11 0;
#X connect 91 0 86 0;
#X connect 92 0 2 0;
#X connect 93 0 13 0;
#X connect 95 0 96 0;
#X connect 96 0 95 1;
#X connect 96 0 99 0;
#X connect 96 0 100 1;
#X connect 96 0 105 1;
#X connect 97 0 98 0;
#X connect 98 0 96 0;
#X connect 100 0 74 0;
#X connect 101 0 110 1;
#X connect 102 0 103 0;
#X connect 103 0 104 0;
#X connect 103 0 6 0;
#X connect 103 1 68 0;
#X connect 103 2 114 0;
#X connect 104 0 113 0;
#X connect 105 0 102 0;
#X connect 106 0 108 0;
#X connect 107 0 106 0;
#X connect 108 0 110 0;
#X connect 108 1 101 0;
#X connect 109 0 105 0;
#X connect 110 0 109 0;
#X connect 111 0 101 0;
#X connect 112 0 111 0;
#X connect 115 0 24 0;
#X connect 117 0 98 0;
#X restore 309 533 pd wavelooper1;
#X obj 547 1276 s~ wavelooper2;
#X obj 818 1180 r~ wavelooper2;
#N canvas 1 112 1425 723 wavelooper2 0;
#X obj 29 345 writesf~;
#X msg 286 311 stop;
#X obj 284 640 readsf~;
#X obj 29 287 *~ 1;
#X obj 284 488 bng 15 250 50 0 empty empty empty 17 7 0 10 -262144
-1 -1;
#X obj 281 381 bng 15 250 50 0 empty empty empty 17 7 0 10 -262144
-1 -1;
#X msg 440 599 0;
#X msg 106 284 \$1;
#X msg 284 583 \$1;
#X floatatom 102 241 5 0 0 0 Count - -, f 5;
#X obj 442 368 writesf~;
#X msg 699 313 stop;
#X obj 698 650 readsf~;
#X obj 442 310 *~ 1;
#X obj 699 463 bng 15 250 50 0 empty empty empty 17 7 0 10 -262144
-1 -1;
#X obj 699 374 bng 15 250 50 0 empty empty empty 17 7 0 10 -262144
-1 -1;
#X msg 853 622 0;
#X text 847 601 stop loop;
#X msg 517 296 \$1;
#X msg 697 592 \$1;
#X floatatom 519 245 5 0 0 0 - - -, f 5;
#X obj 97 139 bng 15 250 50 0 empty empty empty 17 7 0 10 -262144 -1
-1;
#X obj 518 131 bng 15 250 50 0 empty empty empty 17 7 0 10 -262144
-1 -1;
#X msg 92 35 0;
#X obj 518 200 + 1;
#X obj 103 261 route 0;
#X obj 91 7 r resetMetro;
#X obj 322 246 bng 15 250 50 0 empty empty empty 17 7 0 10 -262144
-1 -1;
#X obj 699 294 bng 15 250 50 0 empty empty empty 17 7 0 10 -262144
-1 -1;
#X obj 220 9 inlet;
#X obj 404 7 inlet;
#X obj 25 74 inlet~;
#X obj 29 670 outlet~;
#X obj 571 77 inlet;
#X text 434 578 comment;
#X text 471 71 stop record;
#X text 618 80 stop loops;
#X obj 835 51 bng 15 250 50 0 empty empty empty 17 7 0 10 -262144 -1
-1;
#X obj 517 269 route 0;
#X obj 836 149 - 1;
#X obj 836 21 inlet;
#N canvas 780 50 566 300 inverse 0;
#X text 329 30 start record;
#X obj 224 27 bng 15 250 50 0 empty empty empty 17 7 0 10 -262144 -1
-1;
#X obj 221 103 sel;
#X msg 244 43 0;
#X msg 286 41 1;
#X floatatom 238 78 5 0 0 0 - - -, f 5;
#X floatatom 171 71 5 0 0 0 - - -, f 5;
#X obj 221 150 print L;
#X obj 276 122 t b;
#X obj 291 160 print R;
#X obj 227 1 inlet;
#X obj 283 12 inlet;
#X obj 244 208 outlet;
#X obj 310 218 outlet;
#X floatatom 377 221 5 0 0 0 - - -, f 5;
#X msg 427 195 1;
#X obj 385 273 outlet;
#X msg 370 190 0;
#X connect 1 0 6 0;
#X connect 1 0 5 0;
#X connect 2 0 4 0;
#X connect 2 0 7 0;
#X connect 2 0 12 0;
#X connect 2 0 14 0;
#X connect 2 0 17 0;
#X connect 2 1 3 0;
#X connect 2 1 8 0;
#X connect 2 1 15 0;
#X connect 3 0 5 0;
#X connect 4 0 5 0;
#X connect 5 0 2 1;
#X connect 6 0 2 0;
#X connect 8 0 9 0;
#X connect 8 0 13 0;
#X connect 10 0 1 0;
#X connect 11 0 5 0;
#X connect 14 0 16 0;
#X connect 15 0 14 0;
#X connect 17 0 14 0;
#X restore 223 60 pd inverse;
#X obj 220 37 bng 15 250 50 0 empty empty empty 17 7 0 10 -262144 -1
-1;
#X obj 404 34 bng 15 250 50 0 empty empty empty 17 7 0 10 -262144 -1
-1;
#X floatatom 405 85 5 0 0 0 - - -, f 5;
#X obj 404 118 route 0 1;
#X obj 876 527 r resetMetro;
#X floatatom 838 174 5 0 0 0 - - -, f 5;
#X obj 937 196 bng 15 250 50 0 empty empty empty 17 7 0 10 -262144
-1 -1;
#X obj 835 199 t b b f;
#X obj 102 207 + 1;
#X floatatom 284 559 5 0 0 0 Count - -, f 5;
#X floatatom 700 521 5 0 0 0 - - -, f 5;
#X obj 739 540 bng 15 250 50 0 empty empty empty 17 7 0 10 -262130
-1 -1;
#X obj 345 567 bng 15 250 50 0 empty empty empty 17 7 0 10 -262130
-1 -1;
#X obj 945 293 print;
#X obj 836 115 expr if($f1 <= 2 \, 2 \, $f1);
#X obj 1035 51 bng 15 250 50 0 empty empty empty 17 7 0 10 -262144
-1 -1;
#X obj 1036 21 inlet;
#X floatatom 1038 174 5 0 0 0 - - -, f 5;
#X obj 1035 199 t b b f;
#X obj 1037 109 + 1;
#X msg 841 269 1;
#X msg 1033 263 0;
#X obj 125 768 tgl 15 0 empty empty empty 17 7 0 10 -262144 -1 -1 0
1;
#X msg 162 692 0;
#X msg 122 690 1;
#X obj 284 425 del 2;
#X obj 699 430 del 2;
#X obj 94 78 v loopernum2;
#X obj 101 170 v loopernum2;
#X obj 162 217 v loopernum2;
#X obj 157 239 print loopernum2;
#X obj 284 511 v loopernum2;
#X obj 700 485 v loopernum2;
#X obj 562 223 v loopernum2;
#X obj 517 153 v loopernum2;
#X obj 834 77 v loopernum2;
#X obj 884 241 v loopernum2;
#X obj 1084 241 v loopernum2;
#X obj 1036 75 v loopernum2;
#X obj 309 61 v selec2;
#X obj 404 59 v selec2;
#X obj 837 310 s resetselec2;
#X obj 1037 310 s resetselec2;
#X obj 573 117 s stoploops2;
#X obj 396 533 r stoploops2;
#X obj 395 556 r resetMetro;
#X obj 881 557 r stoploops2;
#X obj 171 777 outlet Rec2;
#X obj 864 769 outlet resetloop2;
#X obj 290 9 r resetselec2;
#X msg 104 310 open l2-\$1.wav \, start;
#X msg 284 608 open l2-\$1.wav \, 1;
#X msg 516 319 open l2-\$1.wav \, start;
#X msg 697 619 open l2-\$1.wav \, 1;
#X obj 284 774 outlet count;
#X obj 430 738 expr if($f1>$f2 \, $f1 \, $f2);
#X floatatom 616 717 5 0 0 0 - - -, f 5;
#X obj 676 676 r resetMetro;
#X msg 682 717 1;
#X obj 621 768 outlet countmax;
#X obj 1037 143 expr if($f1>$f2 \, $f2 \, $f1);
#X obj 1291 64 hradio 15 1 0 8 empty empty empty 0 -8 0 10 -262144
-1 -1 1;
#X floatatom 1242 177 5 0 0 0 - - -, f 5;
#X obj 1241 200 t b b f;
#X msg 1239 264 0;
#X obj 1290 242 v loopernum2;
#X obj 1243 311 s resetselec2;
#X obj 1241 126 expr if($f1>$f2 \, $f2 \, $f1);
#X obj 1185 43 bng 15 250 50 0 empty empty empty 17 7 0 10 -262144
-1 -1;
#X obj 1201 7 inlet;
#X obj 1215 41 t b b;
#X obj 1269 99 + 1;
#X obj 1216 77 +;
#X obj 1294 18 r selectl2;
#X obj 1292 42 - 1;
#X obj 134 17 r deleteL2;
#X obj 232 115 s stoploops2;
#X obj 767 674 r deleteL2;
#X connect 1 0 0 0;
#X connect 1 0 5 0;
#X connect 1 0 65 0;
#X connect 2 0 32 0;
#X connect 2 0 10 0;
#X connect 2 1 54 0;
#X connect 3 0 0 0;
#X connect 4 0 73 0;
#X connect 5 0 16 0;
#X connect 5 0 67 0;
#X connect 6 0 2 0;
#X connect 6 0 90 0;
#X connect 7 0 92 0;
#X connect 8 0 93 0;
#X connect 9 0 25 0;
#X connect 11 0 10 0;
#X connect 11 0 15 0;
#X connect 11 0 65 0;
#X connect 12 0 0 0;
#X connect 12 0 32 0;
#X connect 12 1 53 0;
#X connect 13 0 10 0;
#X connect 14 0 74 0;
#X connect 15 0 6 0;
#X connect 15 0 68 0;
#X connect 16 0 12 0;
#X connect 16 0 90 0;
#X connect 18 0 94 0;
#X connect 19 0 95 0;
#X connect 20 0 38 0;
#X connect 21 0 70 0;
#X connect 22 0 76 0;
#X connect 23 0 41 1;
#X connect 23 0 69 0;
#X connect 23 0 118 0;
#X connect 24 0 20 0;
#X connect 24 0 75 0;
#X connect 25 1 7 0;
#X connect 26 0 23 0;
#X connect 27 0 1 0;
#X connect 28 0 11 0;
#X connect 29 0 42 0;
#X connect 30 0 43 0;
#X connect 31 0 3 0;
#X connect 31 0 13 0;
#X connect 33 0 85 0;
#X connect 37 0 77 0;
#X connect 38 1 18 0;
#X connect 39 0 47 0;
#X connect 40 0 37 0;
#X connect 41 0 21 0;
#X connect 41 1 22 0;
#X connect 41 2 81 0;
#X connect 42 0 41 0;
#X connect 43 0 82 0;
#X connect 44 0 45 0;
#X connect 45 0 27 0;
#X connect 45 1 28 0;
#X connect 46 0 16 0;
#X connect 47 0 49 0;
#X connect 48 0 78 0;
#X connect 49 0 62 0;
#X connect 49 1 16 0;
#X connect 49 1 73 0;
#X connect 49 2 78 0;
#X connect 50 0 9 0;
#X connect 50 0 71 0;
#X connect 50 0 72 0;
#X connect 51 0 8 0;
#X connect 51 0 96 0;
#X connect 51 0 97 0;
#X connect 52 0 19 0;
#X connect 52 0 96 0;
#X connect 52 0 97 0;
#X connect 53 0 52 0;
#X connect 54 0 51 0;
#X connect 56 0 39 0;
#X connect 57 0 80 0;
#X connect 58 0 57 0;
#X connect 59 0 60 0;
#X connect 60 0 6 0;
#X connect 60 0 63 0;
#X connect 60 1 74 0;
#X connect 60 2 79 0;
#X connect 61 0 102 0;
#X connect 62 0 83 0;
#X connect 63 0 84 0;
#X connect 64 0 89 0;
#X connect 65 0 64 0;
#X connect 66 0 64 0;
#X connect 67 0 4 0;
#X connect 68 0 14 0;
#X connect 70 0 50 0;
#X connect 73 0 51 0;
#X connect 74 0 52 0;
#X connect 76 0 24 0;
#X connect 77 0 56 0;
#X connect 78 0 55 0;
#X connect 80 0 61 0;
#X connect 82 0 44 0;
#X connect 86 0 6 0;
#X connect 87 0 6 0;
#X connect 88 0 16 0;
#X connect 91 0 41 1;
#X connect 92 0 0 0;
#X connect 92 0 66 0;
#X connect 93 0 2 0;
#X connect 94 0 10 0;
#X connect 94 0 66 0;
#X connect 95 0 12 0;
#X connect 97 0 98 0;
#X connect 98 0 97 1;
#X connect 98 0 101 0;
#X connect 98 0 102 1;
#X connect 98 0 109 1;
#X connect 99 0 100 0;
#X connect 100 0 98 0;
#X connect 102 0 59 0;
#X connect 103 0 114 1;
#X connect 104 0 105 0;
#X connect 105 0 106 0;
#X connect 105 0 6 0;
#X connect 105 1 74 0;
#X connect 105 2 107 0;
#X connect 106 0 108 0;
#X connect 109 0 104 0;
#X connect 110 0 112 0;
#X connect 111 0 110 0;
#X connect 112 0 114 0;
#X connect 112 1 103 0;
#X connect 113 0 109 0;
#X connect 114 0 113 0;
#X connect 115 0 116 0;
#X connect 116 0 103 0;
#X connect 117 0 23 0;
#X connect 119 0 100 0;
#X restore 538 1086 pd wavelooper2;
#X obj 1334 493 loadbang;
#X obj 499 1025 r BangStopRec2;
#X obj 978 1007 r clearloop2;
#X obj 964 841 spigot;
#X obj 1046 840 spigot;
#X obj 1005 816 tgl 15 0 empty empty empty 17 7 0 10 -262144 -1 -1
0 1;
#X obj 1084 814 tgl 15 0 empty empty empty 17 7 0 10 -262144 -1 -1
0 1;
#X obj 963 882 s RecLooperBang;
#X obj 322 456 r RecLooperBang;
#X obj 463 1004 r RecLooperBang2;
#X obj 1081 884 s RecLooperBang2;
#X obj 1004 783 r armOsc;
#X obj 1085 782 r armOsc2;
#X obj 955 629 r RecLooperBang;
#X obj 1196 1110 r RecLooperBang2;
#X obj 1238 845 spigot;
#X obj 1320 844 spigot;
#X obj 1279 820 tgl 15 0 empty empty empty 17 7 0 10 -262144 -1 -1
0 1;
#X obj 1358 818 tgl 15 0 empty empty empty 17 7 0 10 -262144 -1 -1
0 1;
#X obj 1237 886 s BangStopRec;
#X obj 1355 888 s BangStopRec2;
#X obj 657 525 r armOsc2;
#X obj 673 543 r recOSCout2;
#X obj 684 571 r resetlooprec2;
#X obj 565 1158 s recOSCout2;
#X obj 672 1095 s resetlooprec2;
#X obj 1147 994 r rec_ovr2;
#X obj 1175 1040 tgl 15 0 empty empty empty 17 7 0 10 -262144 -1 -1
0 1;
#X obj 759 72 tgl 15 0 empty empty empty 17 7 0 10 -262144 -1 -1 1
1;
#X msg 760 97 \; pd dsp \$1;
#X obj 760 147 s dspStatus;
#X obj 32 121 s routing;
#X obj 825 20 r routing;
#X obj 779 46 route dsp;
#X obj 544 1231 *~;
#X obj 565 1180 r volumelooper2;
#X floatatom 557 1208 5 0 0 0 - - -, f 5;
#X obj 309 621 *~;
#X floatatom 322 598 5 0 0 0 - - -, f 5;
#X obj 323 577 r volumelooper;
#X obj 576 1130 s count2;
#X obj 655 1140 s countmax2;
#X obj 391 622 s count1;
#X obj 438 581 s countmax1;
#X obj 729 1038 bng 15 250 50 0 empty empty empty 17 7 0 10 -262144
-1 -1;
#X obj 727 1008 spigot;
#X obj 746 943 tgl 20 0 empty empty LoopSelect 10 7 0 10 -261682 -1
-1 0 1;
#X obj 870 959 s selectl2;
#X obj 870 833 list prepend;
#X floatatom 872 932 5 0 0 0 - - -, f 5;
#X msg 872 854 \$2;
#X obj 528 414 bng 15 250 50 0 empty empty empty 17 7 0 10 -262144
-1 -1;
#X obj 526 384 spigot;
#X obj 545 319 tgl 20 0 empty empty LoopSelect 10 7 0 10 -261682 -1
-1 0 1;
#X floatatom 689 346 5 0 0 0 - - -, f 5;
#X obj 683 370 s selectl1;
#X msg 29 553 1;
#N canvas 508 316 771 456 routes 0;
#X obj 455 59 route harmonizer;
#X obj 24 86 s singleEq;
#X obj 104 89 s bypassEq;
#X obj 188 89 s bypassReverb;
#X obj 25 5 r routing;
#X obj 24 60 route singleEq bypassEq bypassReverb bypassHam;
#X obj 299 93 s bypassHam;
#X obj 24 248 route bypassEcho quarter eight triplet;
#X obj 25 219 route echo;
#X obj 24 278 s bypassEcho;
#X obj 118 279 s quarter;
#X obj 193 278 s eight;
#X obj 252 279 s triplet;
#X obj 464 263 s eq;
#X obj 464 233 route eq channelselect;
#X obj 541 259 list prepend;
#X msg 544 284 \$2;
#X obj 593 284 any2list;
#X obj 659 284 route symbol;
#X obj 458 97 s hmroutes;
#X connect 0 0 19 0;
#X connect 4 0 5 0;
#X connect 4 0 0 0;
#X connect 4 0 8 0;
#X connect 4 0 14 0;
#X connect 5 0 1 0;
#X connect 5 1 2 0;
#X connect 5 2 3 0;
#X connect 5 3 6 0;
#X connect 7 0 9 0;
#X connect 7 1 10 0;
#X connect 7 2 11 0;
#X connect 7 3 12 0;
#X connect 8 0 7 0;
#X connect 14 0 13 0;
#X connect 14 1 15 0;
#X connect 15 0 16 0;
#X connect 16 0 17 0;
#X connect 17 0 18 0;
#X restore 213 30 pd routes;
#X obj 728 254 list prepend;
#X msg 701 262 \$2;
#X obj 702 325 atoi;
#X obj 871 907 atoi;
#X obj 16 135 route input metro looper1 looper2 connection;
#X obj 316 172 s connection;
#X obj 766 278 r connection;
#X obj 326 189 route rec_ovr volume clear undo redo countarm countselect
delete, f 62;
#X obj 709 229 s deleteL1;
#X obj 530 790 route rec_ovr volume clear undo redo countarm countselect
delete;
#X obj 787 860 s deleteL2;
#X obj 765 310 route 1;
#X msg 767 434 connect 192.168.2.7 8005;
#X obj 591 411 bng 15 250 50 0 empty empty empty 17 7 0 10 -262144
-1 -1;
#X obj 589 381 spigot;
#X obj 608 280 r clearloop;
#X obj 626 320 tgl 20 0 empty empty Stop/clear 10 7 0 10 -260097 -1
-1 0 1;
#X obj 786 1039 bng 15 250 50 0 empty empty empty 17 7 0 10 -262144
-1 -1;
#X obj 784 1009 spigot;
#X obj 790 943 tgl 20 0 empty empty Stop/clear 10 7 0 10 -260097 -1
-1 0 1;
#X obj 785 911 r clearloop2;
#N canvas 302 69 793 662 effects 0;
#X obj 27 28 r~ audioOut;
#X obj 102 509 s~ effects+Audio;
#N canvas 0 50 450 300 bypassBB 0;
#X obj 195 -4 route 0 1;
#X obj 195 23 bng 15 250 50 0 empty empty empty 17 7 0 10 -262144 -1
-1;
#X obj 220 24 bng 15 250 50 0 empty empty empty 17 7 0 10 -262144 -1
-1;
#X msg 168 65 1;
#X msg 195 65 0;
#X msg 220 65 0;
#X msg 246 65 1;
#X obj 74 218 outlet~;
#X obj 195 -33 inlet;
#X obj 75 -33 inlet~;
#X obj 138 -33 inlet~;
#N canvas 628 268 450 300 pot~ 0;
#X obj -183 96 line~;
#X obj -220 175 *~;
#X obj -182 135 *~;
#X msg -183 69 \$1 20;
#X obj -221 20 inlet~;
#X obj -221 205 outlet~;
#X obj -183 43 inlet;
#X connect 0 0 2 0;
#X connect 0 0 2 1;
#X connect 1 0 5 0;
#X connect 2 0 1 1;
#X connect 3 0 0 0;
#X connect 4 0 1 0;
#X connect 6 0 3 0;
#X restore 74 138 pd pot~;
#N canvas 630 270 450 300 pot~ 0;
#X obj -183 96 line~;
#X obj -220 175 *~;
#X obj -182 135 *~;
#X msg -183 69 \$1 20;
#X obj -221 20 inlet~;
#X obj -221 205 outlet~;
#X obj -183 43 inlet;
#X connect 0 0 2 0;
#X connect 0 0 2 1;
#X connect 1 0 5 0;
#X connect 2 0 1 1;
#X connect 3 0 0 0;
#X connect 4 0 1 0;
#X connect 6 0 3 0;
#X restore 137 138 pd pot~;
#X connect 0 0 1 0;
#X connect 0 1 2 0;
#X connect 1 0 3 0;
#X connect 1 0 4 0;
#X connect 2 0 5 0;
#X connect 2 0 6 0;
#X connect 3 0 11 1;
#X connect 4 0 12 1;
#X connect 5 0 11 1;
#X connect 6 0 12 1;
#X connect 8 0 0 0;
#X connect 9 0 11 0;
#X connect 10 0 12 0;
#X connect 11 0 7 0;
#X connect 12 0 7 0;
#X restore 98 350 pd bypassBB;
#X msg 274 214 60000;
#X obj 291 280 /;
#X obj 98 316 *~ 0.5;
#X obj 276 158 r bpm;
#X msg 289 243 \$1;
#X obj 276 188 bang;
#X msg 323 214 30000;
#X msg 381 229 45000;
#X obj 345 259 r bypassEcho;
#X obj 274 130 r quarter;
#X obj 349 130 r eight;
#X obj 382 194 r triplet;
#N canvas 0 50 450 300 bypassBB 0;
#X obj 195 -4 route 0 1;
#X obj 195 23 bng 15 250 50 0 empty empty empty 17 7 0 10 -262144 -1
-1;
#X obj 220 24 bng 15 250 50 0 empty empty empty 17 7 0 10 -262144 -1
-1;
#X msg 168 65 1;
#X msg 195 65 0;
#X msg 220 65 0;
#X msg 246 65 1;
#X obj 74 218 outlet~;
#X obj 195 -33 inlet;
#X obj 75 -33 inlet~;
#X obj 138 -33 inlet~;
#N canvas 628 268 450 300 pot~ 0;
#X obj -183 96 line~;
#X obj -220 175 *~;
#X obj -182 135 *~;
#X msg -183 69 \$1 20;
#X obj -221 20 inlet~;
#X obj -221 205 outlet~;
#X obj -183 43 inlet;
#X connect 0 0 2 0;
#X connect 0 0 2 1;
#X connect 1 0 5 0;
#X connect 2 0 1 1;
#X connect 3 0 0 0;
#X connect 4 0 1 0;
#X connect 6 0 3 0;
#X restore 74 138 pd pot~;
#N canvas 630 270 450 300 pot~ 0;
#X obj -183 96 line~;
#X obj -220 175 *~;
#X obj -182 135 *~;
#X msg -183 69 \$1 20;
#X obj -221 20 inlet~;
#X obj -221 205 outlet~;
#X obj -183 43 inlet;
#X connect 0 0 2 0;
#X connect 0 0 2 1;
#X connect 1 0 5 0;
#X connect 2 0 1 1;
#X connect 3 0 0 0;
#X connect 4 0 1 0;
#X connect 6 0 3 0;
#X restore 137 138 pd pot~;
#X connect 0 0 1 0;
#X connect 0 1 2 0;
#X connect 1 0 3 0;
#X connect 1 0 4 0;
#X connect 2 0 5 0;
#X connect 2 0 6 0;
#X connect 3 0 11 1;
#X connect 4 0 12 1;
#X connect 5 0 11 1;
#X connect 6 0 12 1;
#X connect 8 0 0 0;
#X connect 9 0 11 0;
#X connect 10 0 12 0;
#X connect 11 0 7 0;
#X connect 12 0 7 0;
#X restore 100 453 pd bypassBB;
#X obj 187 410 tgl 15 1 empty empty empty 17 7 0 10 -258113 -1 -1 1
1;
#X obj 188 334 r bypassReverb;
#X obj 276 310 tgl 15 1 empty empty empty 17 7 0 10 -258113 -1 -1 1
1;
#X obj 366 278 loadbang;
#X msg 367 302 1;
#N canvas 226 105 450 300 reverb 0;
#X obj 83 140 freeverb~;
#X obj 45 65 inlet~;
#X obj 32 212 outlet~;
#X obj 240 176 tgl 15 0 empty empty empty 17 7 0 10 -262144 -1 -1 0
1;
#X obj 240 196 switch~;
#X obj 235 30 inlet;
#X obj 237 90 expr if($f1 == 1 \, 0 \, 1);
#X connect 0 0 2 0;
#X connect 0 1 2 0;
#X connect 1 0 0 0;
#X connect 1 0 0 1;
#X connect 1 0 2 0;
#X connect 3 0 4 0;
#X connect 5 0 6 0;
#X connect 6 0 3 0;
#X restore 99 398 pd reverb;
#X obj 195 357 loadbang;
#X msg 195 384 1;
#X obj 97 287 nusmuk-audio/echo~ 592 0.2;
#X obj 29 76 octaver-harmonizer(p);
#N canvas 0 50 450 300 bypassBB 0;
#X obj 195 -4 route 0 1;
#X obj 195 23 bng 15 250 50 0 empty empty empty 17 7 0 10 -262144 -1
-1;
#X obj 220 24 bng 15 250 50 0 empty empty empty 17 7 0 10 -262144 -1
-1;
#X msg 168 65 1;
#X msg 195 65 0;
#X msg 220 65 0;
#X msg 246 65 1;
#X obj 74 218 outlet~;
#X obj 195 -33 inlet;
#X obj 75 -33 inlet~;
#X obj 138 -33 inlet~;
#N canvas 628 268 450 300 pot~ 0;
#X obj -183 96 line~;
#X obj -220 175 *~;
#X obj -182 135 *~;
#X msg -183 69 \$1 20;
#X obj -221 20 inlet~;
#X obj -221 205 outlet~;
#X obj -183 43 inlet;
#X connect 0 0 2 0;
#X connect 0 0 2 1;
#X connect 1 0 5 0;
#X connect 2 0 1 1;
#X connect 3 0 0 0;
#X connect 4 0 1 0;
#X connect 6 0 3 0;
#X restore 74 138 pd pot~;
#N canvas 630 270 450 300 pot~ 0;
#X obj -183 96 line~;
#X obj -220 175 *~;
#X obj -182 135 *~;
#X msg -183 69 \$1 20;
#X obj -221 20 inlet~;
#X obj -221 205 outlet~;
#X obj -183 43 inlet;
#X connect 0 0 2 0;
#X connect 0 0 2 1;
#X connect 1 0 5 0;
#X connect 2 0 1 1;
#X connect 3 0 0 0;
#X connect 4 0 1 0;
#X connect 6 0 3 0;
#X restore 137 138 pd pot~;
#X connect 0 0 1 0;
#X connect 0 1 2 0;
#X connect 1 0 3 0;
#X connect 1 0 4 0;
#X connect 2 0 5 0;
#X connect 2 0 6 0;
#X connect 3 0 11 1;
#X connect 4 0 12 1;
#X connect 5 0 11 1;
#X connect 6 0 12 1;
#X connect 8 0 0 0;
#X connect 9 0 11 0;
#X connect 10 0 12 0;
#X connect 11 0 7 0;
#X connect 12 0 7 0;
#X restore 93 227 pd bypassBB;
#X obj 236 107 tgl 15 1 empty empty empty 17 7 0 10 -258113 -1 -1 1
1;
#X obj 244 54 loadbang;
#X msg 244 81 1;
#X obj 237 31 r bypassHam;
#X obj 110 25 r hmroutes;
#X connect 0 0 25 0;
#X connect 0 0 26 1;
#X connect 2 0 15 1;
#X connect 2 0 21 0;
#X connect 3 0 4 0;
#X connect 4 0 24 1;
#X connect 5 0 2 0;
#X connect 6 0 7 0;
#X connect 6 0 8 0;
#X connect 7 0 4 1;
#X connect 8 0 3 0;
#X connect 9 0 4 0;
#X connect 10 0 4 0;
#X connect 11 0 18 0;
#X connect 12 0 3 0;
#X connect 13 0 9 0;
#X connect 14 0 10 0;
#X connect 15 0 1 0;
#X connect 16 0 15 2;
#X connect 16 0 21 1;
#X connect 17 0 16 0;
#X connect 18 0 2 2;
#X connect 18 0 24 3;
#X connect 19 0 20 0;
#X connect 20 0 18 0;
#X connect 21 0 15 0;
#X connect 22 0 23 0;
#X connect 23 0 16 0;
#X connect 24 0 5 0;
#X connect 25 0 26 0;
#X connect 25 0 2 0;
#X connect 26 0 24 0;
#X connect 26 0 2 1;
#X connect 27 0 25 2;
#X connect 27 0 26 2;
#X connect 28 0 29 0;
#X connect 29 0 27 0;
#X connect 30 0 27 0;
#X connect 31 0 25 1;
#X restore 12 1046 pd effects;
#X obj 252 846 readsf~;
#X msg 241 805 start;
#X msg 286 805 stop;
#X obj 229 772 bng 15 250 50 0 empty empty empty 17 7 0 10 -262144
-1 -1;
#X obj 219 729 threshold~ 1 100 0.1 100;
#X msg 272 764 open ./drum/kicks/Bass-Drum-1.wav;
#X obj 357 977 vsl 18 80 -100 0 0 0 empty empty empty 0 -9 0 10 -228856
-1 -1 0 1;
#X text 20 1115 3) float;
#X text 20 1085 1) float;
#X text 20 1100 2) float;
#X text 85 1115 - attack time in ms (default 10), f 46;
#X text 85 1100 - attenuation ratio (default 1), f 46;
#X text 85 1130 - release time in ms (default 10), f 46;
#X text 85 1085 - threshold in dB (default -10), f 46;
#X text 85 1145 - output gain adjustment in dB (default 0), f 46;
#X text 20 1130 4) float;
#X text 20 1145 5) float;
#X text 20 1161 6) float;
#X text 85 1161 - rms average size in samples (default 512), f 46
;
#X obj 145 928 else/compress~ -50 2 50 50 12 256;
#X msg 780 364 connect 192.168.100.62 8006;
#X obj 16 26 netreceive -u -b 7000;
#X msg 811 400 connect 192.168.100.30 8006;
#X obj 365 4 declare -lib list-abs;
#X obj 813 341 print ff;
#X obj 52 127 list-l2s;
#X obj 701 290 list-l2s;
#X obj 871 878 list-l2s;
#X connect 0 0 46 0;
#X connect 0 0 48 1;
#X connect 2 0 200 0;
#X connect 5 0 56 0;
#X connect 6 0 119 0;
#X connect 6 0 120 0;
#X connect 6 1 45 0;
#X connect 6 2 12 0;
#X connect 6 3 131 0;
#X connect 6 3 132 0;
#X connect 7 0 6 3;
#X connect 8 0 6 4;
#X connect 8 0 44 0;
#X connect 9 0 36 0;
#X connect 9 0 6 1;
#X connect 11 0 6 0;
#X connect 13 0 6 2;
#X connect 13 0 32 0;
#X connect 14 0 6 0;
#X connect 15 0 6 0;
#X connect 16 0 17 0;
#X connect 17 0 9 0;
#X connect 18 0 19 0;
#X connect 18 0 20 0;
#X connect 19 0 20 1;
#X connect 20 0 16 0;
#X connect 21 0 22 0;
#X connect 22 0 147 0;
#X connect 22 0 178 0;
#X connect 23 0 13 0;
#X connect 23 1 7 0;
#X connect 23 2 8 0;
#X connect 23 3 14 0;
#X connect 23 4 15 0;
#X connect 23 5 11 0;
#X connect 24 0 0 1;
#X connect 24 1 2 1;
#X connect 24 2 3 1;
#X connect 24 3 4 1;
#X connect 27 0 18 0;
#X connect 30 0 5 0;
#X connect 31 0 54 2;
#X connect 33 0 5 0;
#X connect 34 0 54 3;
#X connect 37 0 54 1;
#X connect 38 0 0 0;
#X connect 38 1 2 0;
#X connect 38 2 3 0;
#X connect 38 3 4 0;
#X connect 39 0 8 0;
#X connect 40 0 39 0;
#X connect 42 0 1 0;
#X connect 42 0 1 1;
#X connect 43 0 172 0;
#X connect 45 0 10 0;
#X connect 46 0 48 0;
#X connect 47 0 46 1;
#X connect 48 0 41 0;
#X connect 49 0 48 2;
#X connect 49 0 46 2;
#X connect 50 0 49 0;
#X connect 51 0 52 0;
#X connect 52 0 49 0;
#X connect 55 0 54 7;
#X connect 56 0 58 0;
#X connect 57 0 17 0;
#X connect 58 0 57 0;
#X connect 59 0 112 2;
#X connect 60 0 112 0;
#X connect 62 0 1 0;
#X connect 62 0 1 1;
#X connect 63 0 112 4;
#X connect 63 0 66 0;
#X connect 64 0 65 0;
#X connect 64 0 68 0;
#X connect 64 0 168 0;
#X connect 64 0 188 0;
#X connect 65 0 63 0;
#X connect 66 0 65 1;
#X connect 66 0 54 4;
#X connect 67 0 69 0;
#X connect 67 0 112 5;
#X connect 68 0 67 0;
#X connect 69 0 68 1;
#X connect 69 0 54 5;
#X connect 70 0 64 0;
#X connect 73 0 144 0;
#X connect 74 0 54 0;
#X connect 77 0 66 0;
#X connect 78 0 69 0;
#X connect 80 0 183 0;
#X connect 84 0 115 0;
#X connect 85 0 115 4;
#X connect 85 0 88 0;
#X connect 86 0 87 0;
#X connect 86 0 90 0;
#X connect 86 0 161 0;
#X connect 86 0 192 0;
#X connect 87 0 85 0;
#X connect 88 0 87 1;
#X connect 88 0 54 11;
#X connect 89 0 91 0;
#X connect 89 0 115 5;
#X connect 90 0 89 0;
#X connect 91 0 90 1;
#X connect 91 0 54 12;
#X connect 92 0 86 0;
#X connect 93 0 91 0;
#X connect 94 0 88 0;
#X connect 97 0 104 0;
#X connect 98 0 107 0;
#X connect 99 0 100 0;
#X connect 100 0 98 0;
#X connect 101 0 102 0;
#X connect 101 0 143 0;
#X connect 102 0 99 0;
#X connect 103 0 97 0;
#X connect 104 0 106 0;
#X connect 105 0 100 0;
#X connect 106 0 105 0;
#X connect 108 0 6 1;
#X connect 110 0 111 0;
#X connect 111 0 109 0;
#X connect 112 0 153 0;
#X connect 112 1 71 0;
#X connect 112 2 158 0;
#X connect 112 3 159 0;
#X connect 112 4 72 0;
#X connect 114 0 1 0;
#X connect 114 0 1 1;
#X connect 115 0 150 0;
#X connect 115 1 140 0;
#X connect 115 2 156 0;
#X connect 115 3 157 0;
#X connect 115 4 141 0;
#X connect 116 0 39 0;
#X connect 117 0 115 2;
#X connect 118 0 97 0;
#X connect 119 0 123 0;
#X connect 119 0 133 0;
#X connect 120 0 126 0;
#X connect 120 0 134 0;
#X connect 121 0 119 1;
#X connect 122 0 120 1;
#X connect 124 0 112 1;
#X connect 125 0 115 1;
#X connect 127 0 121 0;
#X connect 128 0 122 0;
#X connect 129 0 9 0;
#X connect 130 0 98 0;
#X connect 131 0 135 0;
#X connect 131 0 133 0;
#X connect 132 0 136 0;
#X connect 132 0 134 0;
#X connect 133 0 131 1;
#X connect 134 0 132 1;
#X connect 137 0 54 8;
#X connect 138 0 54 9;
#X connect 139 0 54 10;
#X connect 142 0 101 0;
#X connect 143 0 102 1;
#X connect 144 0 145 0;
#X connect 144 0 146 0;
#X connect 148 0 149 0;
#X connect 149 0 144 0;
#X connect 150 0 113 0;
#X connect 151 0 152 0;
#X connect 152 0 150 1;
#X connect 153 0 61 0;
#X connect 154 0 153 1;
#X connect 155 0 154 0;
#X connect 160 0 115 6;
#X connect 161 0 160 0;
#X connect 162 0 161 1;
#X connect 164 0 166 0;
#X connect 165 0 163 0;
#X connect 166 0 223 0;
#X connect 167 0 112 6;
#X connect 168 0 167 0;
#X connect 169 0 168 1;
#X connect 170 0 171 0;
#X connect 172 0 0 1;
#X connect 174 0 175 0;
#X connect 175 0 222 0;
#X connect 176 0 170 0;
#X connect 177 0 165 0;
#X connect 178 0 24 0;
#X connect 178 1 23 0;
#X connect 178 2 181 0;
#X connect 178 3 79 0;
#X connect 178 4 179 0;
#X connect 180 0 185 0;
#X connect 181 0 26 0;
#X connect 181 1 28 0;
#X connect 181 2 29 0;
#X connect 181 3 75 0;
#X connect 181 4 76 0;
#X connect 181 5 169 0;
#X connect 181 6 174 0;
#X connect 181 7 182 0;
#X connect 183 0 81 0;
#X connect 183 1 82 0;
#X connect 183 2 83 0;
#X connect 183 3 96 0;
#X connect 183 4 95 0;
#X connect 183 5 162 0;
#X connect 183 6 164 0;
#X connect 183 7 184 0;
#X connect 185 0 218 0;
#X connect 186 0 54 0;
#X connect 187 0 190 0;
#X connect 187 0 112 3;
#X connect 188 0 187 0;
#X connect 189 0 190 0;
#X connect 190 0 188 1;
#X connect 190 0 54 6;
#X connect 191 0 115 3;
#X connect 191 0 193 0;
#X connect 192 0 191 0;
#X connect 193 0 192 1;
#X connect 193 0 54 13;
#X connect 194 0 193 0;
#X connect 196 0 215 0;
#X connect 197 0 196 0;
#X connect 198 0 196 0;
#X connect 199 0 201 0;
#X connect 199 0 197 0;
#X connect 200 0 199 0;
#X connect 201 0 196 0;
#X connect 215 0 41 0;
#X connect 215 1 202 0;
#X connect 216 0 54 0;
#X connect 217 0 21 0;
#X connect 218 0 54 0;
#X connect 222 0 176 0;
#X connect 222 0 220 0;
#X connect 223 0 177 0;
