#N canvas 338 125 938 536 12;
#X obj 704 115 s metroPoistion;
#X obj 734 369 r metroPoistion;
#X obj 703 20 inlet;
#X obj 120 20 inlet;
#X obj 324 20 inlet;
#X obj 18 271 s looperColour;
#X obj 11 20 inlet;
#X obj 220 20 inlet;
#X obj 120 50 route 0 1;
#X obj 219 50 route 0 1;
#X obj 1011 369 netreceive -u -b;
#X obj 1011 399 oscparse;
#X obj 1011 429 list trim;
#X obj 1014 549 hsl 128 15 0 127 0 0 empty empty empty -2 -8 0 10 -262144
-1 -1 0 1;
#X obj 1011 546 hradio 15 1 0 8 empty empty empty 0 -8 0 10 -262144
-1 -1 5;
#X obj 424 657 list prepend send;
#X obj 424 687 list trim;
#X obj 350 735 print;
#X obj 424 717 netsend -u -b;
#X msg 282 656 disconnect;
#X obj 1011 459 route metro;
#X obj 1011 489 route position;
#X obj 1011 519 route 1;
#X obj 734 429 oscformat metro position;
#X obj 1103 518 print out byte;
#X msg 1011 339 listen;
#X msg 734 399 1 \$1 1;
#X obj 11 50 s connections;
#X obj 195 576 r connections;
#X obj 24 570 oscparse;
#X obj 24 600 print parse-output;
#X obj 23 363 r looperColour;
#X obj 23 423 any2list;
#X obj 23 453 oscformat looper1 rec_ovr color;
#X obj 23 483 s looperColour;
#X obj 393 557 r looperColour;
#X obj 472 631 r metroPosition;
#X obj 734 459 s metroPosition;
#X msg 195 606 connect 192.168.100.30 8002;
#X msg 20 115 blue;
#X msg 20 144 orange;
#X obj 270 423 any2list;
#X obj 269 366 r symbolText;
#X obj 138 271 s symbolText;
#X obj 270 455 oscformat looper1 symbol;
#X msg 132 172 Arm_To_Record;
#X msg 127 143 Press to Arm;
#X obj 271 489 s looperSymboltext;
#X obj 411 583 r looperSymboltext;
#X msg 21 174 green;
#X msg 22 209 red;
#X msg 256 144 doubletap_to_Ovrdub;
#X obj 474 425 any2list;
#X obj 474 457 oscformat looper1 symbolRecording;
#X msg 259 188 Recording_Now;
#X obj 257 271 s looperActiveRecordingtext;
#X obj 474 367 r looperActiveRecordingtext;
#X obj 474 491 s looperSymbolRecordingtext;
#X obj 443 605 r looperSymbolRecordingtext;
#X connect 1 0 26 0;
#X connect 2 0 0 0;
#X connect 3 0 8 0;
#X connect 6 0 27 0;
#X connect 7 0 9 0;
#X connect 8 0 39 0;
#X connect 8 0 46 0;
#X connect 8 1 40 0;
#X connect 8 1 45 0;
#X connect 9 0 51 0;
#X connect 9 0 49 0;
#X connect 9 1 54 0;
#X connect 9 1 50 0;
#X connect 10 0 11 0;
#X connect 11 0 12 0;
#X connect 11 0 24 0;
#X connect 12 0 20 0;
#X connect 15 0 16 0;
#X connect 16 0 18 0;
#X connect 18 0 17 0;
#X connect 19 0 18 0;
#X connect 20 0 21 0;
#X connect 21 0 22 0;
#X connect 22 0 14 0;
#X connect 23 0 37 0;
#X connect 25 0 10 0;
#X connect 26 0 23 0;
#X connect 28 0 18 0;
#X connect 29 0 30 0;
#X connect 31 0 32 0;
#X connect 32 0 33 0;
#X connect 33 0 29 0;
#X connect 33 0 34 0;
#X connect 35 0 15 0;
#X connect 36 0 15 0;
#X connect 38 0 18 0;
#X connect 39 0 5 0;
#X connect 40 0 5 0;
#X connect 41 0 44 0;
#X connect 42 0 41 0;
#X connect 44 0 47 0;
#X connect 45 0 43 0;
#X connect 46 0 43 0;
#X connect 48 0 15 0;
#X connect 49 0 5 0;
#X connect 51 0 55 0;
#X connect 52 0 53 0;
#X connect 53 0 57 0;
#X connect 54 0 55 0;
#X connect 56 0 52 0;
#X connect 58 0 15 0;
