#N canvas 212 27 1278 778 12;
#X obj 40 414 readsf~;
#X msg 42 380 start;
#X msg 91 380 stop;
#X obj 72 356 bng 15 250 50 0 empty empty empty 17 7 0 10 -262144 -1
-1;
#X obj 41 677 dac~;
#X obj 173 16 adc~ 1 2;
#X obj 206 117 *~;
#X obj 266 -8 vsl 15 128 0 127 0 0 empty empty empty 0 -9 0 10 -262144
-1 -1 3200 1;
#X obj 408 232 env~ 128;
#X obj 408 302 dbtorms;
#X obj 518 276 vu 15 120 empty empty -1 -8 0 10 -66577 -1 1 0;
#X obj 482 234 - 100;
#X obj 44 532 *~;
#X obj 313 553 vsl 15 128 0 4 0 0 empty empty empty 0 -9 0 10 -262144
-1 -1 0 1;
#X obj 87 608 vu 15 120 empty empty -1 -8 0 10 -66577 -1 1 0;
#X obj 90 553 env~ 128;
#X obj 88 578 - 100;
#X obj 384 376 snapshot~;
#X floatatom 384 426 5 0 0 0 - - -;
#X obj 384 337 bng 15 250 50 0 empty empty empty 17 7 0 10 -262144
-1 -1;
#X msg 86 470 open ./drum/kicks/Bass-Drum-3.wav;
#X msg 763 73 set open ./percussion/Alesis-Fusion-Timpani.wav;
#X msg 679 30 set open ./drum/kicks/Bass-Drum-3.wav;
#X msg 685 51 set open ./drum/kicks/Boom-Kick.wav;
#X obj 689 138 s kick;
#X obj 144 438 r kick;
#X msg 678 9 set open ./drum/kicks/Deep-Kick.wav;
#X msg 222 199 1;
#X msg 252 198 0;
#X obj 208 252 print rest;
#X obj 363 469 clip~ -1 1;
#X obj 198 645 vline~;
#X obj 302 112 mtof;
#X obj 356 75 hsl 128 15 0 127 0 0 empty empty empty -2 -8 0 10 -262144
-1 -1 8700 1;
#X obj 155 158 lop~;
#X obj 592 416 readsf~;
#X msg 594 382 start;
#X msg 643 382 stop;
#X obj 624 358 bng 15 250 50 0 empty empty empty 17 7 0 10 -262144
-1 -1;
#X obj 593 679 dac~;
#X obj 960 234 env~ 128;
#X obj 960 304 dbtorms;
#X obj 1070 278 vu 15 120 empty empty -1 -8 0 10 -66577 -1 1 0;
#X obj 1034 236 - 100;
#X obj 596 534 *~;
#X obj 865 555 vsl 15 128 0 4 0 0 empty empty empty 0 -9 0 10 -262144
-1 -1 0 1;
#X obj 639 610 vu 15 120 empty empty -1 -8 0 10 -66577 -1 1 0;
#X obj 642 555 env~ 128;
#X obj 640 580 - 100;
#X obj 936 378 snapshot~;
#X floatatom 936 428 5 0 0 0 - - -;
#X obj 936 339 bng 15 250 50 0 empty empty empty 17 7 0 10 -262144
-1 -1;
#X obj 696 440 r kick;
#X msg 774 201 1;
#X msg 806 201 0;
#X obj 760 254 print rest;
#X obj 915 471 clip~ -1 1;
#X obj 750 647 vline~;
#X obj 824 154 mtof;
#X obj 878 117 hsl 128 15 0 127 0 0 empty empty empty -2 -8 0 10 -262144
-1 -1 12700 1;
#X obj 676 200 hip~;
#X msg 616 472 open ./drum/snare/Ensoniq-ESQ-1-Snare-2.wav;
#X obj 668 225 threshold~ 0.5 100 1 100;
#X obj 116 223 threshold~ 0.5 100 1 100;
#X obj 567 146 *~;
#X obj 627 21 vsl 15 128 0 127 0 0 empty empty empty 0 -9 0 10 -262144
-1 -1 2600 1;
#X connect 0 0 12 0;
#X connect 1 0 0 0;
#X connect 2 0 0 0;
#X connect 3 0 17 0;
#X connect 3 0 20 0;
#X connect 3 0 1 0;
#X connect 5 0 6 0;
#X connect 5 1 64 0;
#X connect 6 0 34 0;
#X connect 7 0 6 1;
#X connect 8 0 11 0;
#X connect 8 0 9 0;
#X connect 9 0 17 0;
#X connect 11 0 10 0;
#X connect 12 0 4 0;
#X connect 12 0 4 1;
#X connect 12 0 15 0;
#X connect 13 0 31 0;
#X connect 15 0 16 0;
#X connect 16 0 14 0;
#X connect 17 0 18 0;
#X connect 18 0 30 0;
#X connect 19 0 17 0;
#X connect 20 0 0 0;
#X connect 21 0 24 0;
#X connect 22 0 24 0;
#X connect 23 0 24 0;
#X connect 25 0 20 0;
#X connect 26 0 24 0;
#X connect 27 0 63 1;
#X connect 28 0 63 1;
#X connect 30 0 12 1;
#X connect 32 0 34 1;
#X connect 33 0 32 0;
#X connect 34 0 8 0;
#X connect 34 0 63 0;
#X connect 35 0 44 0;
#X connect 36 0 35 0;
#X connect 37 0 35 0;
#X connect 38 0 49 0;
#X connect 38 0 61 0;
#X connect 38 0 36 0;
#X connect 40 0 43 0;
#X connect 40 0 41 0;
#X connect 41 0 49 0;
#X connect 43 0 42 0;
#X connect 44 0 39 0;
#X connect 44 0 39 1;
#X connect 44 0 47 0;
#X connect 45 0 57 0;
#X connect 47 0 48 0;
#X connect 48 0 46 0;
#X connect 49 0 50 0;
#X connect 50 0 56 0;
#X connect 51 0 49 0;
#X connect 53 0 62 1;
#X connect 54 0 62 1;
#X connect 56 0 44 1;
#X connect 58 0 60 1;
#X connect 59 0 58 0;
#X connect 60 0 40 0;
#X connect 60 0 62 0;
#X connect 61 0 35 0;
#X connect 62 0 38 0;
#X connect 62 1 55 0;
#X connect 63 0 3 0;
#X connect 63 1 29 0;
#X connect 64 0 60 0;
#X connect 65 0 64 1;
