#N canvas 3 54 1351 686 10;
#X obj 2 574 outlet~;
#X obj 3 81 inlet~;
#X obj 36 302 delwrite~ \$0-delay 5000;
#X obj 197 425 vd~ \$0-delay;
#N canvas 115 454 450 300 wet-dry 0;
#X obj 124 66 inlet~;
#X obj 187 70 inlet~;
#X obj 261 72 inlet;
#X obj 132 221 outlet~;
#X obj 133 146 *~;
#X obj 192 146 *~;
#X floatatom 263 200 5 0 0 0 - - -, f 5;
#X floatatom 261 101 5 0 1 0 - - -, f 5;
#X obj 263 139 * -1;
#X obj 263 168 + 1;
#X connect 0 0 4 0;
#X connect 1 0 5 0;
#X connect 2 0 7 0;
#X connect 4 0 3 0;
#X connect 5 0 3 0;
#X connect 6 0 4 1;
#X connect 7 0 8 0;
#X connect 7 0 5 1;
#X connect 8 0 9 0;
#X connect 9 0 6 0;
#X restore 27 498 pd wet-dry;
#N canvas 181 182 657 686 bypass 0;
#X obj 195 -4 route 0 1;
#X obj 195 23 bng 15 250 50 0 empty empty empty 17 7 0 10 -262144 -1
-1;
#X obj 220 24 bng 15 250 50 0 empty empty empty 17 7 0 10 -262144 -1
-1;
#X msg 168 65 1;
#X msg 195 65 0;
#X msg 220 65 0;
#X msg 246 65 1;
#X obj 74 218 outlet~;
#X obj 195 -33 inlet;
#X obj 75 -33 inlet~;
#X obj 138 -33 inlet~;
#N canvas 628 268 450 300 pot~ 0;
#X obj -183 96 line~;
#X obj -220 175 *~;
#X obj -182 135 *~;
#X msg -183 69 \$1 20;
#X obj -221 20 inlet~;
#X obj -221 205 outlet~;
#X obj -183 43 inlet;
#X connect 0 0 2 0;
#X connect 0 0 2 1;
#X connect 1 0 5 0;
#X connect 2 0 1 1;
#X connect 3 0 0 0;
#X connect 4 0 1 0;
#X connect 6 0 3 0;
#X restore 74 138 pd pot~;
#N canvas 630 270 450 300 pot~ 0;
#X obj -183 96 line~;
#X obj -220 175 *~;
#X obj -182 135 *~;
#X msg -183 69 \$1 20;
#X obj -221 20 inlet~;
#X obj -221 205 outlet~;
#X obj -183 43 inlet;
#X connect 0 0 2 0;
#X connect 0 0 2 1;
#X connect 1 0 5 0;
#X connect 2 0 1 1;
#X connect 3 0 0 0;
#X connect 4 0 1 0;
#X connect 6 0 3 0;
#X restore 137 138 pd pot~;
#X connect 0 0 1 0;
#X connect 0 1 2 0;
#X connect 1 0 3 0;
#X connect 1 0 4 0;
#X connect 2 0 5 0;
#X connect 2 0 6 0;
#X connect 3 0 11 1;
#X connect 4 0 12 1;
#X connect 5 0 11 1;
#X connect 6 0 12 1;
#X connect 8 0 0 0;
#X connect 9 0 11 0;
#X connect 10 0 12 0;
#X connect 11 0 7 0;
#X connect 12 0 7 0;
#X restore 2 535 pd bypass;
#X obj 199 312 osc~;
#X obj 198 370 *~ \$1;
#X obj 196 397 abs~;
#X obj 15 451 * 0.01;
#X obj 101 101 cnv 15 184 114 empty empty Chorus 4 8 0 12 -4032 -13381
0;
#X floatatom 139 122 5 0 100 0 freq - -, f 5;
#X floatatom 139 141 5 0 100 0 delay - -, f 5;
#X floatatom 139 160 5 0 100 0 depth - -, f 5;
#X obj 147 181 hradio 12 1 0 2 empty empty bypass -38 8 0 10 -228856
-1 -1 1;
#X obj 40 12 loadbang;
#X msg 437 197 0;
#X obj 225 341 * 0.1;
#X obj 295 428 vd~ \$0-delay;
#X obj 296 373 *~ \$1;
#X obj 294 400 abs~;
#X obj 295 317 osc~;
#X obj 199 282 * 0.01;
#X obj 295 288 * 0.02;
#X obj 323 345 * 0.2;
#X obj 437 19 inlet;
#X obj 432 259 unpack f f f f;
#X obj 67 249 pack f f f f;
#X obj 351 545 outlet;
#X obj 67 219 bang;
#X obj 271 35 * 100;
#X obj 138 33 * 100;
#X obj 204 34 * 100;
#X obj 437 50 route 0 1 2;
#X obj 139 55 int;
#X obj 205 63 int;
#X obj 274 62 int;
#X msg 433 226 10 30 40 1;
#X obj 729 52 tgl 15 0 empty empty empty 17 7 0 10 -262144 -1 -1 0
1;
#X obj 729 72 switch~;
#X obj 727 17 inlet;
#X obj 974 174 f \$1;
#X floatatom 974 196 5 0 0 0 - - -, f 5;
#X connect 1 0 2 0;
#X connect 1 0 4 0;
#X connect 1 0 5 0;
#X connect 3 0 4 1;
#X connect 4 0 5 1;
#X connect 5 0 0 0;
#X connect 6 0 7 0;
#X connect 7 0 8 0;
#X connect 8 0 3 0;
#X connect 9 0 4 2;
#X connect 11 0 22 0;
#X connect 11 0 23 0;
#X connect 11 0 27 0;
#X connect 12 0 17 0;
#X connect 12 0 24 0;
#X connect 12 0 27 1;
#X connect 12 0 29 0;
#X connect 13 0 9 0;
#X connect 13 0 27 2;
#X connect 13 0 29 0;
#X connect 14 0 5 2;
#X connect 14 0 27 3;
#X connect 14 0 29 0;
#X connect 15 0 16 0;
#X connect 15 0 41 0;
#X connect 16 0 14 0;
#X connect 16 0 37 0;
#X connect 17 0 7 1;
#X connect 18 0 4 1;
#X connect 19 0 20 0;
#X connect 20 0 18 0;
#X connect 21 0 19 0;
#X connect 22 0 6 0;
#X connect 23 0 21 0;
#X connect 24 0 19 1;
#X connect 25 0 33 0;
#X connect 26 0 11 0;
#X connect 26 1 12 0;
#X connect 26 2 13 0;
#X connect 26 3 14 0;
#X connect 27 0 28 0;
#X connect 29 0 27 0;
#X connect 30 0 36 0;
#X connect 31 0 34 0;
#X connect 32 0 35 0;
#X connect 33 0 31 0;
#X connect 33 1 32 0;
#X connect 33 2 30 0;
#X connect 34 0 11 0;
#X connect 35 0 12 0;
#X connect 36 0 13 0;
#X connect 37 0 26 0;
#X connect 38 0 39 0;
#X connect 40 0 38 0;
#X connect 41 0 42 0;
#X coords 0 -1 1 1 186 116 2 100 100;
