#N canvas 98 54 1265 683 10;
#X obj 105 67 *~;
#N canvas 12 54 1351 686 workings 1;
#X obj 174 164 tgl 15 0 empty empty empty 17 7 0 10 -262144 -1 -1 0
1;
#X obj 111 165 tgl 15 0 empty empty empty 17 7 0 10 -262144 -1 -1 1
1;
#X obj 111 142 == 0;
#X obj 174 139 == 1;
#X obj 111 214 line~;
#X obj 111 188 pack 1 50;
#X obj 174 212 line~;
#X obj 174 187 pack 1 50;
#X obj 111 119 tgl 15 0 empty empty by 17 7 0 10 -262144 -1 -1 0 1
;
#X obj 25 230 *~;
#X obj 25 58 inlet~;
#X obj 160 254 *~;
#X obj 111 90 r \$0-stagByS;
#X obj 33 607 bng 15 250 50 0 empty empty make1 17 7 0 10 -262144 -1
-1;
#X msg 195 703 \; \$1 clear;
#X floatatom 67 756 5 0 0 0 - - -, f 5;
#X obj 194 681 makefilename pd-line1;
#X msg 194 656 0;
#X obj 67 734 v currwait1;
#X msg 68 783 \; pd-line1 obj 100 100 abs_delaywlength~ \$1 1;
#X msg 31 943 \; pd-line1 loadbang;
#X msg 522 688 \; \$1 clear;
#X floatatom 442 742 5 0 0 0 - - -, f 5;
#X msg 525 643 0;
#X obj 519 668 makefilename pd-line2;
#X msg 375 940 \; pd-line2 loadbang;
#X obj 442 718 v currwait2;
#X obj 381 570 bng 15 250 50 0 empty empty make2 17 7 0 10 -262144
-1 -1;
#X obj 490 -18 loadbang;
#X obj 490 10 s \$0-loadbang;
#X msg 442 763 \; pd-line2 obj 100 100 abs_delaywlength~ \$1 2;
#N canvas 74 59 450 299 line1 0;
#X obj 100 70 inlet~;
#X obj 100 100 abs_delaywlength~ 1 1;
#X obj 100 270 outlet~;
#X connect 0 0 1 0;
#X connect 1 0 2 0;
#X restore 25 296 pd line1;
#N canvas 3 64 450 300 line2 0;
#X obj 100 70 inlet~;
#X obj 100 100 abs_delaywlength~ 900 2;
#X obj 100 270 outlet~;
#X connect 0 0 1 0;
#X connect 1 0 2 0;
#X restore 85 296 pd line2;
#X obj 542 360 s delay1;
#X obj 714 597 pack 0 \$0;
#X text 728 578 height;
#X obj 714 518 * 127;
#X obj 714 540 + 1;
#X obj 714 562 int;
#X obj 981 595 pack 0 \$0;
#X text 988 578 height;
#X obj 981 516 * 127;
#X obj 981 538 + 1;
#X obj 981 560 int;
#X floatatom 268 245 5 0 0 1 ms - -, f 5;
#X obj 268 265 v currwait1;
#X obj 349 265 v currwait2;
#X floatatom 349 245 5 0 0 1 ms - -, f 5;
#X floatatom 832 570 6 440 3520 0 - - -, f 6;
#X text 881 571 top-range-bound;
#X msg 831 622 \; \$2-d1R range 0 \$1;
#X obj 831 597 pack 0 \$0;
#X floatatom 1104 569 6 440 3520 0 - - -, f 6;
#X obj 1104 596 pack 0 \$0;
#X msg 1104 622 \; \$2-d2R range 0 \$1;
#X obj 714 490 r \$0-w1S;
#X obj 981 490 r \$0-w2S;
#X obj 349 138 r \$0-w2S;
#X obj 542 334 r \$0-d1S;
#X obj 603 334 r \$0-d2S;
#X obj 1018 107 t b f;
#X obj 1018 85 r \$0-w1S;
#X obj 1006 57 r \$0-w2S;
#X floatatom 819 529 5 0 0 0 - - -, f 5;
#X obj 1006 131 >= 0;
#X msg 1007 183 bang;
#X obj 1007 206 pack 0 \$0;
#X msg 1160 174 bang;
#X obj 1160 197 pack 0 \$0;
#X msg 1161 220 \; \$2-phaseR color 13 12 12;
#X msg 1007 234 \; \$2-phaseR color 16 12 12;
#X obj 603 360 s delay2;
#X obj 268 138 r \$0-w1S;
#X obj 349 219 int;
#X obj 268 220 int;
#X obj 291 88 + 1;
#X msg 427 14 0, f 4;
#X obj 291 111 * 1000;
#X obj 32 584 r \$0-w1S;
#X obj 381 546 r \$0-w2S;
#X msg 714 622 \; \$2-d1R size \$1 15;
#X msg 981 622 \; \$2-d2R size \$1 15;
#X text 712 470 vd1;
#X text 978 470 vd2;
#X obj 291 62 r \$0-maxlength;
#X obj 592 32 cnv 15 184 114 empty empty empty 2 8 0 14 -233017 -66577
0;
#X obj 612 199 vsl 15 66 0 1 0 0 feedback1 empty fdb1 0 -9 0 10 -262144
-1 -1 6500 1;
#X obj 673 199 vsl 15 66 0 1 0 0 gain1 empty gn1 0 -9 0 10 -262144
-1 -1 3250 1;
#X obj 642 199 vsl 15 66 0 1 0 0 feedback2 empty fdb2 0 -9 0 10 -262144
-1 -1 6500 1;
#X obj 703 199 vsl 15 66 0 1 0 0 gain2 empty gn2 0 -9 0 10 -262144
-1 -1 3250 1;
#X obj 488 105 r \$0-d1R;
#X obj 488 65 r \$0-w1R;
#X obj 488 85 r \$0-w2R;
#X obj 488 124 r \$0-d2R;
#X obj 818 98 s \$0-w1S;
#X obj 819 118 s \$0-w2S;
#X obj 819 138 s \$0-d1S;
#X obj 819 158 s \$0-d2S;
#X obj 1186 94 hradio 12 1 0 8 empty empty 1-8(secs) 0 -8 0 10 -262144
-1 -1 4;
#X obj 609 45 hsl 128 15 0 1 0 0 empty empty w1 -16 8 0 10 -262144
-1 -1 6350 1;
#X obj 608 61 hsl 128 15 0 1 0 0 empty empty w2 -16 8 0 10 -262144
-1 -1 9525 1;
#X obj 607 77 hsl 64 15 0 0.5 0 0 empty empty d1 -16 8 0 10 -262144
-1 -1 0 1;
#X obj 609 93 hsl 96 15 0 0.75 0 0 empty empty d2 -16 8 0 10 -262144
-1 -1 0 1;
#X obj 488 44 s \$0-maxlength;
#X obj 612 124 hsl 128 8 -1 1 0 0 \$0-phaseS \$0-phaseR ph -16 8 0
10 -24198 -33289 -33289 4762 1;
#X floatatom 485 202 5 0 0 0 - - -, f 5;
#X obj 485 175 r \$0-diff;
#X obj 745 36 tgl 15 0 empty empty by 17 7 0 10 -262144 -1 -1 0 1;
#X obj 802 53 s \$0-stagByS;
#X obj 802 178 s \$0-phaseS;
#X obj 487 144 r \$0-phaseR;
#X obj 485 224 s \$0-phaseR;
#X text 601 117 1<2;
#X text 720 117 2<1;
#X text 660 117 same;
#X obj 657 129 hsl 32 15 0 1 0 0 empty empty sw -16 2 0 10 -258699
-33289 -33289 0 1;
#X obj 484 247 r \$0-sweetR;
#X obj 804 211 s \$0-sweetS;
#X obj 910 103 t b f;
#X obj 881 56 r \$0-w2S;
#X obj 1006 157 sel 0 1;
#X obj 881 133 -;
#X floatatom 881 164 5 0 0 0 - - -, f 5;
#X obj 1048 406 pack 0 \$0;
#X obj 1048 327 * 127;
#X obj 1048 349 + 1;
#X obj 1048 371 int;
#X floatatom 926 265 5 0 0 0 - - -, f 5;
#X obj 1048 301 abs;
#X floatatom 1183 386 3 20 90 0 - - -, f 3;
#X text 1212 383 x-position;
#X obj 1183 406 pack 0 0 \$0;
#X obj 881 192 moses 0;
#X obj 938 55 r \$0-w1S;
#X obj 938 79 * 2;
#X msg 1047 430 \; \$2-sweetR size \$1 15;
#X obj 1184 279 + 1;
#X msg 1186 430 \; \$3-sweetR pos \$1 194;
#X obj 1184 350 + 610;
#X obj 558 457 t b f;
#X obj 544 482 +;
#X obj 623 446 t b f;
#X obj 612 476 +;
#X obj 544 529 -;
#X obj 612 512 t b f;
#X obj 544 387 r \$0-w1S;
#X obj 612 385 r \$0-w2S;
#X obj 559 414 r \$0-d1S;
#X obj 632 412 r \$0-d2S;
#X obj 545 552 s \$0-diff;
#X obj 609 549 s \$0-s1S;
#X obj 612 573 s \$0-s2S;
#X floatatom 883 274 5 0 0 0 - - -, f 5;
#X obj 883 296 abs;
#X obj 883 318 <=;
#X msg 884 380 bang;
#X obj 884 406 pack 0 \$0;
#X msg 724 371 bang;
#X obj 724 406 pack 0 \$0;
#X obj 883 354 sel 0 1;
#X msg 725 430 \; \$2-sweetR color 13 12 12;
#X msg 884 430 \; \$2-sweetR color 16 12 12;
#X obj 1184 325 int;
#X obj 1183 303 * 68;
#X obj 881 231 moses -1;
#X obj 24 460 outlet~;
#X obj 24 410 *~ 1;
#N canvas 3 55 1265 686 layoutcontrols 0;
#X floatatom 63 164 3 20 90 0 - - -, f 3;
#X floatatom 96 169 3 150 200 0 - - -, f 3;
#X text 57 146 x-position;
#X text 118 166 y-position;
#X msg 62 250 \; \$3-w1R pos \$1 \$2;
#X obj 96 188 t b f;
#X obj 63 228 pack 0 0 \$0;
#X floatatom 193 168 3 20 90 0 - - -, f 3;
#X floatatom 226 173 3 150 200 0 - - -, f 3;
#X text 187 150 x-position;
#X text 248 170 y-position;
#X obj 226 192 t b f;
#X obj 193 232 pack 0 0 \$0;
#X msg 193 254 \; \$3-d1R pos \$1 \$2;
#X floatatom 62 303 3 20 90 0 - - -, f 3;
#X floatatom 95 308 3 150 200 0 - - -, f 3;
#X text 56 285 x-position;
#X text 117 305 y-position;
#X obj 95 327 t b f;
#X obj 62 367 pack 0 0 \$0;
#X floatatom 192 307 3 20 90 0 - - -, f 3;
#X floatatom 225 312 3 150 200 0 - - -, f 3;
#X text 186 289 x-position;
#X text 247 309 y-position;
#X obj 225 331 t b f;
#X obj 192 371 pack 0 0 \$0;
#X msg 192 393 \; \$3-d2R pos \$1 \$2;
#X obj 67 74 bng 15 250 50 0 empty empty empty 17 7 0 10 -262144 -1
-1;
#X floatatom 317 310 3 20 90 0 - - -, f 3;
#X floatatom 350 315 3 150 200 0 - - -, f 3;
#X text 311 292 x-position;
#X text 372 312 y-position;
#X obj 350 334 t b f;
#X obj 317 374 pack 0 0 \$0;
#X msg 319 396 \; \$3-phaseR pos \$1 \$2;
#X msg 61 389 \; \$3-w2R pos \$1 \$2;
#X msg 64 100 610;
#X msg 100 99 80;
#X msg 130 100 100;
#X msg 163 101 120;
#X msg 194 102 140;
#X msg 234 102 174;
#X text 430 310 y-position;
#X floatatom 500 311 3 20 90 0 - - -, f 3;
#X floatatom 533 316 3 150 200 0 - - -, f 3;
#X text 494 293 x-position;
#X text 555 313 y-position;
#X obj 533 335 t b f;
#X obj 500 375 pack 0 0 \$0;
#X msg 502 397 \; \$3-sweetR pos \$1 \$2;
#X msg 271 102 194;
#X obj 67 40 loadbang;
#X obj 131 41 inlet;
#X connect 0 0 6 0;
#X connect 1 0 5 0;
#X connect 5 0 6 0;
#X connect 5 1 6 1;
#X connect 6 0 4 0;
#X connect 7 0 12 0;
#X connect 8 0 11 0;
#X connect 11 0 12 0;
#X connect 11 1 12 1;
#X connect 12 0 13 0;
#X connect 14 0 19 0;
#X connect 15 0 18 0;
#X connect 18 0 19 0;
#X connect 18 1 19 1;
#X connect 19 0 35 0;
#X connect 20 0 25 0;
#X connect 21 0 24 0;
#X connect 24 0 25 0;
#X connect 24 1 25 1;
#X connect 25 0 26 0;
#X connect 27 0 36 0;
#X connect 27 0 37 0;
#X connect 27 0 38 0;
#X connect 27 0 39 0;
#X connect 27 0 40 0;
#X connect 27 0 41 0;
#X connect 27 0 50 0;
#X connect 28 0 33 0;
#X connect 29 0 32 0;
#X connect 32 0 33 0;
#X connect 32 1 33 1;
#X connect 33 0 34 0;
#X connect 36 0 0 0;
#X connect 36 0 7 0;
#X connect 36 0 14 0;
#X connect 36 0 20 0;
#X connect 36 0 28 0;
#X connect 36 0 43 0;
#X connect 37 0 1 0;
#X connect 38 0 15 0;
#X connect 39 0 8 0;
#X connect 40 0 21 0;
#X connect 41 0 29 0;
#X connect 43 0 48 0;
#X connect 44 0 47 0;
#X connect 47 0 48 0;
#X connect 47 1 48 1;
#X connect 48 0 49 0;
#X connect 50 0 44 0;
#X connect 52 0 27 0;
#X restore 120 27 pd layoutcontrols;
#X obj 120 0 bng 15 250 50 0 empty empty bang_here_(or_reload)_to_reset_the_control_locations
17 7 0 10 -262144 -1 -1;
#X obj 372 167 t b f;
#X obj 349 194 *;
#X obj 291 168 t b f;
#X obj 268 195 *;
#X msg 606 -1 0.001;
#X text 1083 131 phase is only green when w2>w1 \; otherwise it's red
;
#X text 966 281 scale the sweetspot \; indicator;
#X text 1069 387 width;
#X text 929 380 green;
#X text 767 377 red;
#X text 117 446 recreate the two delay objects \; every time the w(delwrite)
value is changed;
#X obj 610 108 hsl 128 15 0 1 0 0 empty empty mW -16 8 0 10 -262144
-1 -1 0 1;
#X obj 767 -6 r \$0-mixwR;
#X obj 966 3 s \$0-mixwS;
#X obj 1078 4 - 1;
#X obj 1078 26 abs;
#X obj 609 30 hsl 128 15 0 1 0 0 empty empty 1-8(secs) -2 7 0 10 -262144
-1 -1 0 1;
#X obj 857 12 * 8;
#X obj 807 246 r \$0-loadbang;
#X msg 757 272 1;
#X msg 830 274 0.5;
#X obj 1141 -26 inlet;
#X msg 396 103 0.5;
#X obj 1141 3 route 0 1 2 3;
#X obj 418 163 t b b;
#X msg 449 189 0.9;
#X msg 419 189 0.75;
#X msg 521 725 \; pd-line2 obj 100 70 inlet~;
#X msg 46 864 \; pd-line1 obj 100 270 outlet~;
#X msg 151 742 \; pd-line1 obj 100 70 inlet~;
#X msg 415 845 \; pd-line2 obj 100 270 outlet~;
#X msg 434 805 \; pd-line2 connect 0 0 1 0;
#X msg 387 891 \; pd-line2 connect 1 0 2 0;
#X msg 45 904 \; pd-line1 connect 1 0 2 0;
#X msg 45 824 \; pd-line1 connect 0 0 1 0;
#X obj 33 632 t b b b b b b b;
#X obj 382 594 t b b b b b b b;
#X obj 24 343 +~;
#X obj 24 365 /~ 2;
#X connect 0 0 7 0;
#X connect 1 0 5 0;
#X connect 2 0 1 0;
#X connect 3 0 0 0;
#X connect 4 0 9 1;
#X connect 5 0 4 0;
#X connect 6 0 11 1;
#X connect 7 0 6 0;
#X connect 8 0 2 0;
#X connect 8 0 3 0;
#X connect 9 0 31 0;
#X connect 9 0 32 0;
#X connect 10 0 11 0;
#X connect 10 0 9 0;
#X connect 11 0 166 0;
#X connect 12 0 8 0;
#X connect 13 0 204 0;
#X connect 15 0 19 0;
#X connect 16 0 14 0;
#X connect 17 0 16 0;
#X connect 18 0 15 0;
#X connect 22 0 30 0;
#X connect 23 0 24 0;
#X connect 24 0 21 0;
#X connect 26 0 22 0;
#X connect 27 0 205 0;
#X connect 28 0 29 0;
#X connect 28 0 173 0;
#X connect 28 0 76 0;
#X connect 28 0 191 0;
#X connect 28 0 193 0;
#X connect 31 0 206 0;
#X connect 32 0 206 1;
#X connect 34 0 80 0;
#X connect 36 0 37 0;
#X connect 37 0 38 0;
#X connect 38 0 34 0;
#X connect 39 0 81 0;
#X connect 41 0 42 0;
#X connect 42 0 43 0;
#X connect 43 0 39 0;
#X connect 44 0 45 0;
#X connect 47 0 46 0;
#X connect 48 0 51 0;
#X connect 51 0 50 0;
#X connect 52 0 53 0;
#X connect 53 0 54 0;
#X connect 55 0 36 0;
#X connect 55 0 48 0;
#X connect 55 0 63 0;
#X connect 56 0 41 0;
#X connect 56 0 52 0;
#X connect 57 0 170 0;
#X connect 58 0 33 0;
#X connect 59 0 71 0;
#X connect 60 0 64 0;
#X connect 60 1 64 1;
#X connect 61 0 60 0;
#X connect 62 0 64 0;
#X connect 64 0 120 0;
#X connect 65 0 66 0;
#X connect 66 0 70 0;
#X connect 67 0 68 0;
#X connect 68 0 69 0;
#X connect 72 0 172 0;
#X connect 73 0 47 0;
#X connect 74 0 44 0;
#X connect 75 0 77 0;
#X connect 76 0 101 0;
#X connect 76 0 102 0;
#X connect 76 0 107 0;
#X connect 76 0 185 0;
#X connect 77 0 169 0;
#X connect 77 0 171 0;
#X connect 78 0 13 0;
#X connect 79 0 27 0;
#X connect 84 0 75 0;
#X connect 90 0 101 0;
#X connect 91 0 99 0;
#X connect 92 0 100 0;
#X connect 93 0 102 0;
#X connect 99 0 94 0;
#X connect 100 0 95 0;
#X connect 101 0 96 0;
#X connect 102 0 97 0;
#X connect 104 0 109 0;
#X connect 104 0 152 0;
#X connect 105 0 111 0;
#X connect 106 0 105 0;
#X connect 107 0 108 0;
#X connect 110 0 104 0;
#X connect 115 0 117 0;
#X connect 116 0 115 0;
#X connect 118 0 121 0;
#X connect 118 1 121 1;
#X connect 119 0 121 0;
#X connect 120 0 67 0;
#X connect 120 1 65 0;
#X connect 121 0 122 0;
#X connect 122 0 132 0;
#X connect 123 0 135 0;
#X connect 124 0 125 0;
#X connect 125 0 126 0;
#X connect 126 0 123 0;
#X connect 127 0 128 0;
#X connect 127 0 136 0;
#X connect 128 0 124 0;
#X connect 128 0 154 1;
#X connect 129 0 131 0;
#X connect 131 0 137 0;
#X connect 132 0 164 0;
#X connect 133 0 134 0;
#X connect 134 0 118 0;
#X connect 136 0 163 0;
#X connect 139 0 140 0;
#X connect 139 1 140 1;
#X connect 140 0 150 0;
#X connect 140 0 143 0;
#X connect 141 0 142 0;
#X connect 141 1 142 1;
#X connect 142 0 151 0;
#X connect 142 0 144 0;
#X connect 143 0 149 0;
#X connect 144 0 143 0;
#X connect 144 1 143 1;
#X connect 145 0 140 0;
#X connect 146 0 142 0;
#X connect 147 0 139 0;
#X connect 148 0 141 0;
#X connect 152 0 153 0;
#X connect 153 0 154 0;
#X connect 154 0 159 0;
#X connect 155 0 156 0;
#X connect 156 0 161 0;
#X connect 157 0 158 0;
#X connect 158 0 160 0;
#X connect 159 0 157 0;
#X connect 159 1 155 0;
#X connect 162 0 138 0;
#X connect 163 0 162 0;
#X connect 164 1 127 0;
#X connect 166 0 165 0;
#X connect 168 0 167 0;
#X connect 169 0 170 0;
#X connect 169 1 170 1;
#X connect 170 0 73 0;
#X connect 171 0 172 0;
#X connect 171 1 172 1;
#X connect 172 0 74 0;
#X connect 173 0 99 0;
#X connect 173 0 100 0;
#X connect 180 0 182 0;
#X connect 180 0 183 0;
#X connect 180 0 99 0;
#X connect 181 0 180 0;
#X connect 183 0 184 0;
#X connect 184 0 100 0;
#X connect 185 0 186 0;
#X connect 186 0 103 0;
#X connect 187 0 188 0;
#X connect 187 0 189 0;
#X connect 188 0 86 0;
#X connect 188 0 88 0;
#X connect 189 0 87 0;
#X connect 189 0 89 0;
#X connect 190 0 192 0;
#X connect 191 0 99 0;
#X connect 192 0 185 0;
#X connect 192 1 101 0;
#X connect 192 2 102 0;
#X connect 192 3 107 0;
#X connect 193 0 195 0;
#X connect 193 1 194 0;
#X connect 194 0 100 0;
#X connect 195 0 100 0;
#X connect 204 0 20 0;
#X connect 204 1 202 0;
#X connect 204 2 197 0;
#X connect 204 3 203 0;
#X connect 204 4 18 0;
#X connect 204 5 198 0;
#X connect 204 6 17 0;
#X connect 205 0 25 0;
#X connect 205 1 201 0;
#X connect 205 2 199 0;
#X connect 205 3 200 0;
#X connect 205 4 26 0;
#X connect 205 5 196 0;
#X connect 205 6 23 0;
#X connect 206 0 207 0;
#X connect 207 0 166 0;
#X coords 0 -1 1 1 186 116 2 590 30;
#X restore 100 100 pd workings;
#X obj 103 32 inlet~;
#X obj 100 355 *~ 1;
#X obj 101 414 outlet~;
#X obj 1034 45 inlet;
#X obj 566 158 *~;
#X obj 582 81 tgl 15 0 empty empty empty 17 7 0 10 -262144 -1 -1 0
1;
#X obj 399 134 tgl 15 0 empty empty empty 17 7 0 10 -262144 -1 -1 1
1;
#X obj 399 111 == 0;
#X obj 576 55 == 1;
#X obj 399 183 line~;
#X obj 399 157 pack 1 50;
#X obj 576 128 line~;
#X obj 576 103 pack 1 50;
#X obj 566 190 s~ \$0-bypassedSignal;
#X obj 339 341 r~ \$0-bypassedSignal;
#X obj 507 92 tgl 15 0 empty empty empty 17 7 0 10 -262144 -1 -1 0
1;
#X obj 501 41 loadbang;
#X msg 506 64 0;
#X msg 807 94 0 \$1;
#X msg 850 94 1 \$1;
#X msg 896 94 2 \$1;
#X obj 414 289 line~;
#X msg 413 260 \$1 50;
#X obj 100 377 *~;
#X msg 674 70 0.5 50;
#X obj 674 50 loadbang;
#X obj 1034 74 tgl 15 0 empty empty empty 17 7 0 10 -262144 -1 -1 0
1;
#X obj 1030 101 switch~;
#X obj 812 63 route 0 1 2, f 15;
#X obj 806 34 inlet;
#X obj 862 -3 hsl 128 15 0 1 0 0 empty empty empty -2 -8 0 10 -262144
-1 -1 0 1;
#X obj 888 40 hsl 128 15 0 1 0 0 empty empty empty -2 -8 0 10 -262144
-1 -1 0 1;
#X obj 869 20 hsl 128 15 0 1 0 0 empty empty empty -2 -8 0 10 -262144
-1 -1 0 1;
#X text 216 13 this is sending an error currently \; duplicate sends
\; stag-delay~IN: multiply defined \; stagdelay~OUT: multiply defined
;
#X connect 0 0 1 0;
#X connect 1 0 3 0;
#X connect 2 0 0 0;
#X connect 2 0 6 0;
#X connect 3 0 25 0;
#X connect 5 0 28 0;
#X connect 6 0 15 0;
#X connect 7 0 14 0;
#X connect 8 0 12 0;
#X connect 9 0 8 0;
#X connect 10 0 7 0;
#X connect 11 0 0 1;
#X connect 12 0 11 0;
#X connect 13 0 6 1;
#X connect 14 0 13 0;
#X connect 16 0 3 0;
#X connect 17 0 9 0;
#X connect 17 0 10 0;
#X connect 18 0 19 0;
#X connect 19 0 17 0;
#X connect 20 0 1 1;
#X connect 21 0 1 1;
#X connect 22 0 1 1;
#X connect 23 0 25 1;
#X connect 24 0 23 0;
#X connect 25 0 4 0;
#X connect 26 0 23 0;
#X connect 27 0 26 0;
#X connect 28 0 29 0;
#X connect 30 0 20 0;
#X connect 30 1 21 0;
#X connect 30 2 22 0;
#X connect 30 3 24 0;
#X connect 31 0 30 0;
#X connect 32 0 20 0;
#X connect 33 0 22 0;
#X connect 34 0 21 0;
#X coords 0 -1 1 1 186 116 2 100 100;
