#N canvas 0 54 1280 718 10;
#X obj 232 11 inlet~;
#N canvas 181 182 657 686 bypass 0;
#X obj 195 -4 route 0 1;
#X obj 195 23 bng 15 250 50 0 empty empty empty 17 7 0 10 -262144 -1
-1;
#X obj 220 24 bng 15 250 50 0 empty empty empty 17 7 0 10 -262144 -1
-1;
#X msg 168 65 1;
#X msg 195 65 0;
#X msg 220 65 0;
#X msg 246 65 1;
#X obj 74 218 outlet~;
#X obj 195 -33 inlet;
#X obj 75 -33 inlet~;
#X obj 138 -33 inlet~;
#N canvas 628 268 450 300 pot~ 0;
#X obj -183 96 line~;
#X obj -220 175 *~;
#X obj -182 135 *~;
#X msg -183 69 \$1 20;
#X obj -221 20 inlet~;
#X obj -221 205 outlet~;
#X obj -183 43 inlet;
#X connect 0 0 2 0;
#X connect 0 0 2 1;
#X connect 1 0 5 0;
#X connect 2 0 1 1;
#X connect 3 0 0 0;
#X connect 4 0 1 0;
#X connect 6 0 3 0;
#X restore 74 138 pd pot~;
#N canvas 630 270 450 300 pot~ 0;
#X obj -183 96 line~;
#X obj -220 175 *~;
#X obj -182 135 *~;
#X msg -183 69 \$1 20;
#X obj -221 20 inlet~;
#X obj -221 205 outlet~;
#X obj -183 43 inlet;
#X connect 0 0 2 0;
#X connect 0 0 2 1;
#X connect 1 0 5 0;
#X connect 2 0 1 1;
#X connect 3 0 0 0;
#X connect 4 0 1 0;
#X connect 6 0 3 0;
#X restore 137 138 pd pot~;
#X connect 0 0 1 0;
#X connect 0 1 2 0;
#X connect 1 0 3 0;
#X connect 1 0 4 0;
#X connect 2 0 5 0;
#X connect 2 0 6 0;
#X connect 3 0 11 1;
#X connect 4 0 12 1;
#X connect 5 0 11 1;
#X connect 6 0 12 1;
#X connect 8 0 0 0;
#X connect 9 0 11 0;
#X connect 10 0 12 0;
#X connect 11 0 7 0;
#X connect 12 0 7 0;
#X restore 234 534 pd bypass;
#X obj 101 101 cnv 15 184 114 empty empty Filter 4 8 0 12 -257985 -13381
0;
#X floatatom 140 160 4 0 100 0 gain - -;
#X floatatom 144 115 4 0 130 0 hipass - -;
#X floatatom 144 134 4 0 130 0 lopass - -;
#X obj 147 181 hradio 12 1 0 2 empty empty bypass -38 8 0 10 -228856
-1 -1 0;
#X obj 71 1 loadbang;
#X obj 424 26 inlet;
#X obj 259 53 unpack f f f f;
#X obj 59 238 pack f f f f;
#X obj 380 571 outlet;
#X obj 301 253 *~ \$1;
#X obj 336 295 mtof;
#X obj 356 354 mtof;
#X obj 308 179 * 0.5;
#X obj 58 190 bang;
#X obj 326 338 lop~;
#X obj 325 381 hip~;
#X msg 71 43 130;
#X msg 116 44 10;
#X obj 665 31 inlet;
#X obj 412 124 int;
#X obj 466 124 int;
#X obj 514 124 int;
#X obj 424 54 route 0 1 2;
#X obj 412 99 * 100;
#X obj 466 99 * 130;
#X obj 514 99 * 130;
#X msg 206 53 1;
#X obj 665 53 tgl 15 0 empty empty empty 17 7 0 10 -262144 -1 -1 0
1;
#X obj 665 73 switch~;
#X obj 297 8 adc~;
#X obj 264 586 dac~;
#X connect 0 0 1 0;
#X connect 0 0 12 0;
#X connect 1 0 33 0;
#X connect 1 0 33 1;
#X connect 3 0 10 0;
#X connect 3 0 15 0;
#X connect 4 0 10 1;
#X connect 4 0 13 0;
#X connect 4 0 16 0;
#X connect 5 0 10 2;
#X connect 5 0 14 0;
#X connect 5 0 16 0;
#X connect 6 0 1 2;
#X connect 6 0 10 3;
#X connect 6 0 16 0;
#X connect 7 0 29 0;
#X connect 7 0 19 0;
#X connect 7 0 20 0;
#X connect 8 0 25 0;
#X connect 9 0 3 0;
#X connect 9 1 4 0;
#X connect 9 2 5 0;
#X connect 9 3 6 0;
#X connect 10 0 11 0;
#X connect 12 0 17 0;
#X connect 13 0 17 1;
#X connect 14 0 18 1;
#X connect 15 0 12 1;
#X connect 16 0 10 0;
#X connect 17 0 18 0;
#X connect 18 0 1 1;
#X connect 19 0 4 0;
#X connect 20 0 3 0;
#X connect 21 0 30 0;
#X connect 22 0 3 0;
#X connect 23 0 4 0;
#X connect 24 0 5 0;
#X connect 25 0 27 0;
#X connect 25 1 28 0;
#X connect 25 2 26 0;
#X connect 26 0 22 0;
#X connect 27 0 23 0;
#X connect 28 0 24 0;
#X connect 29 0 6 0;
#X connect 30 0 31 0;
#X connect 32 0 1 0;
#X connect 32 1 12 0;
#X coords 0 -1 1 1 186 116 2 100 100;
