#N canvas 3 54 450 300 10;
#X obj 82 99 streamStretch(v);
#X obj 267 75 tgl 15 0 empty empty empty 17 7 0 10 -262144 -1 -1 1
1;
#X obj 81 41 adc~;
#X obj 82 220 dac~;
#X obj 138 -4 ../shared/rand_note_signal~;
#X connect 0 0 3 0;
#X connect 0 0 3 1;
#X connect 1 0 0 2;
#X connect 2 0 0 0;
#X connect 2 1 0 0;
#X connect 4 0 0 0;
